<svg width="60" height="61" viewBox="0 0 60 61" fill="none" xmlns="http://www.w3.org/2000/svg">
<g id="24-hours-removebg-preview 1" clip-path="url(#clip0_55_1809)">
<path id="Vector" d="M43.56 13.7679C44.0351 14.183 44.4966 14.6117 44.9523 15.0478C45.0953 15.1843 45.2399 15.3191 45.3848 15.4535C48.0836 18.0259 49.8281 21.6336 50.7375 25.2054C50.7609 25.2969 50.7842 25.3885 50.8083 25.4828C51.1833 27.0406 51.2855 28.5759 51.2775 30.1704C51.2772 30.2658 51.2769 30.3611 51.2766 30.4594C51.2697 31.883 51.2292 33.2609 50.88 34.6479C50.8529 34.7571 50.8258 34.8664 50.7979 34.979C49.785 38.9482 47.9584 42.2632 45.12 45.2079C45.0419 45.2922 44.9637 45.3765 44.8833 45.4634C42.0581 48.4324 38.2542 50.1798 34.32 51.0879C34.2407 51.1077 34.1613 51.1275 34.0796 51.148C29.201 52.3435 23.4752 51.1616 19.215 48.6354C14.2365 45.5838 10.7042 40.8728 9.26247 35.2104C9.23909 35.1189 9.2157 35.0273 9.1916 34.933C8.81669 33.3752 8.71448 31.8399 8.72247 30.2454C8.72277 30.15 8.72307 30.0547 8.72338 29.9564C8.75159 24.1251 11.1627 18.8614 15.2777 14.7738C18.1528 11.9975 21.6936 10.2409 25.56 9.3279C25.6413 9.30808 25.7226 9.28826 25.8064 9.26784C31.9201 7.84737 38.8233 9.7575 43.56 13.7679ZM19.6106 22.6573C19.0113 23.2248 18.5818 23.8184 18.24 24.5679C18.2032 24.6454 18.1663 24.7229 18.1284 24.8027C17.8002 25.5701 17.5885 26.5208 17.9025 27.3204C18.2384 27.888 18.478 28.1602 19.1175 28.3404C19.6823 28.4435 20.0258 28.358 20.52 28.0479C21.0151 27.5115 21.1084 26.9125 21.2667 26.2221C21.4048 25.7274 21.6178 25.4235 22.0551 25.1566C22.5642 24.9476 23.1008 24.9854 23.64 25.0479C24.0983 25.2607 24.298 25.439 24.585 25.8504C24.8723 26.6964 24.7674 27.4253 24.4017 28.2335C23.8099 29.3107 22.8489 29.9406 21.8745 30.6442C19.875 32.095 18.2326 33.7072 17.8129 36.2548C17.7279 37.0232 17.6946 37.5892 18.12 38.2479C18.58 38.7388 18.9825 38.9507 19.6499 38.9848C19.7764 38.9856 19.9028 38.9864 20.0331 38.9872C20.2488 38.989 20.2488 38.989 20.4689 38.9907C20.7014 38.9915 20.7014 38.9915 20.9386 38.9923C21.1 38.993 21.2614 38.9937 21.4228 38.9943C21.761 38.9956 22.0993 38.9963 22.4375 38.9967C22.8692 38.9974 23.3009 39.0003 23.7326 39.0037C24.0661 39.0059 24.3995 39.0065 24.733 39.0067C24.969 39.0073 25.205 39.0095 25.4411 39.0118C26.4251 39.0093 27.0892 38.9817 27.825 38.2779C28.1162 37.8326 28.2 37.5788 28.2 37.0479C27.9938 36.3445 27.7095 36.0088 27.12 35.6079C26.5617 35.4427 25.9882 35.4727 25.4114 35.4762C25.3057 35.4763 25.2 35.4765 25.0911 35.4767C24.7549 35.4774 24.4187 35.4789 24.0825 35.4804C23.854 35.481 23.6254 35.4815 23.3969 35.482C22.8379 35.4834 22.279 35.4854 21.72 35.4879C21.8506 35.3361 21.9816 35.1846 22.1128 35.0332C22.1857 34.9488 22.2586 34.8644 22.3337 34.7774C22.9142 34.1371 23.5992 33.6243 24.285 33.1029C26.1486 31.6785 27.6883 30.1422 28.125 27.7479C28.3193 26.1649 28.0377 24.7974 27.075 23.5029C26.0259 22.2531 24.8852 21.6365 23.2486 21.4671C21.8889 21.4089 20.6755 21.7989 19.6106 22.6573ZM32.3381 21.9757C31.8337 22.5467 31.7854 22.9827 31.7806 23.721C31.7795 23.8648 31.7783 24.0086 31.7771 24.1568C31.7766 24.3118 31.7761 24.4668 31.7756 24.6265C31.7749 24.7879 31.7742 24.9493 31.7735 25.1107C31.7723 25.449 31.7716 25.7872 31.7711 26.1254C31.7705 26.5571 31.7676 26.9888 31.7642 27.4205C31.7619 27.754 31.7613 28.0875 31.7611 28.4209C31.7606 28.6569 31.7584 28.893 31.7561 29.129C31.7584 30.0492 31.7896 30.7111 32.385 31.4454C32.834 31.802 33.2581 31.9182 33.8258 31.9151C33.9387 31.9151 34.0516 31.9151 34.1679 31.9151C34.2881 31.9138 34.4084 31.9126 34.5323 31.9113C34.7188 31.9108 34.7188 31.9108 34.9091 31.9103C35.3052 31.909 35.7013 31.906 36.0975 31.9029C36.3665 31.9017 36.6354 31.9006 36.9044 31.8996C37.563 31.897 38.2215 31.893 38.88 31.8879C38.8789 31.9564 38.8778 32.025 38.8767 32.0956C38.8661 32.812 38.8589 33.5284 38.8536 34.2448C38.8512 34.5118 38.8479 34.7788 38.8438 35.0458C38.8379 35.4307 38.8352 35.8155 38.8331 36.2004C38.8306 36.3188 38.8281 36.4372 38.8256 36.5592C38.8254 37.3008 38.9261 37.8726 39.36 38.4879C39.7699 38.8223 40.1522 38.9468 40.68 38.9679C41.3833 38.7581 41.7136 38.4735 42.12 37.8879C42.2405 37.5249 42.2555 37.1901 42.2568 36.8091C42.2575 36.6885 42.2582 36.5679 42.2589 36.4437C42.259 36.3121 42.2592 36.1805 42.2593 36.0449C42.2599 35.9057 42.2605 35.7665 42.2611 35.6231C42.2629 35.1623 42.2637 34.7014 42.2644 34.2406C42.2649 34.0013 42.2654 33.7621 42.2659 33.5228C42.2673 32.8562 42.2682 32.1896 42.2686 31.523C42.2692 30.6621 42.2713 29.8013 42.2748 28.9404C42.2774 28.2741 42.2786 27.6078 42.2787 26.9415C42.2789 26.5439 42.2797 26.1464 42.2817 25.7489C42.2838 25.3051 42.2835 24.8613 42.2827 24.4175C42.2839 24.2866 42.285 24.1558 42.2861 24.0209C42.2811 23.1132 42.1993 22.5017 41.55 21.8229C41.0999 21.5286 40.8575 21.4386 40.32 21.4479C39.8676 21.5701 39.5064 21.7143 39.2344 22.111C38.8432 22.816 38.8165 23.4204 38.8331 24.2154C38.8341 24.4011 38.8341 24.4011 38.8352 24.5906C38.8378 24.9831 38.8438 25.3755 38.85 25.7679C38.8524 26.0352 38.8546 26.3026 38.8565 26.5699C38.8614 27.2227 38.8708 27.8751 38.88 28.5279C37.098 28.4685 37.098 28.4685 35.28 28.4079C35.2769 28.0005 35.2738 27.593 35.2706 27.1732C35.266 26.7776 35.2606 26.3821 35.2551 25.9865C35.2517 25.7121 35.2491 25.4376 35.2475 25.1632C35.2449 24.7681 35.2393 24.3732 35.2331 23.9782C35.233 23.8559 35.2328 23.7337 35.2327 23.6077C35.2151 22.7505 35.0755 22.3234 34.4625 21.7104C33.7158 21.305 32.9673 21.3951 32.3381 21.9757Z" fill="white"/>
<path id="Vector_2" d="M7.05834 6.54672C7.17573 6.54518 7.29311 6.54364 7.41406 6.54205C7.60418 6.54072 7.60418 6.54072 7.79814 6.53936C7.92882 6.5384 8.05949 6.53743 8.19413 6.53643C8.47092 6.53477 8.74772 6.53348 9.02451 6.53254C9.44671 6.53047 9.86879 6.52521 10.291 6.51991C10.56 6.5187 10.8291 6.51767 11.0981 6.51686C11.2239 6.51476 11.3497 6.51266 11.4793 6.5105C12.2387 6.51274 12.7176 6.56865 13.32 7.04796C13.8735 7.74756 13.8706 8.38291 13.8638 9.25296C13.8645 9.44795 13.8645 9.44795 13.8652 9.64688C13.8655 9.92081 13.8646 10.1947 13.8626 10.4687C13.86 10.8866 13.8626 11.3044 13.8656 11.7223C13.8653 11.9892 13.8647 12.2561 13.8638 12.523C13.8647 12.6472 13.8657 12.7715 13.8667 12.8995C13.857 13.6538 13.7709 14.1156 13.32 14.728C12.8071 15.1554 12.3228 15.2872 11.6569 15.2544C11.1114 15.1558 10.7844 14.8353 10.41 14.4505C10.1655 14.0749 10.0752 13.7188 9.96002 13.288C5.93176 18.3704 3.41674 24.6017 3.72002 31.168C3.72431 31.265 3.7286 31.3621 3.73303 31.4621C4.08483 38.3698 7.12162 44.8631 12.1678 49.5945C12.7616 50.1303 13.3988 50.611 14.04 51.088C14.1078 51.139 14.1755 51.19 14.2453 51.2426C18.0329 54.0858 22.512 55.9036 27.24 56.368C27.3712 56.3811 27.5024 56.3943 27.6375 56.4078C34.4756 56.9906 41.2377 54.9565 46.5839 50.6611C46.7731 50.5095 46.9647 50.3609 47.1567 50.2128C48.7234 48.983 50.0653 47.5304 51.24 45.928C51.2983 45.8497 51.3566 45.7715 51.4166 45.6909C53.9798 42.2388 55.5258 38.4043 56.1873 34.1569C56.3399 33.226 56.4818 32.6647 57.2625 32.083C57.7643 31.8267 58.2484 31.7865 58.8 31.888C59.3573 32.1873 59.7977 32.4809 60 33.088C60.4983 38.4627 57.1915 44.5496 53.9625 48.6505C53.5523 49.1424 53.1229 49.6177 52.6908 50.0905C52.478 50.3259 52.2742 50.5655 52.0725 50.8105C51.749 51.1919 51.3866 51.5089 51.0056 51.8319C50.765 52.0436 50.5461 52.266 50.325 52.498C48.1249 54.7195 45.1728 56.3777 42.36 57.688C42.2345 57.7468 42.2345 57.7468 42.1065 57.8069C39.5612 58.9839 36.8541 59.7092 34.08 60.088C33.9368 60.1089 33.7935 60.1298 33.646 60.1514C33.0319 60.2269 32.4194 60.2318 31.8014 60.2365C31.6757 60.2377 31.5499 60.2389 31.4203 60.2401C26.2004 60.2789 26.2004 60.2789 23.76 59.728C23.6455 59.7035 23.5309 59.6791 23.4129 59.6539C18.1549 58.5096 13.2188 55.78 9.36002 52.048C9.27107 51.9623 9.18213 51.8766 9.09049 51.7883C3.79468 46.6631 0.117394 39.4991 -0.0202669 32.0306C-0.0925219 26.6525 0.657872 21.8931 3.00002 17.008C3.03529 16.9329 3.07056 16.8578 3.10689 16.7804C3.64633 15.6443 4.33929 14.6041 5.03252 13.558C5.07797 13.4891 5.12342 13.4202 5.17024 13.3492C5.85292 12.318 6.56246 11.2855 7.44002 10.408C7.32052 10.3882 7.32052 10.3882 7.19861 10.3681C6.42072 10.2284 5.89397 10.1113 5.37002 9.48546C5.12377 9.01935 4.99847 8.65628 5.04002 8.12796C5.23726 7.48982 5.55262 7.05168 6.12002 6.68796C6.46779 6.57204 6.69624 6.55086 7.05834 6.54672Z" fill="white"/>
<path id="Vector_3" d="M56.52 17.3679C57.2831 17.7495 57.7041 18.3233 58.0041 19.1089C58.053 19.2361 58.102 19.3633 58.1524 19.4943C58.2028 19.6292 58.2531 19.764 58.305 19.9029C58.3576 20.042 58.4102 20.1811 58.4644 20.3244C58.8993 21.4866 59.2986 22.6549 59.64 23.8479C59.6807 23.9862 59.7214 24.1245 59.7633 24.267C60.0292 25.2695 60.302 26.7014 59.8364 27.6673C59.5523 28.0444 59.2222 28.3168 58.8 28.5279C58.1646 28.6069 57.6106 28.5803 57.0732 28.21C56.4038 27.6485 56.2912 26.8105 56.145 26.0004C55.9102 24.8164 55.5773 23.6848 55.1925 22.5429C55.1669 22.4662 55.1413 22.3896 55.1148 22.3106C54.8499 21.5213 54.5773 20.7472 54.2093 19.9995C53.9853 19.4186 54.0573 18.8629 54.2625 18.2904C54.8525 17.4156 55.5209 17.2572 56.52 17.3679Z" fill="white"/>
<path id="Vector_4" d="M38.2357 1.07225C42.1524 2.43289 42.1524 2.43289 42.72 3.56811C42.7699 4.11043 42.787 4.60586 42.5775 5.11311C42.1809 5.57808 41.7937 5.92255 41.169 5.99486C40.4174 6.01648 39.8583 5.83212 39.1725 5.54061C37.295 4.78635 35.3544 4.19599 33.3569 3.85815C32.6627 3.7312 32.2821 3.48356 31.8225 2.96061C31.5961 2.40061 31.561 1.88084 31.68 1.28811C32.9923 -0.861346 36.3329 0.4427 38.2357 1.07225Z" fill="white"/>
<path id="Vector_5" d="M27.5803 0.383365C28.0283 0.766685 28.2792 1.07471 28.3528 1.67618C28.3793 2.33228 28.3188 2.74291 27.9215 3.27133C27.2901 3.82494 26.5363 3.91333 25.74 4.05555C24.5234 4.28954 23.3636 4.62642 22.1925 5.02305C22.115 5.04919 22.0375 5.07532 21.9577 5.10225C20.9817 5.431 20.9817 5.431 20.0297 5.8218C19.3974 6.08622 18.8384 6.05802 18.2025 5.81805C17.7445 5.51984 17.4549 5.29278 17.28 4.76805C17.2326 4.23044 17.2129 3.73571 17.415 3.23055C18.0934 2.43901 18.8445 2.13319 19.8075 1.77555C19.9452 1.72358 20.0828 1.6716 20.2247 1.61805C25.8942 -0.485248 25.8942 -0.485248 27.5803 0.383365Z" fill="white"/>
<path id="Vector_6" d="M47.64 5.848C48.1616 6.15321 48.6217 6.52852 49.08 6.9205C49.1463 6.97701 49.2126 7.03352 49.2809 7.09174C51.3778 8.89347 51.3778 8.89347 52.2431 9.93362C52.4821 10.2181 52.735 10.488 52.9875 10.7605C54.2748 12.2043 54.2748 12.2043 54.315 13.063C54.2748 13.6263 54.1536 14.0723 53.76 14.488C53.1983 14.8986 52.6576 15.0695 51.96 14.968C51.3078 14.6506 50.9063 14.3027 50.46 13.738C50.3447 13.5973 50.2294 13.4567 50.1141 13.3161C50.0596 13.2488 50.0051 13.1814 49.9489 13.112C48.8702 11.7795 47.669 10.5503 46.2804 9.54137C45.7139 9.12068 45.3442 8.68064 45.12 8.008C45.0419 7.34377 45.1711 6.95109 45.5433 6.41612C46.0726 5.79269 46.8688 5.6987 47.64 5.848Z" fill="white"/>
<path id="Vector_7" d="M32.16 8.96811C32.16 9.00771 32.16 9.04731 32.16 9.08811C31.9843 9.09073 31.9843 9.09073 31.8049 9.09341C31.3603 9.10049 30.9157 9.10976 30.4711 9.1196C30.2805 9.12354 30.0899 9.12692 29.8993 9.12968C27.7952 9.12149 27.7952 9.12149 25.8 9.68811C25.5591 9.65437 25.3188 9.61483 25.08 9.56811C26.9804 8.45307 30.0399 8.9345 32.16 8.96811Z" fill="white"/>
<path id="Vector_8" d="M58.2825 31.8806C58.428 31.8822 58.428 31.8822 58.5764 31.8838C58.6871 31.8859 58.6871 31.8859 58.8 31.8881C58.8 31.9277 58.8 31.9673 58.8 32.0081C58.6612 32.0127 58.6612 32.0127 58.5197 32.0174C58.3993 32.0242 58.279 32.031 58.155 32.0381C58.0352 32.0436 57.9155 32.0492 57.7922 32.0549C57.4647 32.0931 57.4647 32.0931 57.3361 32.3563C57.2885 32.4809 57.2885 32.4809 57.24 32.6081C57.1434 32.6996 57.0469 32.7912 56.9475 32.8856C56.4316 33.4701 56.3968 34.3816 56.28 35.1281C56.2404 35.1281 56.2008 35.1281 56.16 35.1281C56.2625 33.0393 56.2625 33.0393 56.8111 32.4126C57.2852 31.9996 57.6677 31.8716 58.2825 31.8806Z" fill="white"/>
<path id="Vector_9" d="M15.84 14.248C15.9192 14.2876 15.9984 14.3272 16.08 14.368C14.5117 16.2108 14.5117 16.2108 13.92 16.408C14.083 16.0428 14.2661 15.7933 14.5509 15.5137C14.6259 15.4394 14.701 15.3652 14.7783 15.2887C14.8564 15.2126 14.9345 15.1365 15.015 15.058C15.094 14.9801 15.1731 14.9021 15.2545 14.8218C15.4491 14.63 15.6443 14.4388 15.84 14.248Z" fill="white"/>
<path id="Vector_10" d="M23.04 33.928C23.1192 33.9676 23.1984 34.0072 23.28 34.048C23.2235 34.1117 23.167 34.1754 23.1089 34.2411C23.0342 34.3259 22.9594 34.4106 22.8825 34.498C22.8087 34.5815 22.7349 34.665 22.6589 34.7511C22.4361 35.0032 22.4361 35.0032 22.2548 35.2799C22.1683 35.3829 22.1683 35.3829 22.08 35.488C21.9612 35.488 21.8424 35.488 21.72 35.488C21.9043 35.0463 22.1738 34.7694 22.515 34.438C22.613 34.3421 22.7111 34.2462 22.8122 34.1474C22.9249 34.0388 22.9249 34.0388 23.04 33.928Z" fill="white"/>
<path id="Vector_11" d="M57.6 42.208C57.72 42.568 57.72 42.568 57.6235 42.8182C57.5726 42.9118 57.5217 43.0054 57.4692 43.1019C57.4147 43.2036 57.3602 43.3053 57.304 43.4101C57.2457 43.5158 57.1875 43.6216 57.1275 43.7305C57.0408 43.8912 57.0408 43.8912 56.9524 44.0551C56.8093 44.32 56.6652 44.5843 56.52 44.848C56.4804 44.848 56.4408 44.848 56.4 44.848C56.3775 44.5705 56.3775 44.5705 56.4 44.248C56.4507 44.1997 56.5015 44.1515 56.5537 44.1018C56.8548 43.7898 57.0167 43.4122 57.2025 43.0255C57.2602 42.9078 57.2602 42.9078 57.319 42.7876C57.4133 42.5947 57.5067 42.4014 57.6 42.208Z" fill="white"/>
<path id="Vector_12" d="M27.24 9.20808C27.24 9.24769 27.24 9.28728 27.24 9.32808C27.1562 9.34402 27.0723 9.35995 26.986 9.37637C26.8767 9.39756 26.7675 9.41875 26.655 9.44058C26.5464 9.46147 26.4378 9.48235 26.326 9.50387C26.0401 9.55604 26.0401 9.55604 25.8 9.68809C25.5591 9.65435 25.3188 9.6148 25.08 9.56808C25.7628 9.17415 26.4749 9.19489 27.24 9.20808Z" fill="white"/>
<path id="Vector_13" d="M50.28 47.1279C50.28 47.6085 50.0964 47.9596 49.8 48.3279C49.47 48.4404 49.47 48.4404 49.2 48.4479C49.2478 48.3929 49.2956 48.3378 49.3449 48.2811C49.6694 47.9052 49.9896 47.5313 50.28 47.1279Z" fill="white"/>
<path id="Vector_14" d="M46.08 5.96802C46.1988 6.00762 46.3176 6.04722 46.44 6.08802C46.3608 6.08802 46.2816 6.08802 46.2 6.08802C46.1678 6.15979 46.1356 6.23157 46.1025 6.30552C45.9601 6.56784 45.8285 6.73762 45.6 6.92802C45.5208 6.92802 45.4416 6.92802 45.36 6.92802C45.5097 6.4664 45.6464 6.2045 46.08 5.96802Z" fill="white"/>
</g>
<defs>
<clipPath id="clip0_55_1809">
<rect width="60" height="60" fill="white" transform="translate(0 0.208008)"/>
</clipPath>
</defs>
</svg>
