<svg width="60" height="61" viewBox="0 0 60 61" fill="none" xmlns="http://www.w3.org/2000/svg">
<g id="computer-worker-removebg-preview 1">
<path id="Vector" d="M46.717 27.7324C48.1628 29.1446 48.828 30.9054 48.8713 32.9059C48.8731 33.1958 48.8735 33.4856 48.873 33.7755C48.8735 33.9365 48.8741 34.0975 48.8748 34.2585C48.8764 34.6916 48.8765 35.1246 48.8762 35.5577C48.8761 35.9204 48.8766 36.2831 48.8772 36.6457C48.8785 37.5011 48.8786 38.3565 48.8779 39.2119C48.8771 40.0929 48.8786 40.9739 48.8812 41.855C48.8833 42.6136 48.884 43.3723 48.8836 44.1309C48.8834 44.5831 48.8837 45.0353 48.8854 45.4875C48.8872 45.991 48.8861 46.4945 48.8847 46.998C48.8856 47.147 48.8865 47.2961 48.8875 47.4497C48.8797 48.7208 48.8797 48.7208 48.48 49.2879C48.0304 49.6528 47.6825 49.6912 47.1127 49.6831C46.8963 49.6813 46.8963 49.6813 46.6755 49.6795C46.526 49.6765 46.3765 49.6735 46.2225 49.6704C46.0707 49.6688 45.9188 49.6672 45.7624 49.6655C45.3882 49.6612 45.0141 49.6553 44.64 49.6479C44.5214 49.1774 44.5265 48.7965 44.585 48.316C44.6109 48.097 44.6109 48.097 44.6374 47.8737C44.6573 47.7141 44.6772 47.5546 44.6972 47.3951C44.7173 47.2283 44.7374 47.0615 44.7574 46.8947C44.8111 46.4493 44.866 46.0039 44.921 45.5586C44.9663 45.1913 45.0108 44.8239 45.0552 44.4564C45.2562 42.7956 45.4611 41.1353 45.6778 39.4765C45.6992 39.3123 45.6992 39.3123 45.721 39.1447C45.7845 38.6595 45.8489 38.1745 45.9153 37.6897C46.2203 35.9857 46.2203 35.9857 45.72 34.4079C45.2746 34.006 44.9872 33.7932 44.3899 33.7918C44.2867 33.7913 44.1835 33.7907 44.0772 33.7902C43.9631 33.7902 43.8491 33.7902 43.7315 33.7902C43.6109 33.7898 43.4902 33.7894 43.3659 33.7889C42.959 33.7876 42.5521 33.7871 42.1452 33.7867C41.8545 33.7859 41.5638 33.7851 41.2732 33.7843C40.3988 33.782 39.5245 33.7807 38.6502 33.7796C38.2386 33.7791 37.8269 33.7785 37.4153 33.7778C36.0469 33.7758 34.6785 33.774 33.3101 33.7732C32.9549 33.7729 32.5997 33.7727 32.2445 33.7725C32.1562 33.7724 32.0679 33.7724 31.9769 33.7723C30.547 33.7713 29.117 33.7683 27.6871 33.7644C26.2192 33.7604 24.7513 33.7582 23.2834 33.7579C22.4592 33.7576 21.6349 33.7565 20.8107 33.7535C20.0352 33.7506 19.2598 33.7502 18.4844 33.7514C18.1997 33.7515 17.915 33.7507 17.6303 33.7491C17.2417 33.7469 16.8532 33.7478 16.4646 33.7494C16.3519 33.7481 16.2392 33.7467 16.1231 33.7454C15.4067 33.7524 14.9855 33.8674 14.4 34.2879C13.6869 35.2021 13.8909 36.1848 14.0244 37.2829C14.0716 37.6571 14.1207 38.031 14.1698 38.4049C14.196 38.608 14.222 38.8111 14.248 39.0141C14.3164 39.5482 14.3857 40.0821 14.4553 40.616C14.5786 41.5639 14.7006 42.5119 14.8223 43.4599C14.8354 43.5616 14.8485 43.6634 14.862 43.7682C15.0299 45.076 15.192 46.3842 15.3389 47.6946C15.3611 47.8908 15.3611 47.8908 15.3837 48.091C15.3967 48.21 15.4097 48.329 15.4231 48.4517C15.4343 48.5533 15.4454 48.6549 15.4568 48.7596C15.4807 49.057 15.484 49.3497 15.48 49.6479C14.955 49.6584 14.4301 49.6648 13.905 49.6704C13.7565 49.6734 13.608 49.6764 13.455 49.6795C13.2392 49.6813 13.2392 49.6813 13.0191 49.6831C12.8211 49.6859 12.8211 49.6859 12.6192 49.6888C12.1678 49.6401 11.8979 49.5402 11.52 49.2879C11.0274 48.598 11.1102 47.8354 11.1153 47.0238C11.1149 46.8682 11.1144 46.7126 11.114 46.5523C11.1129 46.1265 11.114 45.7008 11.1156 45.275C11.117 44.8278 11.1165 44.3806 11.1162 43.9334C11.1161 43.1815 11.1174 42.4297 11.1197 41.6779C11.1222 40.8122 11.1226 39.9466 11.1219 39.0809C11.1212 38.245 11.1219 37.4091 11.1232 36.5732C11.1238 36.2191 11.1239 35.8651 11.1236 35.511C11.1233 35.0142 11.1251 34.5175 11.127 34.0207C11.1267 33.8759 11.1264 33.7312 11.1261 33.5821C11.1382 31.637 11.443 29.9266 12.72 28.4079C12.7922 28.312 12.8645 28.2161 12.9389 28.1173C15.8864 24.6247 22.0338 23.9994 26.2315 23.6097C32.6263 23.0822 41.6238 23.2903 46.717 27.7324Z" fill="white"/>
<path id="Vector_2" d="M16.3687 35.3519C16.5361 35.3523 16.5361 35.3523 16.7069 35.3527C16.8246 35.3526 16.9422 35.3524 17.0634 35.3522C17.4607 35.3517 17.8581 35.3521 18.2554 35.3525C18.539 35.3523 18.8226 35.3521 19.1061 35.3518C19.7983 35.3513 20.4905 35.3514 21.1826 35.3518C21.7449 35.352 22.3072 35.3521 22.8695 35.3519C22.9893 35.3519 22.9893 35.3519 23.1116 35.3519C23.2738 35.3518 23.4361 35.3518 23.5983 35.3518C25.1215 35.3514 26.6446 35.3518 28.1678 35.3525C29.4761 35.353 30.7845 35.3529 32.0928 35.3523C33.6103 35.3517 35.1279 35.3514 36.6454 35.3518C36.8071 35.3519 36.9687 35.3519 37.1304 35.3519C37.2497 35.352 37.2497 35.352 37.3715 35.352C37.9334 35.3521 38.4954 35.3519 39.0573 35.3516C39.8129 35.3513 40.5686 35.3515 41.3242 35.3522C41.6024 35.3524 41.8806 35.3523 42.1589 35.3521C42.5369 35.3517 42.9149 35.3521 43.293 35.3527C43.4046 35.3525 43.5162 35.3522 43.6312 35.3519C44.3863 35.3543 44.3863 35.3543 44.52 35.488C44.5082 37.0911 44.2564 38.6951 44.0554 40.2824C44.0212 40.5556 43.9869 40.8288 43.9527 41.102C43.8814 41.6705 43.8097 42.2389 43.7376 42.8072C43.6452 43.5358 43.5543 44.2646 43.4637 44.9934C43.3935 45.5558 43.3226 46.118 43.2515 46.6802C43.2176 46.9491 43.1839 47.218 43.1506 47.4869C43.1041 47.8612 43.0564 48.2353 43.0085 48.6094C42.9882 48.7756 42.9882 48.7756 42.9675 48.9452C42.9542 49.0471 42.9409 49.149 42.9272 49.254C42.9161 49.3422 42.905 49.4304 42.8935 49.5213C42.84 49.768 42.84 49.768 42.6 50.248C34.284 50.248 25.968 50.248 17.4 50.248C17.1802 49.8085 17.1131 49.5676 17.056 49.0942C17.0391 48.9577 17.0222 48.8212 17.0048 48.6806C16.9873 48.5322 16.9698 48.3838 16.9518 48.231C16.9226 47.9929 16.8935 47.7549 16.8643 47.5169C16.8334 47.2637 16.8029 47.0105 16.7726 46.7572C16.6784 45.9709 16.5819 45.1848 16.4854 44.3986C16.4638 44.2225 16.4423 44.0464 16.4207 43.8703C16.28 42.7191 16.1335 41.5689 15.9768 40.4197C15.9598 40.2949 15.9429 40.1701 15.9254 40.0416C15.8471 39.4689 15.7678 38.8965 15.6873 38.3242C15.426 36.441 15.426 36.441 15.48 35.488C15.7117 35.2563 16.0603 35.3529 16.3687 35.3519ZM27.96 41.968C27.4913 42.5325 27.3339 43.1612 27.36 43.888C27.4722 44.7399 27.7687 45.2283 28.4357 45.763C29.0866 46.2027 29.7321 46.368 30.5165 46.2444C31.2361 46.0415 31.8112 45.6731 32.28 45.088C32.6462 44.3662 32.7626 43.5863 32.52 42.808C32.1488 42.0261 31.6433 41.466 30.84 41.128C29.7286 40.8015 28.7715 41.1871 27.96 41.968Z" fill="white"/>
<path id="Vector_3" d="M3.65342 52.7523C3.74564 52.7521 3.83786 52.7518 3.93287 52.7516C4.24441 52.7509 4.55595 52.7511 4.86749 52.7512C5.09209 52.7509 5.31669 52.7506 5.5413 52.7502C6.16048 52.7492 6.77967 52.749 7.39885 52.7489C8.06586 52.7487 8.73287 52.7478 9.39987 52.747C10.8592 52.7453 12.3185 52.7446 13.7778 52.7441C14.6884 52.7437 15.599 52.7432 16.5096 52.7427C19.0292 52.7412 21.5488 52.74 24.0684 52.7396C24.2313 52.7396 24.3943 52.7395 24.5573 52.7395C24.7206 52.7395 24.884 52.7395 25.0473 52.7394C25.3751 52.7394 25.7028 52.7393 26.0305 52.7393C26.1118 52.7393 26.193 52.7392 26.2768 52.7392C28.9126 52.7388 31.5483 52.7369 34.1841 52.7341C36.9698 52.7311 39.7555 52.7295 42.5412 52.7293C44.0602 52.7292 45.5791 52.7285 47.0981 52.7264C48.3912 52.7245 49.6843 52.7239 50.9774 52.7249C51.6376 52.7254 52.2977 52.7252 52.9579 52.7236C53.5617 52.722 54.1656 52.7222 54.7694 52.7236C54.9883 52.7239 55.2073 52.7235 55.4262 52.7225C55.7229 52.7211 56.0196 52.722 56.3163 52.7235C56.4449 52.7221 56.4449 52.7221 56.5761 52.7207C57.2169 52.7275 57.5945 52.8944 58.0539 53.3318C58.2636 53.7285 58.2561 54.1101 58.2562 54.5484C58.2571 54.6392 58.258 54.7301 58.259 54.8237C58.2603 55.0155 58.2606 55.2074 58.2601 55.3992C58.26 55.6914 58.265 55.9832 58.2703 56.2753C58.2709 56.4622 58.2712 56.649 58.2712 56.8359C58.2732 56.9226 58.2751 57.0092 58.2772 57.0985C58.2709 57.562 58.2022 57.863 57.918 58.2214C57.4255 58.6963 56.9941 58.6655 56.3468 58.6642C56.2547 58.6645 56.1625 58.6648 56.0675 58.6651C55.7561 58.6659 55.4447 58.6658 55.1332 58.6658C54.9087 58.6662 54.6842 58.6666 54.4597 58.6671C53.8407 58.6683 53.2218 58.6687 52.6028 58.6691C51.9361 58.6695 51.2693 58.6707 50.6025 58.6717C48.9915 58.6741 47.3804 58.6753 45.7693 58.6764C45.0112 58.6769 44.2531 58.6775 43.495 58.6782C40.9759 58.6802 38.4568 58.682 35.9378 58.6828C35.7748 58.6829 35.6119 58.6829 35.449 58.683C35.3278 58.683 35.3278 58.683 35.2041 58.6831C34.7947 58.6832 34.3854 58.6834 33.976 58.6835C33.8947 58.6835 33.8135 58.6836 33.7298 58.6836C31.0949 58.6846 28.4599 58.6874 25.825 58.6913C23.04 58.6954 20.255 58.6977 17.47 58.6981C15.9515 58.6984 14.433 58.6995 12.9146 58.7025C11.6217 58.7051 10.3289 58.7061 9.03613 58.7049C8.3762 58.7044 7.71629 58.7046 7.05636 58.7069C6.45257 58.709 5.84882 58.7089 5.24502 58.7071C5.02626 58.7068 4.80749 58.7073 4.58873 58.7087C4.2919 58.7105 3.99522 58.7094 3.69839 58.7075C3.61298 58.7087 3.52757 58.7099 3.43957 58.7112C2.84049 58.7029 2.50052 58.5449 2.03996 58.1681C1.74676 57.7283 1.75917 57.389 1.75543 56.8795C1.75435 56.7885 1.75327 56.6975 1.75215 56.6037C1.75041 56.4112 1.74934 56.2186 1.7489 56.0261C1.74747 55.7328 1.74158 55.4399 1.73551 55.1468C1.73437 54.9593 1.73351 54.7719 1.73293 54.5845C1.73059 54.4975 1.72824 54.4105 1.72583 54.3208C1.72992 53.8558 1.79651 53.5542 2.08165 53.1946C2.57461 52.7199 3.00599 52.7507 3.65342 52.7523Z" fill="white"/>
<path id="Vector_4" d="M36.2175 4.0706C38.0452 6.00349 38.6101 8.56489 38.5496 11.159C38.4199 14.2838 37.3264 17.5578 35.04 19.7681C33.4875 21.1355 31.6818 21.9027 29.5979 21.8498C27.6687 21.666 26.1926 20.8784 24.84 19.5281C24.7472 19.4367 24.6544 19.3453 24.5588 19.2511C22.3111 16.9072 21.3889 13.4385 21.4505 10.2506C21.5939 8.10146 22.0928 6.07226 23.52 4.4081C23.5912 4.32225 23.6624 4.2364 23.7357 4.14795C25.2153 2.51343 27.4542 1.8937 29.5874 1.77519C32.0325 1.71595 34.4102 2.36162 36.2175 4.0706Z" fill="white"/>
<path id="Vector_5" d="M13.2 27.8081C13.2792 27.8477 13.3584 27.8873 13.44 27.9281C13.2666 28.3326 13.0504 28.5978 12.72 28.8881C12.6012 28.9277 12.4824 28.9673 12.36 29.0081C12.5601 28.5351 12.8672 28.1934 13.2 27.8081Z" fill="white"/>
</g>
</svg>
