<svg width="60" height="61" viewBox="0 0 60 61" fill="none" xmlns="http://www.w3.org/2000/svg">
<g id="coworkers-removebg-preview 1">
<path id="Vector" d="M45.0923 35.2077C45.2361 35.2069 45.3799 35.2061 45.528 35.2053C45.8306 35.2041 46.1333 35.2035 46.4359 35.2036C46.8949 35.203 47.3538 35.1987 47.8127 35.1941C48.1084 35.1934 48.4041 35.193 48.6998 35.1927C48.835 35.191 48.9702 35.1893 49.1095 35.1875C51.111 35.1988 52.8504 36.0063 54.2644 37.4029C55.7224 38.9326 56.1924 40.9491 56.4591 42.9805C56.4826 43.1508 56.5062 43.3211 56.53 43.4914C56.5788 43.8442 56.6265 44.1971 56.6733 44.5502C56.733 45.0009 56.7953 45.4511 56.8585 45.9013C56.9074 46.2512 56.9551 46.6013 57.0024 46.9514C57.0249 47.1176 57.0478 47.2837 57.071 47.4497C57.1032 47.6814 57.1336 47.9133 57.164 48.1452C57.1905 48.3421 57.1905 48.3421 57.2175 48.543C57.2547 49.1798 57.2459 49.6232 56.82 50.113C56.721 50.1972 56.622 50.2813 56.52 50.368C56.4804 50.4076 56.4408 50.4472 56.4 50.488C56.1193 50.5008 55.8421 50.5058 55.5613 50.5057C55.4725 50.5061 55.3837 50.5066 55.2923 50.507C54.9925 50.5084 54.6927 50.5088 54.393 50.5093C54.1789 50.51 53.9649 50.5108 53.7509 50.5117C53.1677 50.5138 52.5846 50.515 52.0014 50.516C51.6373 50.5166 51.2731 50.5174 50.909 50.5181C49.7703 50.5204 48.6316 50.5221 47.4929 50.5231C46.1774 50.5243 44.8619 50.5274 43.5464 50.5323C42.5304 50.5359 41.5145 50.5377 40.4985 50.5381C39.8914 50.5384 39.2843 50.5394 38.6771 50.5425C38.1058 50.5452 37.5344 50.5458 36.963 50.5445C36.7534 50.5445 36.5437 50.5452 36.3341 50.5469C36.0476 50.549 35.7613 50.5481 35.4749 50.5466C35.3921 50.5479 35.3093 50.5492 35.224 50.5506C34.6307 50.5427 34.2983 50.376 33.84 50.008C33.508 49.6149 33.3715 49.3802 33.3075 48.868C33.3851 48.2472 33.5432 47.8808 34.02 47.4688C34.5756 47.1768 35.0089 47.1939 35.625 47.218C35.7305 47.2202 35.836 47.2224 35.9447 47.2246C36.2032 47.2302 36.4616 47.2388 36.72 47.248C36.7318 47.1166 36.7435 46.9851 36.7556 46.8496C36.8751 45.5621 37.0224 44.2783 37.185 42.9955C37.2029 42.8465 37.2208 42.6974 37.2393 42.5438C37.5374 40.253 38.3074 38.1973 40.1292 36.6885C41.6791 35.5464 43.198 35.2114 45.0923 35.2077Z" fill="white"/>
<path id="Vector_2" d="M0.840019 28.5281C12.6408 28.5281 24.4416 28.5281 36.6 28.5281C36.6 29.0825 36.6 29.6369 36.6 30.2081C36.2436 30.2081 35.8872 30.2081 35.52 30.2081C35.52 32.1881 35.52 34.1681 35.52 36.2081C35.0448 36.2081 34.5696 36.2081 34.08 36.2081C33.96 36.0881 33.96 36.0881 33.84 35.1281C18.8118 35.0687 18.8118 35.0687 3.48002 35.0081C3.48002 35.4041 3.48002 35.8001 3.48002 36.2081C2.92562 36.2081 2.37122 36.2081 1.80002 36.2081C1.80002 34.5053 1.80002 32.8025 1.80002 31.0481C1.52282 31.0481 1.24562 31.0481 0.960019 31.0481C0.577538 30.6656 0.705646 29.6601 0.704081 29.1562C0.720019 28.8881 0.720019 28.8881 0.840019 28.5281Z" fill="white"/>
<path id="Vector_3" d="M55.2155 51.2057C55.4266 51.2054 55.4266 51.2054 55.6419 51.2051C56.3352 51.2102 57.0274 51.2382 57.72 51.268C57.8602 51.2738 58.0003 51.2795 58.1447 51.2854C58.4832 51.2992 58.8216 51.3135 59.16 51.328C59.3013 51.8656 59.4171 52.4938 59.16 53.008C58.8432 53.008 58.5264 53.008 58.2 53.008C58.2 54.988 58.2 56.968 58.2 59.008C57.6456 59.008 57.0912 59.008 56.52 59.008C56.52 58.612 56.52 58.216 56.52 57.808C46.4616 57.8476 36.4032 57.8872 26.04 57.928C26.04 58.2448 26.04 58.5616 26.04 58.888C26.0004 58.9276 25.9608 58.9672 25.92 59.008C25.4448 59.008 24.9696 59.008 24.48 59.008C24.48 57.028 24.48 55.048 24.48 53.008C24.1236 53.008 23.7672 53.008 23.4 53.008C23.4 52.4536 23.4 51.8992 23.4 51.328C27.2809 51.3127 31.1618 51.2974 35.0426 51.2822C35.5016 51.2804 35.9606 51.2786 36.4196 51.2768C36.5109 51.2764 36.6023 51.276 36.6964 51.2757C38.1726 51.2699 39.6488 51.264 41.125 51.2582C42.6415 51.2522 44.1581 51.2463 45.6747 51.2403C46.6092 51.2367 47.5438 51.233 48.4783 51.2293C49.1969 51.2264 49.9156 51.2236 50.6342 51.2208C50.9275 51.2196 51.2209 51.2185 51.5142 51.2173C54.0575 51.2071 54.0575 51.2071 55.2155 51.2057Z" fill="white"/>
<path id="Vector_4" d="M8.87997 12.0879C9.10638 12.236 9.10638 12.236 9.32247 12.4179C10.5743 13.39 12.2015 13.9557 13.8 13.7679C15.1205 13.5768 16.3923 13.2168 17.3775 12.2754C17.6705 12.0104 17.7285 11.971 18.1425 11.9304C19.9137 12.3871 21.3799 13.9601 22.32 15.4479C22.92 16.6423 22.92 16.6423 22.92 17.2479C22.1676 17.2875 21.4152 17.3271 20.64 17.3679C20.3909 18.0322 20.1856 18.6504 20.0297 19.3348C20.0078 19.4283 19.9859 19.5218 19.9634 19.6181C19.9171 19.8162 19.8711 20.0144 19.8254 20.2127C19.7307 20.623 19.6346 21.0331 19.5386 21.4432C19.4912 21.6454 19.4439 21.8476 19.3967 22.0498C19.2165 22.8205 19.0317 23.59 18.84 24.3579C18.8049 24.5 18.8049 24.5 18.769 24.6449C18.615 25.2579 18.615 25.2579 18.48 25.5279C18.1795 25.5776 18.1795 25.5776 17.8125 25.6029C17.691 25.6119 17.5696 25.6209 17.4445 25.6301C17.3506 25.636 17.2567 25.6419 17.16 25.6479C17.1527 25.7938 17.1454 25.9397 17.1379 26.09C17.1278 26.2801 17.1177 26.4703 17.1075 26.6604C17.1028 26.7567 17.098 26.853 17.0932 26.9522C17.0536 27.6743 17.0536 27.6743 16.92 27.8079C16.7473 27.8202 16.5741 27.8241 16.401 27.8248C16.2889 27.8255 16.1769 27.8261 16.0615 27.8268C15.8756 27.8271 15.8756 27.8271 15.6859 27.8273C15.5562 27.8279 15.4264 27.8284 15.2927 27.8291C14.8611 27.8308 14.4294 27.8316 13.9978 27.8323C13.6986 27.833 13.3995 27.8337 13.1004 27.8344C12.5523 27.8355 12.0043 27.8362 11.4562 27.8366C10.7305 27.8371 10.0047 27.8385 9.27894 27.8417C8.50073 27.845 7.72254 27.8465 6.94432 27.8467C6.6476 27.8471 6.35087 27.8481 6.05415 27.8496C5.63848 27.8517 5.22286 27.8515 4.80718 27.8507C4.68471 27.8518 4.56225 27.8529 4.43607 27.854C3.64501 27.8494 3.00563 27.8008 2.40963 27.2256C1.94087 26.2939 2.344 24.8142 2.4731 23.8231C2.49352 23.6626 2.51389 23.5022 2.53422 23.3418C2.57679 23.0076 2.62004 22.6735 2.66376 22.3395C2.71899 21.9169 2.77229 21.4942 2.82504 21.0713C2.86659 20.7404 2.90931 20.4096 2.95234 20.0789C2.982 19.8491 3.01063 19.6192 3.03922 19.3893C3.35755 16.997 4.05024 15.2427 5.75997 13.5279C5.8302 13.4549 5.90043 13.3819 5.97279 13.3067C6.40971 12.8897 6.92253 12.6136 7.45497 12.3354C7.56271 12.2779 7.56271 12.2779 7.67262 12.2193C8.12245 11.996 8.40391 11.9093 8.87997 12.0879ZM11.52 15.3279C11.7576 15.9615 11.9952 16.5951 12.24 17.2479C12.8736 17.2479 13.5072 17.2479 14.16 17.2479C14.259 16.9757 14.358 16.7034 14.46 16.4229C14.4913 16.3374 14.5226 16.2519 14.5549 16.1638C14.7086 15.7562 14.7086 15.7562 14.76 15.3279C13.6908 15.3279 12.6216 15.3279 11.52 15.3279ZM12.12 18.3279C12.0342 19.2249 11.9488 20.1218 11.8636 21.0188C11.8346 21.324 11.8055 21.6292 11.7763 21.9344C11.7344 22.3729 11.6928 22.8113 11.6512 23.2498C11.6381 23.3864 11.625 23.5231 11.6115 23.6639C11.5994 23.7912 11.5874 23.9184 11.5751 24.0496C11.5644 24.1615 11.5537 24.2734 11.5428 24.3887C11.523 24.6478 11.52 24.9081 11.52 25.1679C11.7134 25.3855 11.906 25.5722 12.12 25.7679C12.2931 25.9398 12.4656 26.1123 12.6375 26.2854C12.7212 26.3691 12.8048 26.4528 12.8911 26.539C12.9534 26.6014 13.0157 26.6637 13.08 26.7279C13.8678 26.3761 14.557 25.8655 14.88 25.0479C15.0263 23.9058 14.8088 22.7312 14.6625 21.5979C14.6261 21.2809 14.592 20.9636 14.5577 20.6464C14.4727 19.8725 14.3788 19.1002 14.28 18.3279C13.5672 18.3279 12.8544 18.3279 12.12 18.3279Z" fill="white"/>
<path id="Vector_5" d="M21.12 18.0879C25.5552 18.0879 29.9904 18.0879 34.56 18.0879C34.56 18.7521 34.5243 19.1712 34.3636 19.7924C34.3428 19.8743 34.3219 19.9562 34.3004 20.0405C34.2318 20.3083 34.1618 20.5758 34.0917 20.8432C34.0435 21.03 33.9954 21.2169 33.9473 21.4037C33.8468 21.7938 33.7455 22.1837 33.6438 22.5735C33.5131 23.0741 33.3837 23.5749 33.2548 24.0759C33.1556 24.461 33.0559 24.846 32.9561 25.2309C32.9082 25.4156 32.8604 25.6004 32.8127 25.7852C32.7462 26.0424 32.6792 26.2995 32.6119 26.5565C32.5738 26.7029 32.5357 26.8494 32.4965 27.0002C32.4 27.3279 32.4 27.3279 32.28 27.4479C32.092 27.4597 31.9035 27.463 31.7152 27.4631C31.5319 27.4636 31.5319 27.4636 31.345 27.4642C31.1422 27.4638 31.1422 27.4638 30.9354 27.4634C30.794 27.4636 30.6525 27.4638 30.5068 27.4641C30.1178 27.4645 29.7288 27.4644 29.3398 27.464C28.9335 27.4637 28.5273 27.464 28.121 27.4642C27.4387 27.4644 26.7563 27.4641 26.0739 27.4635C25.284 27.4629 24.494 27.4631 23.7041 27.4638C23.027 27.4643 22.3499 27.4644 21.6728 27.4641C21.2679 27.4639 20.863 27.4639 20.4581 27.4642C20.0069 27.4645 19.5558 27.4641 19.1046 27.4634C18.9695 27.4637 18.8343 27.4639 18.6951 27.4642C18.5729 27.4638 18.4507 27.4635 18.3249 27.4631C18.2181 27.4631 18.1113 27.463 18.0012 27.463C17.76 27.4479 17.76 27.4479 17.64 27.3279C17.6231 27.0074 17.6349 26.689 17.64 26.3679C18.234 26.3085 18.234 26.3085 18.84 26.2479C19.3434 24.726 19.7366 23.1849 20.115 21.6279C20.2284 21.1615 20.3426 20.6953 20.4572 20.2291C20.4949 20.0724 20.4949 20.0724 20.5334 19.9124C20.5578 19.813 20.5823 19.7135 20.6075 19.6111C20.6283 19.5252 20.6492 19.4393 20.6707 19.3509C20.7971 18.9223 20.9631 18.5063 21.12 18.0879Z" fill="white"/>
<path id="Vector_6" d="M17.04 2.84805C17.1238 2.9141 17.2077 2.98015 17.294 3.0482C18.2292 3.87242 19.0069 5.29781 19.0959 6.55319C19.1808 8.26987 18.944 9.61169 17.88 11.008C17.7909 11.1318 17.7018 11.2555 17.61 11.383C16.5081 12.535 15.0797 13.2657 13.4869 13.3284C11.7157 13.3611 10.2099 12.7836 8.90248 11.5705C7.61202 10.1934 7.24708 8.62712 7.2792 6.80195C7.33989 5.49123 7.87574 4.40443 8.75998 3.44805C8.83144 3.36436 8.90291 3.28068 8.97654 3.19445C9.87544 2.20418 11.2201 1.55739 12.5536 1.42024C14.2667 1.34734 15.7112 1.76026 17.04 2.84805Z" fill="white"/>
<path id="Vector_7" d="M24.72 40.168C28.7592 40.168 32.7984 40.168 36.96 40.168C37.1102 40.6186 37.0235 40.9519 36.9375 41.4055C36.7166 42.6335 36.5591 43.8691 36.403 45.1066C36.3836 45.2578 36.3641 45.4089 36.344 45.5647C36.3269 45.7011 36.3097 45.8376 36.292 45.9782C36.24 46.288 36.24 46.288 36.12 46.408C35.7269 46.4538 35.3343 46.4944 34.9399 46.5263C34.1992 46.6036 33.7292 46.8649 33.21 47.413C32.7956 48.0345 32.6571 48.6716 32.76 49.408C32.8745 49.6507 32.9934 49.8914 33.12 50.128C33.0606 50.3062 33.0606 50.3062 33 50.488C31.0596 50.488 29.1192 50.488 27.12 50.488C26.7149 49.2727 26.7149 49.2727 26.5725 48.7138C26.5405 48.5887 26.5084 48.4636 26.4754 48.3347C26.442 48.2027 26.4086 48.0707 26.3742 47.9347C26.3386 47.7948 26.3029 47.655 26.2662 47.5109C26.1911 47.2158 26.1162 46.9206 26.0414 46.6253C25.9287 46.1805 25.8153 45.7358 25.7018 45.2912C25.3847 44.0457 25.0692 42.7996 24.7795 41.5475C24.7589 41.4614 24.7382 41.3754 24.7169 41.2867C24.6171 40.843 24.6064 40.6222 24.72 40.168Z" fill="white"/>
<path id="Vector_8" d="M50.4075 26.2029C51.5813 27.1748 52.3683 28.5711 52.56 30.0879C52.6721 31.6164 52.3848 32.9672 51.6 34.2879C51.5567 34.3807 51.5134 34.4736 51.4688 34.5692C51.3933 34.6348 51.3178 34.7004 51.24 34.7679C50.9869 34.7427 50.7339 34.7161 50.4818 34.683C49.894 34.619 49.3046 34.6284 48.7139 34.6278C48.5777 34.6274 48.4415 34.627 48.3011 34.6266C48.0142 34.626 47.7273 34.6257 47.4403 34.6257C47.0051 34.6254 46.5699 34.6233 46.1346 34.621C45.8544 34.6206 45.5741 34.6204 45.2939 34.6203C45.1656 34.6194 45.0373 34.6186 44.9051 34.6177C44.131 34.62 43.4243 34.6999 42.6694 34.876C42.36 34.8879 42.36 34.8879 42.091 34.7083C41.8613 34.4629 41.6912 34.217 41.52 33.9279C41.4465 33.8047 41.4465 33.8047 41.3714 33.679C40.6361 32.3181 40.5152 30.4992 40.905 29.0065C41.2047 28.1734 41.6474 27.5008 42.24 26.8479C42.304 26.7729 42.3681 26.6979 42.4341 26.6206C44.4842 24.3694 48.0901 24.4762 50.4075 26.2029Z" fill="white"/>
<path id="Vector_9" d="M16.92 25.6479C16.9596 25.6479 16.9992 25.6479 17.04 25.6479C17.0432 25.9855 17.0456 26.3229 17.0475 26.6604C17.0485 26.7567 17.0495 26.853 17.0506 26.9522C17.0516 27.1975 17.0463 27.4428 17.04 27.6879C16.8509 27.8771 16.662 27.8235 16.3994 27.824C16.287 27.8245 16.1746 27.825 16.0588 27.8255C15.8724 27.8255 15.8724 27.8255 15.6822 27.8254C15.552 27.8258 15.4219 27.8262 15.2878 27.8266C14.855 27.8277 14.4222 27.828 13.9894 27.8281C13.6897 27.8285 13.3899 27.8289 13.0902 27.8293C12.4607 27.83 11.8312 27.8303 11.2017 27.8302C10.4745 27.8301 9.74725 27.8314 9.02001 27.8333C8.32054 27.835 7.62106 27.8355 6.92158 27.8354C6.62399 27.8355 6.3264 27.8361 6.02881 27.837C5.61252 27.8382 5.19626 27.8378 4.77997 27.8371C4.59497 27.8381 4.59497 27.8381 4.40624 27.8391C4.29251 27.8386 4.17877 27.8381 4.06158 27.8376C3.91398 27.8377 3.91398 27.8377 3.7634 27.8378C3.43638 27.8034 3.17888 27.7019 2.88 27.5679C3.16943 27.4232 3.34508 27.4349 3.66821 27.4381C3.84137 27.4393 3.84137 27.4393 4.01802 27.4406C4.2086 27.443 4.2086 27.443 4.40303 27.4453C4.60323 27.4471 4.60323 27.4471 4.80747 27.4488C5.2503 27.4528 5.69312 27.4576 6.13594 27.4625C6.44231 27.4654 6.74867 27.4683 7.05504 27.4711C7.78007 27.4778 8.5051 27.4852 9.23012 27.4928C10.0555 27.5014 10.8808 27.5093 11.7061 27.5171C13.4041 27.5333 15.1021 27.5503 16.8 27.5679C16.7986 27.4394 16.7972 27.3109 16.7958 27.1784C16.7947 27.0108 16.7936 26.8431 16.7925 26.6754C16.7915 26.5906 16.7905 26.5058 16.7895 26.4183C16.7884 26.2015 16.7937 25.9847 16.8 25.7679C16.8396 25.7283 16.8792 25.6887 16.92 25.6479Z" fill="white"/>
<path id="Vector_10" d="M24.72 40.168C28.7592 40.168 32.7984 40.168 36.96 40.168C37.0953 40.5739 37.0581 40.7401 36.9675 41.1505C36.9441 41.2586 36.9208 41.3667 36.8967 41.4781C36.878 41.5606 36.8593 41.643 36.84 41.728C36.8004 41.728 36.7608 41.728 36.72 41.728C36.705 40.813 36.705 40.813 36.84 40.408C32.8404 40.408 28.8408 40.408 24.72 40.408C24.6804 40.4872 24.6408 40.5664 24.6 40.648C24.6396 40.4896 24.6792 40.3312 24.72 40.168Z" fill="white"/>
<path id="Vector_11" d="M9.72002 2.48804C9.79922 2.52764 9.87842 2.56724 9.96002 2.60804C9.5132 3.13855 9.08459 3.63744 8.52002 4.04804C8.52002 3.68804 8.52002 3.68804 8.78252 3.39038C8.89389 3.28318 9.00527 3.17598 9.12002 3.06554C9.23139 2.95741 9.34277 2.84928 9.45752 2.73788C9.58746 2.61421 9.58746 2.61421 9.72002 2.48804Z" fill="white"/>
<path id="Vector_12" d="M43.08 26.0081C43.1592 26.0477 43.2384 26.0873 43.32 26.1281C42.4663 27.1638 42.4663 27.1638 41.88 27.4481C42.0573 27.0338 42.2926 26.7701 42.615 26.4581C42.7019 26.3733 42.7889 26.2885 42.8784 26.2012C42.945 26.1375 43.0115 26.0737 43.08 26.0081Z" fill="white"/>
</g>
</svg>
