<svg width="100" height="101" viewBox="0 0 100 101" fill="none" xmlns="http://www.w3.org/2000/svg">
<g id="custom__1_-removebg-preview 1" clip-path="url(#clip0_56_1935)">
<path id="Vector" d="M32.6417 12.3828C32.8366 12.3833 33.0316 12.3837 33.2325 12.3842C33.4527 12.3842 33.6729 12.3842 33.8998 12.3842C34.1394 12.3852 34.3789 12.3863 34.6258 12.3873C34.8697 12.3876 35.1135 12.3879 35.3648 12.3882C36.1474 12.3893 36.9299 12.3918 37.7125 12.3944C38.2415 12.3954 38.7706 12.3963 39.2996 12.3971C40.5997 12.3993 41.8999 12.4027 43.2 12.4069C43.2574 12.6509 43.3149 12.8948 43.3741 13.1462C43.5893 14.0596 43.8053 14.9728 44.0215 15.8859C44.1147 16.2796 44.2076 16.6733 44.3002 17.0671C44.4342 17.6362 44.569 18.2052 44.7039 18.7741C44.7446 18.9475 44.7852 19.1209 44.8271 19.2996C44.947 19.8032 45.0719 20.3052 45.2 20.8069C45.2458 20.9899 45.2916 21.1729 45.3388 21.3614C45.3872 21.5405 45.4355 21.7196 45.4854 21.9041C45.5495 22.1467 45.5495 22.1467 45.6149 22.3942C45.8996 23.0289 46.3298 23.2062 46.9568 23.4509C47.1031 23.5024 47.2493 23.5538 47.4 23.6069C47.6867 23.7356 47.9727 23.8661 48.2578 23.9983C48.5466 24.1226 48.8357 24.2463 49.125 24.3694C49.2699 24.4342 49.4148 24.499 49.5641 24.5658C50.4554 24.9429 51.0479 25.1308 52 24.8069C52.5907 24.4959 53.1435 24.1374 53.7 23.7694C54.0346 23.5529 54.3693 23.3365 54.7039 23.1201C54.9683 22.9477 54.9683 22.9477 55.238 22.7718C56.2329 22.1258 57.2359 21.4924 58.2375 20.8569C58.6154 20.6163 58.9933 20.3757 59.3711 20.135C59.5312 20.033 59.6914 19.9309 59.8564 19.8258C59.9698 19.7536 60.0832 19.6813 60.2 19.6069C61.2459 20.4809 62.2206 21.4007 63.1805 22.3678C63.325 22.5126 63.4695 22.6574 63.6184 22.8066C64.0752 23.2645 64.5314 23.7232 64.9875 24.1819C65.299 24.4944 65.6106 24.8069 65.9223 25.1194C66.682 25.8813 67.4412 26.6439 68.2 27.4069C67.3637 28.9873 66.4566 30.5091 65.5 32.0194C65.1195 32.6225 64.7394 33.2258 64.3615 33.8305C64.1218 34.2128 63.8792 34.5932 63.6338 34.9719C63.5226 35.1474 63.4114 35.3229 63.2969 35.5037C63.1973 35.6581 63.0977 35.8125 62.9951 35.9715C62.7649 36.4851 62.7886 36.713 62.95 37.2444C63.0956 37.5672 63.2464 37.8878 63.4 38.2069C63.549 38.5887 63.698 38.9705 63.8447 39.3532C64.3897 40.8513 64.3897 40.8513 65.2 42.2069C65.8399 42.4695 65.8399 42.4695 66.5938 42.6037C66.7968 42.6475 66.7968 42.6475 67.0039 42.6922C67.4352 42.7843 67.8674 42.8707 68.3 42.9569C68.591 43.0177 68.8819 43.0789 69.1727 43.1405C69.7054 43.2533 70.2385 43.3633 70.7723 43.4715C71.4 43.6069 71.4 43.6069 72 43.8069C71.8826 44.5993 71.6387 45.1619 71.2313 45.8491C71.1148 46.0469 70.9984 46.2448 70.8785 46.4486C70.7536 46.6576 70.6287 46.8666 70.5 47.0819C70.372 47.2987 70.244 47.5155 70.1121 47.7389C69.3804 48.9763 68.6382 50.207 67.8927 51.4361C67.0612 52.8192 66.2859 54.2342 65.5008 55.6439C64.2323 57.9169 62.9177 60.1621 61.6 62.4069C61.0995 63.2607 60.5996 64.115 60.1 64.9694C59.9873 65.1613 59.8747 65.3533 59.7586 65.5511C59.5425 65.9205 59.3281 66.291 59.1154 66.6625C58.9038 67.0277 58.6857 67.3893 58.4616 67.747C57.6231 69.141 57.3991 70.3055 57.3375 71.9194C57.3246 72.1444 57.3118 72.3694 57.2985 72.6013C57.2611 73.2697 57.2305 73.9381 57.2 74.6069C57.1786 74.9863 57.1565 75.3658 57.1336 75.7451C57.0844 76.5655 57.0403 77.386 57 78.2069C56.1851 78.2069 56.0202 78.1565 55.3695 77.7467C55.2142 77.6502 55.0589 77.5536 54.8988 77.4541C54.7383 77.3519 54.5779 77.2497 54.4125 77.1444C54.1729 76.9945 54.1729 76.9945 53.9285 76.8416C53.7729 76.7443 53.6173 76.647 53.457 76.5467C53.3068 76.4532 53.1565 76.3597 53.0017 76.2634C52.6851 76.0612 52.3777 75.8447 52.0742 75.6233C51.2384 75.2419 50.5462 75.4893 49.7043 75.7751C49.1466 75.9851 48.5987 76.2119 48.05 76.4444C47.861 76.5193 47.672 76.5942 47.4773 76.6713C47.2961 76.7478 47.1149 76.8242 46.9281 76.903C46.7642 76.9708 46.6003 77.0387 46.4314 77.1086C45.3205 77.8766 45.1826 79.3892 44.918 80.628C44.8541 80.9163 44.8541 80.9163 44.7889 81.2104C44.6536 81.8214 44.5203 82.4328 44.3875 83.0444C44.2538 83.658 44.1197 84.2716 43.984 84.8848C43.8997 85.2656 43.8166 85.6466 43.7349 86.028C43.6968 86.2002 43.6587 86.3725 43.6195 86.55C43.5702 86.7771 43.5702 86.777 43.52 87.0087C43.4 87.4069 43.4 87.4069 43 88.0069C42.5419 88.079 42.5419 88.079 41.9632 88.075C41.6389 88.0749 41.6389 88.0749 41.3081 88.0748C41.0739 88.0717 40.8397 88.0687 40.5984 88.0655C40.3593 88.0646 40.1201 88.0638 39.8737 88.0629C39.1074 88.0595 38.3413 88.052 37.575 88.0444C37.0565 88.0414 36.538 88.0386 36.0195 88.0362C34.7463 88.0295 33.4732 88.0195 32.2 88.0069C31.7681 86.7876 31.433 85.5733 31.1617 84.3092C31.1236 84.1361 31.0854 83.963 31.0461 83.7846C30.8847 83.0521 30.7255 82.3192 30.5663 81.5863C30.4489 81.0479 30.3304 80.5098 30.2117 79.9717C30.1763 79.8065 30.1409 79.6413 30.1044 79.4711C30.0703 79.3168 30.0362 79.1625 30.0011 79.0035C29.9718 78.8686 29.9426 78.7337 29.9124 78.5947C29.723 77.9413 29.5688 77.5068 28.9729 77.154C28.7129 77.0491 28.7129 77.0491 28.4477 76.942C28.2567 76.8643 28.0658 76.7866 27.8691 76.7065C27.6689 76.6282 27.4688 76.55 27.2625 76.4694C26.968 76.3485 26.968 76.3485 26.6676 76.2252C25.1759 75.5867 25.1759 75.5867 23.6 75.4069C22.7912 75.7818 22.0653 76.2626 21.325 76.7569C21.1142 76.8932 20.9034 77.0294 20.6862 77.1698C20.0551 77.5787 19.4274 77.9924 18.8 78.4069C18.2935 78.7373 17.7864 79.0666 17.2788 79.3953C16.9912 79.5821 16.7042 79.7699 16.4181 79.959C15.8817 80.3113 15.4119 80.6029 14.8 80.8069C13.7098 79.747 12.6243 78.6826 11.5419 77.6147C11.173 77.2519 10.803 76.8901 10.432 76.5294C9.89948 76.0114 9.37091 75.4897 8.84297 74.967C8.6757 74.8059 8.50842 74.6449 8.33608 74.4789C8.18391 74.3268 8.03174 74.1747 7.87495 74.018C7.73949 73.8853 7.60404 73.7525 7.46447 73.6156C7.2 73.2069 7.2 73.2069 7.24117 72.6876C7.42846 72.1207 7.68433 71.6753 8.00547 71.1717C8.13012 70.9746 8.25477 70.7775 8.3832 70.5744C8.51662 70.3665 8.65004 70.1586 8.7875 69.9444C8.92221 69.7307 9.05691 69.5169 9.1957 69.2968C9.8036 68.3336 10.4176 67.3756 11.0508 66.4287C11.1448 66.2857 11.2388 66.1427 11.3356 65.9954C11.5066 65.7361 11.6807 65.4788 11.8585 65.2242C12.2545 64.62 12.4004 64.2481 12.393 63.5201C12.172 62.7033 11.8718 61.9708 11.5125 61.2069C11.0527 60.2171 10.6741 59.2648 10.4 58.2069C10.1976 58.1654 9.99523 58.1238 9.78672 58.0811C7.75718 57.661 5.73287 57.2186 3.71075 56.7644C3.42844 56.701 3.1461 56.6378 2.86371 56.5748C2.46292 56.4852 2.0623 56.395 1.66172 56.3045C1.42825 56.252 1.19479 56.1995 0.954248 56.1454C0.4 56.0069 0.4 56.0069 0 55.8069C0 52.1109 0 48.4149 0 44.6069C3.40362 43.6992 3.40362 43.6992 4.80313 43.4069C5.10967 43.3403 5.41618 43.2737 5.72266 43.2069C6.19108 43.1053 6.65963 43.0049 7.12881 42.9069C7.59176 42.8097 8.05369 42.7087 8.51563 42.6069C8.65623 42.5785 8.79684 42.5501 8.94171 42.5209C9.54701 42.3845 9.93463 42.2737 10.374 41.8247C10.7021 41.218 10.9552 40.5877 11.2 39.9444C11.2998 39.6867 11.3998 39.4292 11.5 39.1717C11.5485 39.0444 11.5969 38.9172 11.6469 38.7861C11.7487 38.534 11.8592 38.2853 11.9781 38.0409C12.3901 37.1896 12.505 36.7064 12.2 35.8069C11.8114 35.0989 11.3713 34.4296 10.925 33.7569C10.6709 33.3648 10.417 32.9726 10.1633 32.5803C10.0357 32.3843 9.90811 32.1883 9.77666 31.9864C9.21509 31.1224 8.65977 30.255 8.1125 29.3819C7.96908 29.1602 7.96908 29.1602 7.82275 28.934C7.19048 27.9198 7.19048 27.9198 7.23342 27.4106C7.4425 26.9039 7.71238 26.6224 8.102 26.2367C8.25014 26.0887 8.39828 25.9406 8.55091 25.788C8.79216 25.5514 8.79216 25.5514 9.03828 25.31C9.20225 25.1469 9.36622 24.9838 9.53515 24.8157C10.0595 24.2947 10.586 23.7757 11.1125 23.2569C11.4682 22.9041 11.8238 22.5513 12.1793 22.1983C13.0513 21.3329 13.925 20.4692 14.8 19.6069C16.494 20.4369 16.494 20.4369 17.1664 20.8819C17.2952 20.9664 17.424 21.0509 17.5567 21.1379C17.6906 21.2267 17.8245 21.3154 17.9625 21.4069C18.2591 21.5996 18.5557 21.7923 18.8523 21.985C19.5108 22.415 20.1642 22.8519 20.8164 23.2912C21.1525 23.5132 21.4887 23.7351 21.825 23.9569C21.9812 24.0644 22.1374 24.1719 22.2983 24.2826C23.0148 24.7507 23.4331 25.0048 24.3031 25.0155C25.1367 24.7659 25.9273 24.4654 26.725 24.1194C27.0193 23.9946 27.3135 23.8699 27.6078 23.7451C27.745 23.6843 27.8823 23.6235 28.0236 23.5609C28.4 23.4069 28.4 23.4069 28.9672 23.2748C29.8792 22.7102 30.0083 21.2112 30.2485 20.2162C30.3296 19.8633 30.4097 19.5102 30.4891 19.1569C30.5321 18.969 30.5752 18.7811 30.6196 18.5876C30.7556 17.9942 30.8904 17.4006 31.025 16.8069C31.1611 16.2075 31.2974 15.6081 31.4347 15.009C31.5198 14.6377 31.6042 14.2662 31.6878 13.8946C31.7259 13.7282 31.764 13.5619 31.8032 13.3905C31.8365 13.2436 31.8698 13.0966 31.9041 12.9453C32.0482 12.4368 32.1033 12.4121 32.6417 12.3828ZM21.4 36.4069C17.8015 40.77 16.0009 46.1413 16.4 51.8069C16.9674 57.7058 19.5878 62.6581 24 66.6069C24.6418 67.1191 25.3049 67.5703 26 68.0069C26.1733 68.1213 26.3465 68.2358 26.525 68.3537C31.2461 71.3175 36.9639 72.1337 42.3777 70.9742C45.8432 70.1572 48.8991 68.5104 51.6 66.2069C51.9032 65.9779 51.9032 65.9779 52.2125 65.7444C53.1158 64.9179 53.8505 63.9724 54.6 63.0069C54.7199 62.8571 54.8398 62.7073 54.9633 62.553C58.368 58.0423 59.3648 52.3672 58.7008 46.8428C58.1172 42.882 56.2533 39.1765 53.6 36.2069C53.5072 36.0857 53.4144 35.9645 53.3188 35.8397C50.3446 31.9769 45.0113 29.7735 40.345 29.0719C33.125 28.2103 26.2176 31.0039 21.4 36.4069Z" fill="#F78319"/>
<path id="Vector_2" d="M83.4 29.6074C84.1302 29.8813 84.7866 30.2107 85.4594 30.6043C85.6653 30.7241 85.8712 30.8439 86.0834 30.9673C86.4134 31.1604 86.4134 31.1604 86.75 31.3574C87.2168 31.6288 87.6837 31.9 88.1508 32.1707C88.3296 32.2744 88.3296 32.2744 88.512 32.3802C90.3622 33.451 92.2323 34.4865 94.0995 35.5272C94.7354 35.8832 95.3682 36.2442 96 36.6074C95.8851 37.3326 95.6945 37.8709 95.3258 38.5043C95.2284 38.6731 95.1311 38.8419 95.0308 39.0158C94.9258 39.1945 94.8207 39.3733 94.7125 39.5574C94.6044 39.744 94.4963 39.9306 94.3849 40.1229C93.6397 41.4065 92.8846 42.6843 92.1284 43.9615C91.552 44.9386 90.997 45.9261 90.45 46.9199C89.4443 48.7455 88.3929 50.5432 87.3399 52.3418C86.597 53.611 85.8599 54.8835 85.125 56.1574C85.0014 56.3717 84.8777 56.586 84.7504 56.8068C84.0945 57.9451 83.441 59.0847 82.7906 60.2262C82.7233 60.3443 82.656 60.4624 82.5867 60.584C82.5194 60.7022 82.4521 60.8203 82.3827 60.942C82.2468 61.1805 82.1109 61.4189 81.975 61.6574C81.9077 61.7755 81.8405 61.8936 81.7711 62.0152C80.8938 63.5538 80.0052 65.085 79.1 66.6074C78.0875 68.3105 77.0956 70.0247 76.1125 71.7449C76.0454 71.8622 75.9783 71.9794 75.9092 72.1002C75.0553 73.5933 74.2173 75.094 73.4 76.6074C72.6214 76.5041 72.0239 76.3669 71.3469 75.9684C71.1879 75.8761 71.029 75.7839 70.8652 75.6888C70.6952 75.5877 70.5252 75.4866 70.35 75.3824C69.9763 75.1644 69.6026 74.9465 69.2289 74.7285C69.0308 74.6121 68.8327 74.4956 68.6286 74.3757C67.7434 73.8571 66.8539 73.346 65.9647 72.8345C64.106 71.7652 62.2513 70.6894 60.4 69.6074C60.6297 69.0145 60.8695 68.447 61.1781 67.891C61.2898 67.6896 61.2898 67.6896 61.4036 67.4841C61.4849 67.3392 61.5663 67.1942 61.65 67.0449C61.7373 66.8887 61.8245 66.7324 61.9144 66.5714C62.7519 65.079 63.6154 63.602 64.4807 62.1255C65.3979 60.5589 66.3015 58.9848 67.2 57.4074C68.8773 54.4644 70.5837 51.5388 72.2985 48.6176C73.486 46.5918 74.6574 44.5589 75.8 42.5074C78.2291 38.1461 80.773 33.8522 83.4 29.6074Z" fill="#F78319"/>
<path id="Vector_3" d="M33.8 37.4075C34.3908 38.0188 34.474 38.4528 34.4681 39.2897C34.468 39.6139 34.468 39.6139 34.468 39.9447C34.4649 40.1769 34.4618 40.409 34.4586 40.6481C34.4577 40.8867 34.4569 41.1253 34.456 41.3711C34.4527 42.1333 34.4451 42.8953 34.4375 43.6575C34.4345 44.1741 34.4318 44.6908 34.4293 45.2075C34.4232 46.4742 34.4114 47.7407 34.4 49.0075C36.512 49.0075 38.624 49.0075 40.8 49.0075C40.7896 47.8988 40.7896 47.8988 40.7789 46.7676C40.7742 46.0514 40.7706 45.3352 40.767 44.619C40.764 44.1214 40.7599 43.6239 40.7547 43.1263C40.7475 42.4109 40.7441 41.6956 40.7414 40.9801C40.7383 40.7578 40.7352 40.5355 40.732 40.3064C40.732 40.0983 40.7319 39.8901 40.7319 39.6757C40.7299 39.4019 40.7299 39.4019 40.7278 39.1226C40.8164 38.4903 41.0262 38.1215 41.4 37.6075C42 37.2075 42 37.2075 42.6586 37.2387C45.075 37.7887 47.5192 39.9501 48.9125 41.9372C51.1343 45.5717 51.9156 49.2748 50.9945 53.4731C50.268 56.2157 48.8403 58.8166 46.6 60.6075C46.3883 60.6967 46.1767 60.7859 45.9586 60.8778C44.9019 61.3417 44.9019 61.3417 44.2 62.2075C43.8284 64.0372 43.9251 65.9509 44 67.8075C43.5252 67.9374 43.0502 68.0664 42.575 68.195C42.442 68.2315 42.3089 68.2679 42.1719 68.3055C38.6066 69.2667 34.5831 69.1363 31.2 67.6075C31.2055 67.4523 31.2109 67.2971 31.2166 67.1372C31.4839 64.1752 31.4839 64.1752 30.5461 61.5348C29.9789 61.1476 29.4328 60.8714 28.8 60.6075C26.3256 58.9097 24.7308 55.8037 24.0945 52.9309C23.517 48.5114 24.2879 44.6439 27.0375 41.0575C28.4838 39.3701 31.3729 36.5654 33.8 37.4075Z" fill="#F78319"/>
<path id="Vector_4" d="M94.075 23.1322C94.287 23.2531 94.4989 23.374 94.7172 23.4986C95.3489 23.8617 95.9753 24.2323 96.6 24.6072C96.8046 24.7291 97.0091 24.851 97.2198 24.9765C97.4138 25.0955 97.6079 25.2144 97.8079 25.3369C98.066 25.4944 98.066 25.4944 98.3294 25.6552C99.2281 26.3274 99.8693 27.1893 100.102 28.2908C100.232 30.3275 99.2584 32.4015 97.9167 33.93C97.6848 34.1629 97.4434 34.3863 97.2 34.6072C94.3808 33.039 91.5684 31.4638 88.8 29.8072C88.6246 29.7023 88.4492 29.5973 88.2684 29.4892C87.1114 28.7968 85.9553 28.1027 84.8 27.4072C85.3591 25.4904 86.6054 23.022 88.4 22.0072C90.5657 21.0848 92.2083 22.0343 94.075 23.1322Z" fill="#F78319"/>
<path id="Vector_5" d="M59.8 72.207C60.4681 72.4618 61.086 72.7487 61.7071 73.1023C61.9708 73.2519 61.9708 73.2519 62.2398 73.4045C62.4288 73.5126 62.6178 73.6207 62.8125 73.732C63.0097 73.8441 63.2068 73.9562 63.4099 74.0716C63.9547 74.3816 64.4991 74.6922 65.0433 75.0032C65.4165 75.2164 65.7898 75.4295 66.1631 75.6425C67.7761 76.5628 69.3884 77.4844 71 78.407C70.7332 79.2077 70.3714 79.343 69.6665 79.7984C69.5498 79.8744 69.4332 79.9504 69.313 80.0287C68.9305 80.2772 68.5466 80.5234 68.1625 80.7695C67.8988 80.9403 67.6351 81.1111 67.3715 81.2821C66.5826 81.7929 65.7917 82.3005 65 82.807C64.826 82.9184 64.826 82.9184 64.6485 83.0321C63.4401 83.8053 62.2297 84.5752 61.0158 85.3397C60.6433 85.5793 60.2806 85.8287 59.918 86.0828C59.4 86.407 59.4 86.407 58.8 86.407C58.9304 83.9402 59.0637 81.4735 59.2 79.007C59.2092 78.8412 59.2183 78.6754 59.2278 78.5046C59.2796 77.5673 59.3326 76.6301 59.3873 75.6929C59.4041 75.4023 59.4206 75.1117 59.4368 74.821C59.4593 74.4173 59.4832 74.0137 59.5071 73.6102C59.5202 73.3818 59.5334 73.1534 59.547 72.9182C59.6 72.407 59.6 72.407 59.8 72.207Z" fill="#F78319"/>
<path id="Vector_6" d="M14.8 19.6074C14.998 19.7394 15.196 19.8714 15.4 20.0074C15.2569 20.0855 15.1138 20.1637 14.9664 20.2441C14.341 20.6452 13.8608 21.0935 13.3375 21.6199C13.1608 21.7955 12.9842 21.9711 12.8023 22.152C12.3558 22.5561 12.3558 22.5561 12.4 23.0074C12.1554 23.2473 12.1554 23.2473 11.7875 23.5449C10.8937 24.3094 10.0426 25.1126 9.19995 25.9324C8.99497 26.126 8.99497 26.126 8.78584 26.3236C8.6585 26.4487 8.53115 26.5738 8.39995 26.7027C8.28445 26.8143 8.16895 26.9258 8.04995 27.0407C7.72537 27.5168 7.75357 27.8434 7.79995 28.4074C7.48745 28.1574 7.48745 28.1574 7.19995 27.8074C7.27386 27.0835 7.59619 26.7379 8.10195 26.2373C8.25009 26.0892 8.39823 25.9411 8.55086 25.7885C8.71169 25.6308 8.87252 25.4731 9.03823 25.3105C9.2022 25.1474 9.36617 24.9843 9.5351 24.8162C10.0595 24.2952 10.5859 23.7763 11.1125 23.2574C11.4682 22.9047 11.8238 22.5518 12.1792 22.1988C13.0513 21.3334 13.925 20.4698 14.8 19.6074Z" fill="#F78319"/>
<path id="Vector_7" d="M56.8 74.6074C56.866 74.6074 56.932 74.6074 57 74.6074C57 75.7954 57 76.9834 57 78.2074C56.736 78.2074 56.472 78.2074 56.2 78.2074C56.332 78.0754 56.464 77.9434 56.6 77.8074C56.6612 77.2606 56.7022 76.7309 56.725 76.1824C56.7327 76.0316 56.7404 75.8808 56.7484 75.7254C56.7673 75.3528 56.7838 74.9801 56.8 74.6074Z" fill="#F78319"/>
<path id="Vector_8" d="M88.2 22.4072C87.9902 22.9316 87.8701 23.166 87.375 23.4572C87.2512 23.5067 87.1275 23.5562 87 23.6072C87 23.8052 87 24.0032 87 24.2072C86.868 24.2072 86.736 24.2072 86.6 24.2072C86.862 23.4212 87.2499 22.4072 88.2 22.4072Z" fill="#F78319"/>
<path id="Vector_9" d="M53.6 24.0068C53.468 24.3368 53.336 24.6668 53.2 25.0068C52.804 25.0068 52.408 25.0068 52 25.0068C52.9545 24.0068 52.9545 24.0068 53.6 24.0068Z" fill="#F78319"/>
</g>
<defs>
<clipPath id="clip0_56_1935">
<rect width="100" height="100" fill="white" transform="translate(0 0.207031)"/>
</clipPath>
</defs>
</svg>
