<svg width="40" height="41" viewBox="0 0 40 41" fill="none" xmlns="http://www.w3.org/2000/svg">
<g id="ic:round-email">
<path id="Vector" d="M33.3333 7.08496H6.66665C4.83331 7.08496 3.34998 8.58496 3.34998 10.4183L3.33331 30.4183C3.33331 32.2516 4.83331 33.7516 6.66665 33.7516H33.3333C35.1666 33.7516 36.6666 32.2516 36.6666 30.4183V10.4183C36.6666 8.58496 35.1666 7.08496 33.3333 7.08496ZM32.6666 14.1683L20.8833 21.535C20.35 21.8683 19.65 21.8683 19.1166 21.535L7.33331 14.1683C7.16619 14.0745 7.01984 13.9477 6.90313 13.7957C6.78641 13.6437 6.70175 13.4696 6.65427 13.2839C6.60679 13.0982 6.59748 12.9049 6.62691 12.7155C6.65633 12.5261 6.72387 12.3447 6.82545 12.1821C6.92702 12.0196 7.06052 11.8794 7.21786 11.77C7.37519 11.6605 7.5531 11.5841 7.74081 11.5455C7.92851 11.5068 8.12212 11.5066 8.3099 11.5449C8.49769 11.5832 8.67575 11.6592 8.83331 11.7683L20 18.7516L31.1666 11.7683C31.3242 11.6592 31.5023 11.5832 31.6901 11.5449C31.8778 11.5066 32.0714 11.5068 32.2592 11.5455C32.4469 11.5841 32.6248 11.6605 32.7821 11.77C32.9394 11.8794 33.0729 12.0196 33.1745 12.1821C33.2761 12.3447 33.3436 12.5261 33.3731 12.7155C33.4025 12.9049 33.3932 13.0982 33.3457 13.2839C33.2982 13.4696 33.2136 13.6437 33.0968 13.7957C32.9801 13.9477 32.8338 14.0745 32.6666 14.1683Z" fill="#36454F"/>
</g>
</svg>
