<svg width="100" height="101" viewBox="0 0 100 101" fill="none" xmlns="http://www.w3.org/2000/svg">
<g id="engagement-removebg-preview 1">
<path id="Vector" d="M79.6 7.20664C79.8285 7.28141 80.0569 7.35617 80.2922 7.4332C82.6069 8.26341 84.7309 9.40645 86.6 11.0066C86.7599 11.1376 86.9197 11.2686 87.0844 11.4035C90.328 14.1636 92.3722 17.9077 93.4 22.0066C93.437 22.154 93.4739 22.3013 93.512 22.4531C93.83 23.8512 93.8696 25.2141 93.8625 26.6441C93.8614 26.8833 93.8603 27.1225 93.8591 27.369C93.7884 32.5267 91.8296 37.1379 88.325 40.9191C88.1518 41.08 87.9785 41.2409 87.8 41.4066C87.5951 41.6062 87.5951 41.6062 87.386 41.8098C83.1109 45.8511 77.8571 47.3597 72.1071 47.2684C67.1974 47.0973 62.8393 44.8167 59.2 41.6066C59.0755 41.4989 58.951 41.3911 58.8227 41.2801C55.3045 38.0161 53.1129 32.77 52.9328 28.0246C52.8952 25.4541 53.0233 23.0664 53.8 20.6066C53.8408 20.4775 53.8815 20.3483 53.9235 20.2152C55.0096 16.9234 56.9542 14.219 59.4 11.8066C59.5645 11.6401 59.729 11.4735 59.8985 11.302C64.9044 6.49295 73.1205 5.08378 79.6 7.20664ZM73.4 14.8066C72.4246 16.6274 71.4518 18.4484 70.575 20.3191C70.5161 20.4439 70.4572 20.5687 70.3965 20.6973C70.0942 21.3258 70.0942 21.3258 70 22.0066C69.8456 22.0163 69.6911 22.0259 69.5319 22.0359C67.8521 22.1516 66.201 22.3618 64.5375 22.6191C64.2917 22.6564 64.0459 22.6937 63.7926 22.732C63.195 22.8227 62.5974 22.9143 62 23.0066C62.459 23.5882 62.8877 24.1139 63.4625 24.5816C64.3282 25.3319 65.1706 26.1043 66 26.8941C66.1368 27.0182 66.2735 27.1424 66.4143 27.2702C66.5416 27.3934 66.6689 27.5165 66.8 27.6434C66.9155 27.7518 67.031 27.8601 67.15 27.9718C67.7353 28.9897 67.3667 30.4038 67.1813 31.5051C67.148 31.7067 67.148 31.7067 67.114 31.9124C67.0439 32.3357 66.972 32.7587 66.9 33.1816C66.8284 33.609 66.7571 34.0363 66.686 34.4638C66.622 34.8485 66.5569 35.233 66.4918 35.6175C66.3898 36.1731 66.3898 36.1731 66.4 36.6066C67.2155 36.3012 67.9653 35.9176 68.7313 35.5043C68.9877 35.3678 69.2442 35.2315 69.5008 35.0953C69.9018 34.882 70.3023 34.6679 70.7015 34.4513C71.0893 34.2414 71.4788 34.0351 71.8688 33.8293C72.1002 33.7051 72.3316 33.5809 72.57 33.453C73.2622 33.1823 73.5111 33.1605 74.2 33.4066C74.6889 33.637 74.6889 33.637 75.1969 33.923C75.3841 34.0271 75.5713 34.1311 75.7641 34.2383C75.9575 34.3475 76.1508 34.4566 76.35 34.5691C77.6766 35.3142 78.9952 36.0195 80.4 36.6066C80.2716 34.8583 79.9963 33.1616 79.6746 31.4398C79.6395 31.2461 79.6043 31.0524 79.568 30.8527C79.5358 30.6803 79.5035 30.5079 79.4703 30.3302C79.4471 30.1574 79.4239 29.9847 79.4 29.8066C79.3722 29.6137 79.3444 29.4208 79.3157 29.222C79.44 28.3152 79.9327 27.9264 80.5813 27.3152C80.7011 27.1975 80.821 27.0799 80.9445 26.9586C81.3269 26.5842 81.7133 26.2141 82.1 25.8441C82.4859 25.4698 82.8709 25.0945 83.2556 24.719C83.4951 24.4857 83.7355 24.2533 83.9767 24.0218C84.2548 23.7538 84.528 23.4807 84.8 23.2066C84.8 23.1406 84.8 23.0746 84.8 23.0066C84.4723 23.0071 84.4723 23.0071 84.138 23.0076C78.229 22.9381 78.229 22.9381 76.6263 21.4625C75.0811 19.5873 74.2936 17.1028 73.6 14.8066C73.534 14.8066 73.468 14.8066 73.4 14.8066Z" fill="#F78319"/>
<path id="Vector_2" d="M38.8 10.2071C39.6495 10.8908 40.4289 11.6371 41.2 12.4071C41.3583 12.5631 41.5166 12.7191 41.6797 12.8798C45.662 17.0367 47.0995 22.3247 47.043 27.9478C46.9407 32.229 45.208 36.5713 42.4 39.8071C42.2716 39.9641 42.1432 40.1211 42.011 40.2829C38.766 44.1086 34.1451 46.4862 29.2 47.2071C26.2131 47.4319 23.2631 47.3186 20.4 46.4071C20.2711 46.3664 20.1423 46.3257 20.0095 46.2837C16.7141 45.1967 14.0179 43.251 11.6 40.8071C11.4358 40.6473 11.2716 40.4874 11.1024 40.3228C8.97428 38.1322 7.71078 35.2866 6.80002 32.4071C6.73196 32.2004 6.6639 31.9936 6.59377 31.7806C5.20723 26.6581 6.24657 20.7923 8.80002 16.2071C9.34264 15.3499 9.93943 14.5762 10.6 13.8071C10.7689 13.606 10.9378 13.4049 11.1117 13.1978C17.9445 5.27098 30.3693 4.06979 38.8 10.2071ZM27.6 15.8071C24.5375 19.6204 24.3163 24.0565 24.4627 28.6978C24.4836 29.4354 24.4924 30.1732 24.5024 30.911C24.5234 32.3434 24.5573 33.7752 24.6 35.2071C26.1767 35.2274 27.7534 35.2414 29.3302 35.2511C29.8667 35.2546 30.403 35.2602 30.9394 35.2675C31.7104 35.2772 32.4813 35.2817 33.2524 35.2853C33.4922 35.2894 33.732 35.2935 33.9791 35.2978C35.2512 35.3005 35.2512 35.3005 36.4399 34.9017C36.9231 34.238 37.0231 33.6115 37.1094 32.8157C37.1297 32.6597 37.15 32.5037 37.1709 32.343C37.2348 31.844 37.2924 31.3444 37.35 30.8446C37.3916 30.5171 37.4335 30.1896 37.4758 29.8622C37.5772 29.0637 37.6672 28.2646 37.7509 27.4641C37.7987 27.0199 37.8529 26.5768 37.9074 26.1334C37.9356 25.8656 37.9634 25.5977 37.9906 25.3298C38.0168 25.0976 38.0429 24.8654 38.0698 24.6261C38.0464 23.9757 38.0464 23.9757 37.5969 23.4306C36.8661 22.9121 36.3216 22.8775 35.4586 22.9095C35.241 22.9116 35.241 22.9116 35.019 22.9138C34.5583 22.9193 34.0981 22.9319 33.6375 22.9446C33.3241 22.9497 33.0107 22.9542 32.6973 22.9583C31.9313 22.9693 31.1658 22.9865 30.4 23.0071C30.4546 22.8812 30.5091 22.7552 30.5653 22.6254C30.8128 22.0496 31.0564 21.4722 31.3 20.8946C31.3859 20.6965 31.4717 20.4984 31.5602 20.2942C32.0092 19.2217 32.3525 18.3735 32.2 17.2071C31.7893 16.4443 31.3789 15.8071 30.6 15.4071C29.4554 15.1248 28.5884 15.0883 27.6 15.8071ZM15.4 23.4071C15.149 23.9091 15.1733 24.2543 15.171 24.8161C15.1697 25.0263 15.1684 25.2366 15.1671 25.4532C15.1669 25.6811 15.1667 25.909 15.1664 26.1439C15.1658 26.3771 15.1651 26.6104 15.1644 26.8508C15.1634 27.3449 15.1629 27.839 15.163 28.3332C15.1625 29.0908 15.1589 29.8483 15.1551 30.606C15.1545 31.0853 15.1541 31.5646 15.1539 32.0439C15.1525 32.2714 15.1511 32.4989 15.1496 32.7333C15.1502 32.9442 15.1508 33.155 15.1514 33.3723C15.1512 33.5581 15.1509 33.7439 15.1506 33.9353C15.1687 34.4609 15.1687 34.4609 15.6 35.0071C17.3088 35.5767 19.1988 35.2071 21 35.2071C21 31.1811 21 27.1551 21 23.0071C18.1012 22.7887 18.1012 22.7887 15.4 23.4071Z" fill="#F78319"/>
<path id="Vector_3" d="M79.6 54.0069C79.7289 54.0477 79.8577 54.0884 79.9905 54.1304C83.2822 55.2162 85.9881 57.1604 88.4 59.6069C88.5495 59.7544 88.6991 59.9019 88.8531 60.0538C92.7311 64.115 93.9386 69.5465 93.8664 74.9898C93.7292 79.196 92.1208 83.3865 89.4 86.6069C89.2334 86.8057 89.0669 87.0045 88.8953 87.2093C85.6822 90.9318 80.9304 93.5207 76 94.0069C70.425 94.2915 64.7268 93.3982 60.4 89.5549C59.8534 89.0521 59.3246 88.5327 58.8 88.0069C58.6371 87.8463 58.4741 87.6857 58.3062 87.5202C54.3463 83.386 52.8782 78.0646 52.9437 72.4554C53.1012 67.2897 55.6135 62.1455 59.3398 58.5984C62.132 56.2234 65.2346 54.4891 68.8 53.6069C68.9495 53.5699 69.099 53.5328 69.253 53.4945C72.6055 52.7407 76.3343 52.9673 79.6 54.0069ZM64 66.4069C62.9043 67.9543 62.528 69.5269 62.6 71.4069C63.356 75.6238 65.9146 78.784 68.8 81.8069C69.0069 82.0262 69.0069 82.0262 69.218 82.2499C70.4247 83.4961 71.7558 84.6441 73.2 85.6069C74.0108 85.5655 74.5506 85.0152 75.1375 84.5069C75.2488 84.4111 75.3602 84.3153 75.4749 84.2165C79.2989 80.8682 83.719 76.6167 84.2555 71.2523C84.3177 69.475 83.9429 67.8039 82.8 66.4069C81.67 65.2061 80.4017 64.6132 78.75 64.5194C77.2344 64.5779 75.602 65.0299 74.4 65.9694C73.8 66.4069 73.8 66.4069 73.3227 66.371C72.7521 66.1919 72.3357 65.9486 71.8375 65.6194C69.3819 64.1047 65.9869 64.0805 64 66.4069Z" fill="#F78319"/>
<path id="Vector_4" d="M39.3001 57.5196C39.7394 57.8758 40.17 58.2394 40.6001 58.6071C40.7349 58.7213 40.8697 58.8355 41.0087 58.9532C44.4283 62.1129 46.7771 67.0906 47.0283 71.7281C47.2402 78.0846 45.5475 83.2031 41.2743 87.9969C38.032 91.3808 33.3564 93.7525 28.6221 94.0425C25.7714 94.1006 23.1248 94.0997 20.4001 93.2071C20.1716 93.1323 19.9432 93.0575 19.7079 92.9805C17.3946 92.1508 15.2663 91.0091 13.4001 89.4071C13.2356 89.2691 13.0711 89.1312 12.9016 88.9891C11.7163 87.9641 10.7198 86.875 9.80006 85.6071C9.68095 85.4433 9.56184 85.2796 9.43912 85.111C6.32036 80.5298 5.45903 74.7467 6.3963 69.3365C7.07219 66.1559 8.60586 63.1546 10.6001 60.6071C10.7613 60.3913 10.7613 60.3913 10.9258 60.1711C17.7417 51.6641 31.0255 51.0165 39.3001 57.5196ZM16.2501 63.6946C15.7023 64.3792 15.773 65.2113 15.7678 66.0538C15.7659 66.3062 15.764 66.5585 15.762 66.8185C15.761 67.0933 15.7602 67.3682 15.7594 67.643C15.7583 67.926 15.7571 68.2089 15.756 68.4919C15.7539 69.0847 15.7527 69.6774 15.752 70.2702C15.7509 71.0279 15.7461 71.7855 15.7404 72.5432C15.7367 73.1276 15.7356 73.712 15.7353 74.2964C15.7347 74.5757 15.7331 74.8549 15.7305 75.1341C15.7271 75.5256 15.7278 75.9171 15.7288 76.3085C15.728 76.5308 15.7273 76.7531 15.7266 76.9822C15.8309 77.8694 16.1341 78.5461 16.7735 79.1735C17.2768 79.4491 17.6543 79.5062 18.2251 79.5446C18.3988 79.5577 18.5726 79.5709 18.7516 79.5844C19.0342 79.5987 19.3171 79.6071 19.6001 79.6071C19.4759 80.1822 19.3507 80.7572 19.2251 81.3321C19.1728 81.5745 19.1728 81.5745 19.1196 81.8219C18.9259 82.7042 18.7061 83.5552 18.4001 84.4071C20.2382 84.5269 21.9588 83.9576 23.4001 82.8071C24.124 82.1056 24.7325 81.3971 25.0001 80.4071C25.0001 80.1431 25.0001 79.8791 25.0001 79.6071C25.1247 79.6084 25.2494 79.6097 25.3779 79.6111C26.6789 79.6244 27.98 79.6334 29.2811 79.64C29.7662 79.643 30.2514 79.6471 30.7365 79.6523C31.4351 79.6596 32.1335 79.663 32.8321 79.6656C33.048 79.6687 33.2639 79.6718 33.4863 79.675C34.683 79.6753 35.5475 79.5934 36.6001 79.0071C37.4111 78.169 37.4252 77.304 37.4323 76.1786C37.4342 75.9303 37.4361 75.682 37.4381 75.4261C37.4391 75.1557 37.4399 74.8853 37.4407 74.6149C37.4418 74.3364 37.443 74.0579 37.4441 73.7794C37.4462 73.1961 37.4474 72.6127 37.4481 72.0293C37.4492 71.2837 37.454 70.5382 37.4597 69.7927C37.4634 69.2175 37.4645 68.6424 37.4648 68.0673C37.4654 67.7925 37.467 67.5177 37.4696 67.2429C37.473 66.8577 37.4723 66.4725 37.4713 66.0872C37.4721 65.8685 37.4728 65.6497 37.4736 65.4243C37.3717 64.5689 37.0456 63.9167 36.5126 63.2446C35.7124 62.6364 34.6492 62.7762 33.6911 62.7748C33.519 62.7738 33.3469 62.7728 33.1695 62.7718C32.6008 62.7689 32.0321 62.7675 31.4633 62.7664C31.0678 62.7653 30.6723 62.7641 30.2767 62.763C29.4477 62.7609 28.6187 62.7597 27.7897 62.759C26.7275 62.7579 25.6654 62.7531 24.6032 62.7474C23.7864 62.7437 22.9695 62.7426 22.1526 62.7423C21.761 62.7417 21.3694 62.7401 20.9778 62.7375C20.4301 62.7341 19.8826 62.7345 19.3349 62.7358C19.1733 62.7339 19.0117 62.7321 18.8452 62.7302C17.7166 62.7386 17.1051 62.9922 16.2501 63.6946Z" fill="#F78319"/>
<path id="Vector_5" d="M79.5999 22.207C81.4908 22.3064 83.332 22.4826 85.1999 22.807C85.0843 23.5215 84.8291 23.8492 84.3156 24.35C84.1764 24.4873 84.0371 24.6246 83.8937 24.766C83.7473 24.9074 83.6008 25.0488 83.4499 25.1945C83.3066 25.3352 83.1633 25.4758 83.0156 25.6207C82.7367 25.8942 82.4572 26.167 82.177 26.4392C81.8587 26.7497 81.5444 27.0633 81.232 27.3797C80.7999 27.807 80.7999 27.807 80.2374 28.257C79.634 29.0157 79.728 29.6823 79.7999 30.607C79.9069 31.346 80.0504 32.0756 80.1999 32.807C80.4781 34.1676 80.6456 35.4161 80.5999 36.807C80.1124 36.732 80.1124 36.732 79.5999 36.607C79.5339 36.475 79.4679 36.343 79.3999 36.207C79.6639 36.273 79.9279 36.339 80.1999 36.407C79.9907 34.5784 79.7433 32.767 79.3931 30.9594C79.0055 28.8976 79.0055 28.8976 79.41 28.2931C79.7201 27.9479 80.0444 27.6277 80.3812 27.3086C80.5011 27.1904 80.6209 27.0723 80.7444 26.9505C81.1269 26.5748 81.5133 26.2034 81.8999 25.832C82.1604 25.5776 82.4205 25.3229 82.6804 25.068C83.3167 24.4438 83.9582 23.8258 84.5999 23.207C82.9499 22.943 81.2999 22.679 79.5999 22.407C79.5999 22.341 79.5999 22.275 79.5999 22.207Z" fill="#F78319"/>
<path id="Vector_6" d="M14 10.4072C14.132 10.4732 14.264 10.5392 14.4 10.6072C14.1452 11.0149 13.8778 11.4149 13.6 11.8072C13.468 11.8072 13.336 11.8072 13.2 11.8072C13.134 11.9392 13.068 12.0712 13 12.2072C12.7333 12.3406 12.4666 12.4739 12.2 12.6072C11.7897 12.9519 11.5773 13.2477 11.3125 13.7197C10.9797 14.2388 10.7664 14.3924 10.2 14.6072C10.527 13.8143 11.0735 13.2387 11.65 12.6197C11.743 12.5172 11.8361 12.4148 11.932 12.3092C12.5767 11.6103 13.2587 11.0027 14 10.4072Z" fill="#F78319"/>
<path id="Vector_7" d="M60.4 10.8066C60.532 10.8726 60.664 10.9386 60.8 11.0066C60.327 11.6788 59.7874 12.2327 59.2 12.8066C58.9456 13.0605 58.6914 13.3147 58.4375 13.5691C58.225 13.7816 58.0125 13.9941 57.8 14.2066C57.668 14.1406 57.536 14.0746 57.4 14.0066C58.374 12.9115 59.3501 11.8296 60.4 10.8066Z" fill="#F78319"/>
<path id="Vector_8" d="M14.2 57.207C14.332 57.273 14.464 57.339 14.6 57.407C14.2185 57.8048 13.835 58.2002 13.45 58.5945C13.2884 58.7637 13.2884 58.7637 13.1235 58.9363C13.0178 59.044 12.9121 59.1516 12.8031 59.2625C12.6586 59.4117 12.6586 59.4117 12.5112 59.564C12.1486 59.8472 11.8488 59.9253 11.4 60.007C11.8476 59.147 12.3793 58.6422 13.1375 58.0445C13.3363 57.8865 13.5351 57.7285 13.7399 57.5656C13.8917 57.4473 14.0436 57.329 14.2 57.207Z" fill="#F78319"/>
<path id="Vector_9" d="M80.8 27.0068C80.998 27.0728 81.196 27.1388 81.4 27.2068C80.872 27.7348 80.344 28.2628 79.8 28.8068C79.734 28.6088 79.668 28.4108 79.6 28.2068C79.996 27.8108 80.392 27.4148 80.8 27.0068ZM79.4 28.8068C79.6 29.6068 79.6 29.6068 79.6 29.6068L79.4 28.8068Z" fill="#F78319"/>
<path id="Vector_10" d="M14 10.4072C14.132 10.4732 14.264 10.5392 14.4 10.6072C14.1452 11.0149 13.8779 11.4149 13.6 11.8072C13.468 11.8072 13.336 11.8072 13.2 11.8072C13.134 11.9392 13.068 12.0712 13 12.2072C13 11.3293 13.4256 11.0534 14 10.4072Z" fill="#F78319"/>
</g>
</svg>
