<svg width="60" height="61" viewBox="0 0 60 61" fill="none" xmlns="http://www.w3.org/2000/svg">
<g id="fixed-removebg-preview 1" clip-path="url(#clip0_55_1785)">
<path id="Vector" d="M27.96 1.40811C28.0986 1.46828 28.2372 1.52846 28.38 1.59045C32.1672 3.35929 35.1024 6.64309 36.6 10.5281C37.212 12.3085 37.4857 14.0674 37.4775 15.9506C37.4772 16.0326 37.4769 16.1146 37.4766 16.1991C37.457 19.6805 36.3506 22.9979 34.2 25.7681C34.2798 25.7788 34.3596 25.7895 34.4418 25.8005C34.908 25.9146 35.3039 26.1132 35.73 26.3306C35.8153 26.3739 35.9007 26.4172 35.9887 26.4618C37.1038 27.0358 38.4627 27.7742 39.12 28.8881C39.089 29.1206 39.089 29.1206 38.985 29.3681C38.5198 30.559 38.3458 31.6921 38.3386 32.9662C38.3364 33.108 38.3342 33.2498 38.332 33.3959C38.3256 33.8433 38.3215 34.2907 38.3175 34.7381C38.3135 35.0437 38.3093 35.3494 38.305 35.655C38.2949 36.3993 38.2867 37.1437 38.28 37.8881C38.1656 37.911 38.0512 37.9338 37.9333 37.9574C37.7827 37.9883 37.6321 38.0193 37.477 38.0512C37.2534 38.0967 37.2534 38.0967 37.0253 38.143C35.9577 38.4068 35.076 39.0358 34.5032 39.9792C34.2676 40.4319 34.0922 40.8151 34.0073 41.3222C33.84 41.7281 33.84 41.7281 33.6465 41.8529C33.3737 41.9571 33.1034 42.0327 32.82 42.1031C32.714 42.1319 32.6081 42.1606 32.4989 42.1902C24.4534 44.2982 13.9573 44.5563 6.47996 40.4081C6.10595 40.1832 5.74974 39.9484 5.39996 39.6881C5.40979 40.0682 5.42332 40.4481 5.43746 40.8281C5.44017 40.9345 5.44287 41.041 5.44566 41.1506C5.47923 41.9806 5.59143 42.6767 6.11012 43.3444C9.83295 46.6763 16.0295 46.9374 20.76 47.1281C20.8636 47.1324 20.9673 47.1368 21.0741 47.1412C21.6506 47.162 22.2239 47.1534 22.8 47.1281C22.93 47.1225 23.06 47.117 23.194 47.1112C26.5542 46.9553 29.8769 46.552 33.0907 45.5166C33.36 45.4481 33.36 45.4481 33.84 45.4481C33.84 47.9033 33.84 50.3585 33.84 52.8881C29.9805 54.3354 25.7713 54.7171 21.675 54.7106C21.5813 54.7105 21.4876 54.7104 21.3912 54.7103C16.7345 54.6983 9.29823 54.5122 5.68007 51.0149C5.60081 50.9323 5.60081 50.9323 5.51996 50.8481C5.50941 51.2506 5.50308 51.653 5.49746 52.0556C5.49444 52.1688 5.49143 52.2819 5.48832 52.3985C5.47794 53.3916 5.65995 54.0625 6.35996 54.8081C11.826 58.9763 20.9533 58.8199 27.4407 57.983C29.0754 57.7582 30.6564 57.4289 32.242 56.9703C32.8157 56.8047 33.3662 56.6752 33.96 56.6081C34.158 57.1229 34.356 57.6377 34.56 58.1681C33.8474 58.5521 33.1591 58.8027 32.3775 59.0081C32.2617 59.0388 32.1459 59.0695 32.0266 59.1011C30.8395 59.4088 29.6526 59.6646 28.44 59.8481C28.3216 59.8662 28.2033 59.8843 28.0814 59.903C23.8012 60.5207 19.1534 60.5122 14.88 59.8481C14.7465 59.8275 14.6131 59.8069 14.4757 59.7857C12.109 59.405 9.81142 58.8267 7.63496 57.8081C7.53444 57.7612 7.43392 57.7143 7.33036 57.666C6.61498 57.3144 6.01467 56.8726 5.39996 56.3681C5.33367 56.3179 5.26737 56.2677 5.19907 56.216C4.46801 55.6508 3.96616 54.9778 3.71996 54.0881C3.69729 53.7526 3.68599 53.4292 3.68706 53.0939C3.68643 52.9956 3.68581 52.8974 3.68516 52.7961C3.68336 52.4678 3.68327 52.1396 3.68319 51.8113C3.68228 51.5755 3.68127 51.3397 3.68017 51.1039C3.67753 50.464 3.67648 49.824 3.67587 49.1841C3.67543 48.784 3.67468 48.384 3.67383 47.9839C3.67089 46.5874 3.66932 45.191 3.6689 43.7945C3.66846 42.4941 3.66487 41.1937 3.65985 39.8932C3.65568 38.7758 3.65383 37.6583 3.65375 36.5408C3.65365 35.8738 3.65261 35.2069 3.64919 34.5399C3.64604 33.9123 3.64578 33.2847 3.64771 32.6571C3.64792 32.4273 3.64712 32.1975 3.64521 31.9678C3.62774 29.7362 3.62774 29.7362 4.31996 28.7681C4.37334 28.6918 4.42672 28.6155 4.48172 28.5368C5.47339 27.2016 7.22565 26.3216 8.75996 25.7681C8.87876 25.7681 8.99756 25.7681 9.11996 25.7681C9.05314 25.6778 8.98631 25.5874 8.91746 25.4944C6.39448 21.9826 5.26715 17.7473 5.9515 13.4609C6.74549 8.91104 9.34993 5.24262 13.08 2.60811C17.3378 -0.272567 23.2962 -0.649788 27.96 1.40811ZM13.56 7.76811C13.4124 7.91359 13.4124 7.91359 13.2618 8.06202C11.1396 10.2667 9.98249 13.1932 10.0314 16.2602C10.1442 19.0422 11.1966 21.673 13.08 23.7281C13.1799 23.8392 13.2798 23.9502 13.3828 24.0647C15.4651 26.2691 18.3183 27.3754 21.3131 27.5906C24.1499 27.6668 27.0114 26.6598 29.16 24.8081C29.2467 24.7399 29.3335 24.6717 29.4229 24.6014C31.5847 22.8307 32.9098 19.7891 33.2067 17.0667C33.4451 14.0679 32.5281 11.0715 30.6557 8.71264C28.7171 6.45446 26.1856 4.85162 23.16 4.52811C19.4429 4.35406 16.2513 5.08127 13.56 7.76811ZM9.29996 27.5831C9.21402 27.6214 9.12808 27.6597 9.03954 27.6992C6.88101 28.6492 6.88101 28.6492 5.45574 30.4476C5.35151 30.897 5.44039 31.2391 5.63996 31.6481C6.93609 33.7219 10.0775 34.5631 12.3075 35.0793C15.353 35.7429 18.4218 35.996 21.5325 35.9981C21.6572 35.9982 21.782 35.9984 21.9105 35.9985C23.9892 35.9971 26.0198 35.9041 28.08 35.6081C28.204 35.5908 28.3281 35.5734 28.456 35.5556C31.3661 35.136 35.3706 34.3982 37.3898 32.025C37.7 31.5484 37.9089 31.1469 37.8637 30.5681C37.5944 29.5542 36.5975 28.9316 35.76 28.4081C35.211 28.0962 34.6576 27.8243 34.08 27.5681C33.9632 27.5106 33.8464 27.453 33.7261 27.3937C33.3708 27.2498 33.143 27.177 32.76 27.2081C32.3747 27.4594 32.0816 27.7444 31.7625 28.0753C31.3046 28.5478 30.7896 28.8914 30.24 29.2481C30.1126 29.336 30.1126 29.336 29.9826 29.4258C27.5807 30.9948 24.5502 31.6971 21.72 31.6931C21.6386 31.693 21.5572 31.6929 21.4734 31.6928C17.4928 31.6759 13.6672 30.1888 10.7986 27.4022C10.3025 26.9987 9.81267 27.3538 9.29996 27.5831Z" fill="white"/>
<path id="Vector_2" d="M38.341 39.3113C38.4754 39.3106 38.6098 39.3099 38.7482 39.3092C38.8952 39.309 39.0421 39.3089 39.1935 39.3088C39.4262 39.3079 39.4262 39.3079 39.6637 39.307C40.0892 39.3054 40.5147 39.3046 40.9402 39.3041C41.2063 39.3037 41.4725 39.3032 41.7386 39.3027C42.5723 39.3011 43.4059 39.2999 44.2396 39.2994C45.2001 39.2989 46.1607 39.2968 47.1212 39.2933C47.8648 39.2907 48.6083 39.2895 49.3519 39.2894C49.7955 39.2892 50.239 39.2885 50.6826 39.2864C51.178 39.284 51.6735 39.2846 52.169 39.2853C52.3147 39.2842 52.4604 39.2831 52.6105 39.282C53.7147 39.2874 54.6912 39.4375 55.56 40.1681C56.0193 40.783 56.2937 41.311 56.2985 42.0882C56.2995 42.2122 56.3006 42.3362 56.3016 42.4639C56.3024 42.6678 56.3024 42.6678 56.3032 42.8759C56.3047 43.0908 56.3047 43.0908 56.3062 43.31C56.3091 43.7853 56.3111 44.2607 56.3129 44.7361C56.3135 44.9001 56.3141 45.064 56.3148 45.228C56.3174 45.9106 56.3196 46.5932 56.321 47.2758C56.3229 48.2521 56.3269 49.2282 56.3338 50.2044C56.3384 50.8918 56.3407 51.5792 56.3414 52.2666C56.3418 52.6766 56.3432 53.0865 56.3471 53.4965C56.351 53.9549 56.3509 54.4132 56.3501 54.8717C56.352 55.0059 56.354 55.1402 56.356 55.2785C56.3483 56.2521 56.1381 57.0601 55.4729 57.7978C54.5585 58.6759 53.5062 58.701 52.303 58.6966C52.0687 58.6978 52.0687 58.6978 51.8296 58.6991C51.4034 58.7012 50.9772 58.7011 50.551 58.7004C50.194 58.7 49.8371 58.7008 49.4802 58.7015C48.6375 58.7032 47.7948 58.703 46.9522 58.7016C46.0854 58.7003 45.2186 58.7019 44.3518 58.7052C43.6053 58.7078 42.8588 58.7086 42.1122 58.7079C41.6674 58.7075 41.2226 58.7078 40.7778 58.7099C40.2812 58.7121 39.7847 58.7104 39.2881 58.7083C39.0697 58.7101 39.0697 58.7101 38.8468 58.7118C37.643 58.7014 36.6975 58.463 35.8285 57.6005C35.2097 56.7062 35.0899 55.8938 35.0979 54.8227C35.0971 54.684 35.0963 54.5453 35.0954 54.4024C35.0933 53.9465 35.0947 53.4907 35.0963 53.0348C35.096 52.7164 35.0955 52.398 35.0949 52.0795C35.094 51.4131 35.0952 50.7467 35.0975 50.0802C35.1001 49.3125 35.0992 48.5448 35.0966 47.777C35.0944 47.1151 35.0941 46.4531 35.0954 45.7912C35.0961 45.397 35.096 45.0029 35.0946 44.6088C35.0934 44.1688 35.0953 43.729 35.0979 43.2891C35.097 43.1604 35.096 43.0318 35.095 42.8993C35.1059 41.924 35.2911 41.0843 35.91 40.3106C36.7008 39.6816 37.3169 39.3144 38.341 39.3113ZM42.5025 44.9906C41.7957 45.9719 41.4988 47.005 41.64 48.2081C41.8464 49.3578 42.4298 50.1975 43.328 50.9297C43.834 51.2752 44.3813 51.5681 45 51.5681C44.9969 51.6377 44.9938 51.7072 44.9905 51.7789C44.978 52.0961 44.9702 52.4133 44.9625 52.7306C44.9575 52.84 44.9525 52.9495 44.9473 53.0622C44.9371 53.6249 44.9361 53.8825 45.2822 54.3459C45.5795 54.6004 45.5795 54.6004 45.9225 54.5606C46.2172 54.4621 46.2172 54.4621 46.44 54.2081C46.4844 53.9409 46.4844 53.9409 46.4897 53.6334C46.4944 53.5205 46.499 53.4076 46.5038 53.2912C46.5075 53.1731 46.5112 53.0549 46.515 52.9331C46.522 52.7544 46.522 52.7544 46.5291 52.5722C46.5404 52.2775 46.5507 51.9828 46.56 51.6881C46.6501 51.6573 46.7401 51.6265 46.8329 51.5948C48.0296 51.1472 48.9693 50.5295 49.5675 49.3706C50.0384 48.33 50.0905 47.18 49.7475 46.0856C49.3229 45.0613 48.5439 44.245 47.551 43.7555C45.7166 43.0287 43.7798 43.4748 42.5025 44.9906Z" fill="white"/>
<path id="Vector_3" d="M28.057 8.15937C28.3555 8.41975 28.6396 8.68813 28.9199 8.96796C29.0035 9.0501 29.087 9.13224 29.1731 9.21687C30.154 10.2454 30.8828 11.5786 31.3199 12.928C31.3557 13.0305 31.3914 13.1331 31.4282 13.2387C32.1767 15.8084 31.7407 18.5605 30.4982 20.8789C30.1453 21.509 29.7291 22.0834 29.2799 22.648C29.1389 22.8373 29.1389 22.8373 28.9949 23.0305C27.8115 24.2984 26.351 25.1049 24.7199 25.648C24.6075 25.6866 24.495 25.7253 24.3792 25.7652C22.4274 26.3258 20.1455 26.1878 18.2399 25.528C18.114 25.4859 17.9881 25.4438 17.8584 25.4005C15.3048 24.4453 13.4598 22.3677 12.2854 19.9709C11.2038 17.4001 11.3129 14.59 12.3009 12.012C13.1099 10.1864 14.4555 8.67694 16.0799 7.52796C16.1689 7.46439 16.2578 7.40081 16.3495 7.33531C19.9777 4.95523 24.7691 5.51169 28.057 8.15937ZM20.9999 8.00796C20.8673 8.40582 20.8414 8.75246 20.8124 9.17046C20.8024 9.312 20.7923 9.45354 20.782 9.59937C20.7711 9.76202 20.7711 9.76202 20.7599 9.92796C20.6872 9.93694 20.6145 9.94591 20.5396 9.95515C19.4199 10.1309 18.4847 10.6084 17.7815 11.5142C17.3169 12.2157 17.06 12.9951 17.2167 13.8303C17.5294 14.9702 18.0976 15.646 19.0799 16.288C19.7282 16.6277 20.1138 16.648 20.8799 16.648C20.8799 17.9548 20.8799 19.2616 20.8799 20.608C19.2824 20.5855 19.2824 20.5855 18.7798 20.5755C18.5838 20.5742 18.5838 20.5742 18.3839 20.5728C18.25 20.5709 18.1161 20.569 17.9782 20.5671C17.6412 20.5814 17.6412 20.5814 17.4125 20.7634C17.2397 20.9872 17.2397 20.9872 17.2949 21.3955C17.3587 21.8385 17.3587 21.8385 17.7599 22.048C18.0973 22.0811 18.0973 22.0811 18.4776 22.0714C18.6172 22.0706 18.7568 22.0699 18.9006 22.0691C19.0464 22.067 19.1922 22.065 19.3424 22.063C19.5632 22.0613 19.5632 22.0613 19.7885 22.0597C20.1523 22.0569 20.5161 22.0529 20.8799 22.048C20.8758 22.1637 20.8716 22.2794 20.8673 22.3986C20.864 22.5502 20.8608 22.7018 20.8574 22.858C20.8533 23.0083 20.8491 23.1587 20.8448 23.3136C20.8816 23.7478 20.9359 23.9054 21.2399 24.208C21.5464 24.3463 21.666 24.348 21.9824 24.2305C22.218 24.1022 22.218 24.1022 22.3199 23.848C22.3285 23.5418 22.3311 23.239 22.3274 22.933C22.3269 22.8482 22.3264 22.7634 22.3258 22.6761C22.3244 22.4667 22.3222 22.2573 22.3199 22.048C22.455 22.0345 22.455 22.0345 22.5928 22.0208C23.7188 21.8761 24.5947 21.5239 25.3724 20.6755C26.0567 19.7819 26.1778 18.9624 26.0399 17.848C25.774 16.9602 25.2504 16.3135 24.4799 15.808C23.7442 15.4243 23.1621 15.3132 22.3199 15.208C22.3595 13.9804 22.3991 12.7528 22.4399 11.488C24.0374 11.4505 24.0374 11.4505 24.5401 11.4414C24.6708 11.4374 24.8014 11.4335 24.936 11.4294C25.0699 11.4262 25.2037 11.4231 25.3417 11.4198C25.6791 11.3944 25.6791 11.3944 25.9032 11.2066C26.1199 10.8918 26.0939 10.6581 26.0399 10.288C25.6631 9.90923 25.3525 9.87935 24.8306 9.86656C24.6217 9.86018 24.6217 9.86018 24.4087 9.85367C24.2639 9.85096 24.1191 9.84825 23.9699 9.84546C23.8233 9.84137 23.6767 9.83727 23.5256 9.83304C23.1637 9.82315 22.8019 9.81485 22.4399 9.80796C22.4332 9.63232 22.4332 9.63232 22.4264 9.45312C22.4185 9.30044 22.4106 9.14777 22.4024 8.99046C22.3955 8.83872 22.3885 8.68697 22.3814 8.53062C22.3524 8.13611 22.3524 8.13611 22.1535 7.8964C21.722 7.61009 21.4031 7.73918 20.9999 8.00796Z" fill="white"/>
<path id="Vector_4" d="M49.6711 27.732C50.7766 28.5997 51.6093 30.0245 51.84 31.4079C51.85 31.6287 51.8541 31.8498 51.8536 32.0709C51.8536 32.2654 51.8536 32.2654 51.8536 32.4639C51.853 32.6025 51.8523 32.7411 51.8517 32.884C51.8515 33.027 51.8514 33.17 51.8512 33.3173C51.8505 33.7733 51.849 34.2294 51.8475 34.6854C51.8469 34.9949 51.8463 35.3043 51.8458 35.6138C51.8445 36.3718 51.8425 37.1299 51.84 37.8879C51.3466 37.8909 50.8532 37.893 50.3598 37.8945C50.1918 37.8951 50.0238 37.8959 49.8559 37.897C49.6149 37.8984 49.3739 37.899 49.133 37.8996C48.9878 37.9002 48.8426 37.9009 48.6931 37.9015C48.36 37.8879 48.36 37.8879 48.24 37.7679C48.2271 37.5839 48.2224 37.3994 48.2211 37.2149C48.2198 37.0971 48.2186 36.9793 48.2173 36.858C48.2165 36.7296 48.2156 36.6012 48.2147 36.469C48.2113 36.1992 48.2079 35.9295 48.2044 35.6597C48.1994 35.2328 48.195 34.806 48.1918 34.3791C48.1885 33.9682 48.183 33.5574 48.1772 33.1465C48.1768 33.0193 48.1764 32.8922 48.176 32.7612C48.162 31.9188 48.0405 31.3926 47.4975 30.7254C46.9658 30.2882 46.4611 30.1159 45.78 30.0429C44.9128 30.1358 44.3827 30.3785 43.8272 31.0582C43.5259 31.5283 43.4102 31.9514 43.4017 32.5068C43.3993 32.6269 43.397 32.747 43.3945 32.8707C43.3931 32.9988 43.3917 33.127 43.3903 33.259C43.388 33.3913 43.3857 33.5236 43.3833 33.66C43.3761 34.0818 43.3705 34.5036 43.365 34.9254C43.3604 35.2117 43.3557 35.4981 43.3509 35.7844C43.3392 36.4855 43.3297 37.1867 43.32 37.8879C42.132 37.8879 40.944 37.8879 39.72 37.8879C39.7117 37.0256 39.7045 36.1633 39.7002 35.301C39.6984 35.0082 39.696 34.7154 39.6928 34.4225C39.6884 33.9995 39.6864 33.5766 39.6848 33.1535C39.683 33.0245 39.6811 32.8954 39.6792 32.7624C39.6788 30.9005 40.2401 29.3545 41.5275 28.002C43.9456 25.8475 47.0858 25.8966 49.6711 27.732Z" fill="white"/>
<path id="Vector_5" d="M47.64 45.5681C48.2139 46.1484 48.5131 46.7035 48.525 47.5256C48.506 48.3114 48.315 48.829 47.7797 49.4053C47.0913 50.0462 46.4678 50.3132 45.5236 50.2847C44.641 50.1709 44.0331 49.7425 43.485 49.0575C43.0879 48.4573 43.0183 47.8321 43.08 47.1281C43.2512 46.4018 43.5993 45.822 44.16 45.3281C45.3283 44.7022 46.5938 44.6922 47.64 45.5681Z" fill="white"/>
<path id="Vector_6" d="M22.3199 16.7681C23.6961 16.921 23.6961 16.921 24.3599 17.6081C24.6699 18.0913 24.7575 18.4365 24.6749 18.9956C24.5101 19.5993 24.1552 19.9165 23.6399 20.2481C23.5691 20.294 23.4983 20.34 23.4253 20.3873C23.1599 20.4881 23.1599 20.4881 22.3199 20.4881C22.3199 19.2605 22.3199 18.0329 22.3199 16.7681Z" fill="white"/>
<path id="Vector_7" d="M20.88 11.3679C20.88 12.6351 20.88 13.9023 20.88 15.2079C19.9011 15.0856 19.5454 14.9988 18.915 14.2854C18.6623 13.7703 18.6227 13.3713 18.72 12.8079C19.0254 12.1462 19.5206 11.8014 20.16 11.4879C20.4143 11.4117 20.6146 11.3679 20.88 11.3679Z" fill="white"/>
<path id="Vector_8" d="M51.48 30.448C51.8333 30.978 51.8551 31.4448 51.8536 32.071C51.8536 32.2006 51.8536 32.3303 51.8536 32.464C51.853 32.6026 51.8524 32.7412 51.8517 32.8841C51.8515 33.0271 51.8514 33.1701 51.8512 33.3174C51.8505 33.7734 51.849 34.2295 51.8475 34.6855C51.8469 34.995 51.8463 35.3044 51.8459 35.6139C51.8445 36.3719 51.8425 37.13 51.84 37.888C51.3466 37.891 50.8532 37.8931 50.3598 37.8946C50.1918 37.8952 50.0238 37.896 49.8559 37.8971C49.6149 37.8985 49.3739 37.8991 49.133 37.8997C48.9878 37.9003 48.8426 37.901 48.6931 37.9016C48.36 37.888 48.36 37.888 48.24 37.768C48.2252 37.5692 48.2187 37.3698 48.2154 37.1705C48.213 37.0432 48.2106 36.9159 48.2081 36.7847C48.2061 36.6462 48.2041 36.5077 48.202 36.365C48.1995 36.224 48.197 36.083 48.1945 35.9378C48.1866 35.4854 48.1795 35.0329 48.1725 34.5805C48.1673 34.2746 48.1621 33.9688 48.1568 33.6629C48.1439 32.9113 48.1317 32.1596 48.12 31.408C48.4346 31.7226 48.4708 31.958 48.4944 32.3953C48.4942 32.4923 48.4939 32.5893 48.4936 32.6892C48.4936 32.8549 48.4936 32.8549 48.4936 33.024C48.493 33.1423 48.4924 33.2605 48.4917 33.3824C48.4915 33.5651 48.4915 33.5651 48.4912 33.7516C48.4905 34.1404 48.489 34.5292 48.4875 34.918C48.4869 35.1817 48.4863 35.4455 48.4859 35.7092C48.4846 36.3555 48.4823 37.0017 48.48 37.648C49.5492 37.648 50.6184 37.648 51.72 37.648C51.7055 36.8926 51.6907 36.1372 51.6753 35.3819C51.6702 35.1256 51.6652 34.8694 51.6603 34.6131C51.6339 33.2214 51.6041 31.8352 51.48 30.448Z" fill="white"/>
<path id="Vector_9" d="M25.92 11.3679C25.5065 11.6436 25.3547 11.6363 24.8686 11.6314C24.6872 11.6305 24.6872 11.6305 24.5022 11.6295C24.3489 11.6274 24.1955 11.6252 24.0375 11.6229C23.5499 11.618 23.0624 11.613 22.56 11.6079C22.56 12.7959 22.56 13.9839 22.56 15.2079C22.4808 15.2079 22.4016 15.2079 22.32 15.2079C22.3171 14.6803 22.3149 14.1527 22.3134 13.6252C22.3128 13.4455 22.312 13.2659 22.311 13.0863C22.3095 12.8287 22.3088 12.571 22.3083 12.3134C22.3077 12.1582 22.307 12.003 22.3064 11.843C22.32 11.4879 22.32 11.4879 22.44 11.3679C22.9761 11.3216 23.5148 11.3115 24.0525 11.2929C24.2045 11.2867 24.3565 11.2805 24.5131 11.2742C24.6579 11.2689 24.8028 11.2637 24.9521 11.2582C25.1526 11.2509 25.1526 11.2509 25.3573 11.2434C25.68 11.2479 25.68 11.2479 25.92 11.3679Z" fill="white"/>
<path id="Vector_10" d="M15.2399 8.12793C15.3191 8.16753 15.3983 8.20713 15.4799 8.24793C15.4249 8.31027 15.3698 8.37261 15.3131 8.43684C14.9943 8.79911 14.6779 9.16023 14.3774 9.53793C13.8075 10.2454 13.8075 10.2454 13.3199 10.4079C13.5174 9.92301 13.859 9.57597 14.2124 9.20043C14.2713 9.13693 14.3302 9.07343 14.3908 9.00801C14.6686 8.70925 14.9485 8.41343 15.2399 8.12793Z" fill="white"/>
<path id="Vector_11" d="M36.48 39.8081C36.5592 39.8477 36.6384 39.8873 36.72 39.9281C36.5859 40.0888 36.4507 40.2487 36.315 40.4081C36.2398 40.4972 36.1647 40.5863 36.0872 40.6781C35.9846 40.7821 35.9846 40.7821 35.88 40.8881C35.8008 40.8881 35.7216 40.8881 35.64 40.8881C35.8266 40.4301 36.1243 40.1451 36.48 39.8081Z" fill="white"/>
<path id="Vector_12" d="M14.1599 9.20801C14.2799 9.56801 14.2799 9.56801 14.1599 9.92801C13.8939 10.1188 13.6105 10.2548 13.3199 10.408C13.52 9.93504 13.8272 9.59329 14.1599 9.20801Z" fill="white"/>
<path id="Vector_13" d="M44.4001 45.3281C44.2458 45.6722 44.0915 45.9253 43.8001 46.1681C43.7209 46.1681 43.6417 46.1681 43.5601 46.1681C43.9366 45.3281 43.9366 45.3281 44.4001 45.3281Z" fill="white"/>
<path id="Vector_14" d="M48.12 50.8479C48.1992 50.8875 48.2784 50.9271 48.36 50.9679C48.2412 51.1461 48.2412 51.1461 48.12 51.3279C47.685 51.4104 47.685 51.4104 47.28 51.4479C47.5557 51.2388 47.8319 51.04 48.12 50.8479Z" fill="white"/>
</g>
<defs>
<clipPath id="clip0_55_1785">
<rect width="60" height="60" fill="white" transform="translate(0 0.208008)"/>
</clipPath>
</defs>
</svg>
