<svg width="100" height="101" viewBox="0 0 100 101" fill="none" xmlns="http://www.w3.org/2000/svg">
<g id="freelancer-removebg-preview 1">
<path id="Vector" d="M48.1078 58.6444C49.444 58.6524 50.7801 58.6589 52.1163 58.6619C53.4225 58.6647 54.7287 58.6718 56.0349 58.6813C56.5293 58.6843 57.0237 58.6859 57.518 58.686C58.2065 58.6865 58.8948 58.6919 59.5832 58.6985C59.8859 58.697 59.8859 58.697 60.1946 58.6954C61.6309 58.7166 62.7205 59.0081 63.8117 59.9709C63.9027 60.0862 63.9937 60.2014 64.0875 60.3202C64.1821 60.4359 64.2767 60.5517 64.3742 60.6709C65.693 62.6376 64.6619 66.7886 64.4203 69.0123C64.3808 69.3885 64.3414 69.7646 64.3021 70.1408C64.1993 71.1226 64.0943 72.1041 63.9889 73.0856C63.883 74.0751 63.7791 75.0648 63.675 76.0545C63.5039 77.6789 63.3322 79.3032 63.1575 80.9272C63.0658 81.7815 62.9766 82.636 62.8912 83.4909C62.8734 83.6663 62.8556 83.8416 62.8374 84.0223C62.8035 84.3575 62.7703 84.6927 62.7378 85.028C62.6224 86.1629 62.6224 86.1629 62.4 86.6077C55.9827 86.6122 49.5655 86.6158 43.1482 86.6179C42.3914 86.6181 41.6346 86.6184 40.8778 86.6186C40.6518 86.6187 40.6518 86.6187 40.4212 86.6188C37.9783 86.6197 35.5354 86.6212 33.0924 86.6231C30.5877 86.625 28.0829 86.6261 25.5781 86.6265C24.0312 86.6267 22.4844 86.6276 20.9376 86.6292C19.7535 86.6304 18.5694 86.6305 17.3853 86.6303C16.898 86.6303 16.4108 86.6307 15.9236 86.6315C15.2615 86.6325 14.5995 86.6323 13.9374 86.6317C13.6442 86.6326 13.6442 86.6326 13.3449 86.6335C13.081 86.6329 13.081 86.6329 12.8117 86.6323C12.6587 86.6323 12.5057 86.6324 12.348 86.6325C12 86.6077 12 86.6077 11.8 86.4077C11.7364 85.9457 11.6846 85.4873 11.6399 85.0234C11.6253 84.8783 11.6106 84.7331 11.5955 84.5836C11.5467 84.0987 11.4991 83.6137 11.4516 83.1287C11.4175 82.7882 11.3833 82.4477 11.3491 82.1071C11.2585 81.2035 11.1689 80.2998 11.0795 79.3961C10.9386 77.9727 10.7961 76.5495 10.6538 75.1263C10.6016 74.6045 10.5498 74.0828 10.4979 73.561C10.3435 72.0121 10.1868 70.4636 10.0177 68.9162C9.98989 68.6612 9.96205 68.4062 9.93337 68.1435C9.8826 67.6829 9.83122 67.2223 9.77904 66.7619C9.63766 65.4853 9.545 64.2167 9.5125 62.9327C9.50793 62.7931 9.50337 62.6535 9.49866 62.5097C9.50544 61.2544 10.085 60.5724 10.875 59.6577C11.9944 58.6982 13.2223 58.7471 14.6245 58.7439C14.9263 58.7409 14.9263 58.7409 15.2342 58.7378C15.8994 58.7316 16.5645 58.7282 17.2297 58.7248C17.6963 58.7211 18.1629 58.7172 18.6294 58.7131C19.8606 58.7028 21.0917 58.6949 22.3228 58.6875C23.5585 58.6796 24.7941 58.6692 26.0297 58.6592C33.3894 58.6014 40.748 58.6001 48.1078 58.6444ZM32.6 71.0077C31.7168 72.14 31.4808 72.9775 31.6 74.4077C32.0576 75.9144 33.0411 76.6467 34.3539 77.4147C35.9898 78.1809 38.1243 78.0351 39.8 77.4827C41.0472 76.9537 41.9011 76.3187 42.5875 75.1452C42.8859 74.1097 43.0357 73.2057 42.6313 72.1795C41.9287 70.9358 40.9573 70.0714 39.6055 69.6006C37.1058 68.9347 34.5185 69.0984 32.6 71.0077Z" fill="#F78319"/>
<path id="Vector_2" d="M88.8 5.60759C89.6513 6.28836 90.4259 7.04152 91.2 7.80759C91.3454 7.94087 91.4908 8.07416 91.6406 8.21149C94.8465 11.2091 96.9945 15.9022 97.2249 20.2819C97.392 25.82 96.1285 30.7735 92.4 35.0076C92.1904 35.2605 92.1904 35.2605 91.9765 35.5185C88.9428 39.0857 84.616 41.3333 80 42.0076C73.4616 42.3957 68.3717 40.9663 63.4211 36.5896C59.8272 33.2948 57.4518 28.2874 57.2 23.4076C56.9768 17.7433 58.7571 12.5298 62.6008 8.34509C65.6206 5.15525 69.3057 3.11569 73.6 2.20759C73.7812 2.16917 73.9625 2.13076 74.1492 2.09118C79.3146 1.42767 84.5686 2.52657 88.8 5.60759ZM75.8 8.80759C75.7274 9.35607 75.7274 9.35607 75.7625 9.94509C75.7679 10.1439 75.7733 10.3426 75.7789 10.5474C75.7893 10.7752 75.7893 10.7752 75.8 11.0076C75.6886 11.0249 75.5772 11.0421 75.4625 11.0599C73.4638 11.4279 71.9105 12.5081 70.7422 14.1756C69.9167 15.6275 69.7987 17.3813 70.2304 18.9826C70.9958 20.9013 72.6731 22.0257 74.4983 22.8184C75.341 23.1362 76.2077 23.3109 77.0875 23.4951C80.8467 24.3382 80.8467 24.3382 81.8 25.8076C82.0874 26.6699 82.1653 27.5676 81.8429 28.4256C81.2852 29.3025 80.213 29.7865 79.2375 30.0701C77.3315 30.4535 75.7651 30.1914 74 29.4076C73.8553 29.3493 73.7107 29.2911 73.5617 29.231C73.1003 28.946 73.006 28.7053 72.8 28.2076C72.6294 27.8616 72.4585 27.5158 72.2875 27.1701C72.2006 26.994 72.1137 26.8179 72.0242 26.6365C71.8352 26.2228 71.8352 26.2228 71.6 26.0076C70.8384 25.9357 70.3647 25.9088 69.7 26.3076C69.3404 26.9069 69.3505 27.3003 69.4812 27.9802C69.9787 29.7705 71.1414 31.1428 72.7125 32.1295C73.6466 32.6136 74.5779 32.9632 75.6 33.2076C75.6028 33.3427 75.6056 33.4778 75.6086 33.617C75.661 34.7725 75.661 34.7725 76.2375 35.7451C76.94 36.0729 77.2682 36.0462 78 35.8076C78.3512 35.5721 78.3512 35.5721 78.6 35.2076C78.6724 34.705 78.6724 34.705 78.6375 34.1701C78.6321 33.9899 78.6266 33.8097 78.6211 33.624C78.6141 33.4866 78.6071 33.3492 78.6 33.2076C78.7523 33.1759 78.9047 33.1442 79.0617 33.1115C81.089 32.6534 82.9396 31.948 84.2 30.2076C85.0189 28.5866 85.214 27.2009 84.8125 25.4326C84.2232 23.673 82.9459 22.5218 81.35 21.6451C79.979 21.0089 78.5703 20.6617 77.092 20.362C75.7123 20.0762 74.4801 19.7237 73.5 18.6701C73.1128 17.815 73.0597 17.1314 73.2 16.2076C73.6124 15.2307 74.2664 14.6383 75.239 14.2177C76.7746 13.6858 78.167 13.6773 79.6625 14.3451C80.6527 14.897 81.2225 15.694 81.775 16.6701C82.1673 17.2688 82.1673 17.2688 82.9 17.4326C83.5981 17.4671 83.5981 17.4671 84.0875 17.0951C84.4913 16.4651 84.5034 16.1461 84.4 15.4076C83.832 13.8103 82.4735 12.4422 81.0195 11.6068C80.3031 11.2666 79.5617 11.0245 78.8 10.8076C78.7888 10.6266 78.7888 10.6266 78.7773 10.442C78.7202 9.74732 78.6556 9.1418 78.3875 8.49509C77.856 8.10078 77.4357 8.11964 76.7875 8.12087C76.2734 8.23591 76.0994 8.37374 75.8 8.80759Z" fill="#F78319"/>
<path id="Vector_3" d="M48.4125 16.1081C51.8645 19.0804 54.0422 22.9221 54.75 27.4331C55.0729 32.4373 53.8829 37.3795 50.5595 41.2561C47.5646 44.5538 43.2588 46.9768 38.763 47.233C33.4164 47.4122 28.9802 45.8945 24.9977 42.2636C23.5682 40.9223 22.5277 39.5467 21.6 37.8081C21.4558 37.5405 21.4558 37.5405 21.3086 37.2675C19.2688 33.1509 19.1381 28.3395 20.5125 24.0081C22.1536 19.2044 25.7013 15.6575 30.2 13.4081C30.9883 13.0767 31.7721 12.8207 32.6 12.6081C32.7743 12.5632 32.9486 12.5184 33.1281 12.4722C38.6036 11.3301 44.0893 12.579 48.4125 16.1081Z" fill="#F78319"/>
<path id="Vector_4" d="M6.85293 89.3324C7.07251 89.3309 7.29209 89.3293 7.51833 89.3277C7.76052 89.329 8.00272 89.3304 8.25225 89.3317C8.63706 89.3303 8.63706 89.3303 9.02964 89.3289C9.74316 89.3264 10.4566 89.3276 11.1702 89.3295C11.9391 89.3309 12.708 89.3288 13.4769 89.3271C14.9838 89.3244 16.4907 89.325 17.9976 89.3268C19.2219 89.3281 20.4463 89.3283 21.6706 89.3276C21.8446 89.3276 22.0187 89.3275 22.198 89.3274C22.5515 89.3272 22.905 89.327 23.2585 89.3268C26.576 89.3251 29.8935 89.327 33.211 89.3303C36.0595 89.3329 38.9081 89.3325 41.7566 89.3297C45.062 89.3265 48.3673 89.3252 51.6727 89.3271C52.0249 89.3273 52.3772 89.3275 52.7294 89.3276C52.9894 89.3278 52.9894 89.3278 53.2546 89.3279C54.478 89.3284 55.7013 89.3276 56.9246 89.3262C58.4148 89.3245 59.9049 89.3249 61.3951 89.3281C62.1559 89.3297 62.9166 89.3303 63.6774 89.3283C64.5009 89.3262 65.3243 89.3287 66.1478 89.3317C66.5111 89.3297 66.5111 89.3297 66.8817 89.3277C67.2111 89.33 67.2111 89.33 67.5471 89.3324C67.7373 89.3325 67.9275 89.3326 68.1235 89.3327C68.6 89.4079 68.6 89.4079 68.961 89.6642C69.3884 90.2788 69.285 91.0287 69.2797 91.7517C69.2803 91.9225 69.2808 92.0934 69.2814 92.2694C69.2818 92.6305 69.2807 92.9917 69.2782 93.3528C69.275 93.9059 69.2782 94.4587 69.282 95.0118C69.2816 95.3626 69.2809 95.7134 69.2797 96.0642C69.2809 96.2298 69.2821 96.3955 69.2834 96.5661C69.2694 97.7082 69.2694 97.7082 68.961 98.1517C68.4705 98.4999 68.1465 98.4829 67.5471 98.4829C67.3275 98.4843 67.1079 98.4858 66.8817 98.4872C66.5184 98.485 66.5184 98.485 66.1478 98.4828C65.763 98.484 65.763 98.484 65.3704 98.4852C64.6569 98.4873 63.9434 98.4857 63.2299 98.4834C62.4609 98.4817 61.692 98.4834 60.9231 98.4846C59.4162 98.4865 57.9093 98.4852 56.4024 98.4828C54.6488 98.48 52.8951 98.4804 51.1415 98.4808C48.0132 98.4814 44.8849 98.4791 41.7566 98.4752C38.7189 98.4714 35.6811 98.4699 32.6434 98.4711C29.338 98.4723 26.0327 98.4722 22.7273 98.47C22.3751 98.4697 22.0228 98.4695 21.6706 98.4692C21.4973 98.4691 21.324 98.469 21.1454 98.4689C19.9221 98.4681 18.6987 98.4682 17.4754 98.4686C15.9852 98.469 14.4951 98.4679 13.0049 98.465C12.2442 98.4636 11.4834 98.4628 10.7226 98.4637C9.89916 98.4647 9.07572 98.4625 8.25225 98.4601C7.88896 98.4612 7.88896 98.4612 7.51833 98.4624C7.18896 98.4606 7.18896 98.4606 6.85293 98.4588C6.66271 98.4587 6.47249 98.4585 6.27651 98.4583C5.80001 98.4079 5.80001 98.4079 5.20001 98.0079C5.13921 97.4048 5.11603 96.8435 5.12032 96.24C5.11974 96.0644 5.11917 95.8888 5.11858 95.7079C5.11817 95.3362 5.11928 94.9645 5.12178 94.5927C5.12499 94.0234 5.12182 93.4543 5.11797 92.8849C5.11837 92.5241 5.11914 92.1633 5.12032 91.8025C5.1191 91.6318 5.11789 91.4612 5.11664 91.2854C5.13066 90.108 5.13066 90.108 5.43905 89.6629C5.92949 89.3165 6.25452 89.3327 6.85293 89.3324Z" fill="#F78319"/>
<path id="Vector_5" d="M45.6 49.8075C45.74 49.8361 45.8801 49.8646 46.0244 49.8941C49.637 50.6541 52.9645 52.3561 56.0311 54.3658C56.2745 54.5253 56.5196 54.6821 56.7665 54.8359C57.0512 55.016 57.3268 55.2104 57.6 55.4075C57.6 55.5395 57.6 55.6715 57.6 55.8075C55.3322 55.9938 53.0822 56.0352 50.8078 56.0302C50.437 56.0302 50.0661 56.0302 49.6952 56.0303C48.6979 56.0304 47.7006 56.0292 46.7033 56.0278C45.6575 56.0266 44.6117 56.0264 43.5659 56.0262C41.5898 56.0256 39.6137 56.0239 37.6375 56.0219C35.386 56.0197 33.1345 56.0186 30.8829 56.0176C26.2553 56.0155 21.6276 56.012 17 56.0075C16.901 55.7105 16.901 55.7105 16.8 55.4075C25.4808 49.3987 35.2662 47.636 45.6 49.8075Z" fill="#F78319"/>
<path id="Vector_6" d="M6.79998 67.0078C7.30924 67.5171 7.2826 67.7747 7.35554 68.4838C7.37954 68.7088 7.40353 68.9338 7.42826 69.1656C7.45244 69.4098 7.47662 69.6539 7.50154 69.9055C7.52761 70.1556 7.55368 70.4057 7.58054 70.6633C7.63547 71.1934 7.68974 71.7234 7.74285 72.2537C7.81078 72.9317 7.88067 73.6095 7.95132 74.2873C8.01875 74.9349 8.08516 75.5827 8.15154 76.2305C8.18903 76.5949 8.18903 76.5949 8.22728 76.9667C8.25001 77.1935 8.27275 77.4204 8.29617 77.6542C8.31628 77.8532 8.33639 78.0523 8.35711 78.2575C8.39771 78.7787 8.4225 79.2854 8.39998 79.8078C7.9304 80.2774 6.7801 80.0545 6.14998 80.0578C5.95894 80.0619 5.7679 80.0661 5.57107 80.0703C4.7915 80.0746 4.11833 80.041 3.3656 79.8297C2.84253 79.2261 2.89216 78.7576 2.93259 77.9776C3.04981 76.9864 3.27185 76.0348 3.52498 75.0703C3.57912 74.8599 3.63326 74.6494 3.68904 74.4326C5.24527 68.5625 5.24527 68.5625 6.79998 67.0078Z" fill="#F78319"/>
<path id="Vector_7" d="M67.4 67.208C67.532 67.208 67.664 67.208 67.8 67.208C69.6169 70.8135 71.7458 75.2577 71.4 79.408C70.7754 80.0326 70.1534 80.0333 69.2976 80.0346C69.1297 80.0348 68.9617 80.0351 68.7887 80.0354C68.5282 80.0342 68.5282 80.0342 68.2625 80.033C68.0865 80.0338 67.9106 80.0346 67.7293 80.0354C67.5621 80.0351 67.3949 80.0348 67.2226 80.0346C67.0696 80.0343 66.9165 80.0341 66.7588 80.0339C66.4 80.008 66.4 80.008 66.2 79.808C66.1023 78.2913 66.2525 76.7775 66.4117 75.2705C66.4334 75.0575 66.4551 74.8445 66.4775 74.6251C66.5232 74.1793 66.5695 73.7336 66.6162 73.288C66.6879 72.6044 66.7575 71.9207 66.8269 71.2369C66.8717 70.8023 66.9167 70.3676 66.9617 69.933C66.9825 69.7286 67.0034 69.5243 67.0249 69.3137C67.0549 69.0301 67.0549 69.0301 67.0855 68.7408C67.1028 68.5747 67.1201 68.4086 67.138 68.2374C67.2 67.808 67.2 67.808 67.4 67.208Z" fill="#F78319"/>
<path id="Vector_8" d="M62.8 80.4082C62.866 80.4082 62.932 80.4082 63 80.4082C63.0443 81.757 62.9523 83.0681 62.8125 84.4082C62.7952 84.5781 62.7778 84.7479 62.7599 84.9229C62.7425 85.0831 62.725 85.2432 62.7071 85.4082C62.6914 85.5526 62.6756 85.697 62.6595 85.8457C62.6 86.2082 62.6 86.2082 62.4 86.6082C55.9828 86.6128 49.5655 86.6163 43.1483 86.6184C42.3914 86.6187 41.6346 86.6189 40.8778 86.6192C40.7271 86.6192 40.5765 86.6193 40.4212 86.6193C37.9783 86.6202 35.5354 86.6218 33.0925 86.6236C30.5877 86.6255 28.0829 86.6266 25.5781 86.627C24.0313 86.6273 22.4844 86.6282 20.9376 86.6298C19.7535 86.631 18.5694 86.6311 17.3853 86.6308C16.8981 86.6309 16.4108 86.6313 15.9236 86.632C15.2615 86.633 14.5995 86.6328 13.9375 86.6323C13.6442 86.6331 13.6442 86.6331 13.345 86.634C13.081 86.6334 13.081 86.6334 12.8118 86.6328C12.6587 86.6329 12.5057 86.633 12.348 86.633C12 86.6082 12 86.6082 11.8 86.4082C11.6056 85.069 11.5773 83.7598 11.6 82.4082C11.666 82.4082 11.732 82.4082 11.8 82.4082C11.932 83.6622 12.064 84.9162 12.2 86.2082C28.7 86.2082 45.2 86.2082 62.2 86.2082C62.398 84.2942 62.596 82.3802 62.8 80.4082Z" fill="#F78319"/>
<path id="Vector_9" d="M16.8 55.4082C30.264 55.4082 43.728 55.4082 57.6 55.4082C57.6 55.5402 57.6 55.6722 57.6 55.8082C55.3322 55.9945 53.0822 56.0358 50.8078 56.0309C50.437 56.0309 50.0661 56.0309 49.6952 56.031C48.6979 56.0311 47.7006 56.0299 46.7033 56.0285C45.6575 56.0272 44.6117 56.0271 43.5659 56.0269C41.5898 56.0263 39.6137 56.0246 37.6375 56.0226C35.386 56.0204 33.1345 56.0193 30.8829 56.0183C26.2553 56.0162 21.6276 56.0127 17 56.0082C16.934 55.8102 16.868 55.6122 16.8 55.4082Z" fill="#F78319"/>
<path id="Vector_10" d="M6.79999 67.0078C6.86599 67.0078 6.93199 67.0078 6.99999 67.0078C7.06731 67.7484 7.09546 68.0869 6.62499 68.6828C6.19999 69.0078 6.19999 69.0078 5.79999 69.0078C6.02995 68.2295 6.25842 67.62 6.79999 67.0078Z" fill="#F78319"/>
<path id="Vector_11" d="M67.4 67.208C67.532 67.208 67.664 67.208 67.8 67.208C67.866 67.472 67.932 67.736 68 68.008C67.802 68.107 67.802 68.107 67.6 68.208C67.4689 68.7135 67.4689 68.7135 67.4 69.208C67.334 69.208 67.268 69.208 67.2 69.208C67.175 67.883 67.175 67.883 67.4 67.208Z" fill="#F78319"/>
</g>
</svg>
