<svg width="100" height="101" viewBox="0 0 100 101" fill="none" xmlns="http://www.w3.org/2000/svg">
<g id="house-cleaning-removebg-preview 1">
<path id="Vector" d="M49.8 1.60742C50.3791 1.871 50.8061 2.15872 51.2656 2.59727C51.391 2.71591 51.5163 2.83455 51.6455 2.95679C51.779 3.08487 51.9125 3.21296 52.05 3.34492C52.3377 3.61786 52.6255 3.89078 52.9133 4.16367C53.0603 4.30366 53.2073 4.44366 53.3587 4.58789C54.0485 5.24362 54.7429 5.89431 55.4375 6.54492C55.5709 6.67001 55.7042 6.7951 55.8416 6.92397C56.7615 7.78627 57.6866 8.64281 58.6143 9.49673C59.6083 10.4127 60.5944 11.3371 61.5796 12.2625C62.2588 12.9003 62.9387 13.5372 63.6211 14.1715C63.8205 14.357 63.8205 14.357 64.0239 14.5462C64.2734 14.7781 64.5231 15.0098 64.773 15.2413C65.601 16.0115 66.4051 16.803 67.2 17.6074C66.9873 18.0486 66.7844 18.428 66.4875 18.8199C66.0431 19.4189 65.9748 19.9268 65.9723 20.6496C65.9712 20.8222 65.9701 20.9948 65.9689 21.1726C65.9688 21.3623 65.9686 21.552 65.9684 21.7474C65.9669 22.0495 65.9669 22.0495 65.9654 22.3578C65.9623 23.0358 65.9606 23.7139 65.9589 24.3919C65.957 24.8768 65.955 25.3616 65.9529 25.8464C65.9486 26.8917 65.945 27.9371 65.9418 28.9825C65.9373 30.4939 65.9316 32.0054 65.9258 33.5168C65.9162 35.9689 65.9076 38.4211 65.8995 40.8732C65.8916 43.2554 65.8833 45.6376 65.8745 48.0199C65.8736 48.2401 65.8736 48.2401 65.8728 48.4647C65.8701 49.2012 65.8673 49.9376 65.8646 50.6741C65.8418 56.7852 65.8204 62.8963 65.8 69.0074C65.438 69.0368 65.438 69.0368 65.0688 69.0668C64.7458 69.0968 64.4229 69.1271 64.1 69.1574C63.8626 69.176 63.8626 69.176 63.6203 69.1949C61.937 69.3605 60.6037 70.0037 59.4 71.2074C58.5779 72.4473 58.1322 73.405 58.2914 74.8988C58.6482 80.5742 56.1084 85.4826 53.8771 90.573C53.4312 91.5938 52.994 92.6183 52.5563 93.6426C52.3067 94.225 52.0571 94.8074 51.8 95.4074C54.242 95.4074 56.684 95.4074 59.2 95.4074C59.266 94.8134 59.332 94.2194 59.4 93.6074C59.4853 93.1149 59.5768 92.6233 59.675 92.1332C59.7009 92.0035 59.7268 91.8738 59.7534 91.7402C59.8075 91.4701 59.862 91.2001 59.9168 90.9301C60.0008 90.5161 60.0833 90.1018 60.1656 89.6875C60.5726 87.6622 60.5726 87.6622 60.8 87.2074C61.2167 87.2694 61.6334 87.3321 62.05 87.3949C62.398 87.4471 62.398 87.4471 62.7531 87.5004C63.2472 87.5821 63.7166 87.682 64.2 87.8074C64.0886 89.4848 63.7512 91.0937 63.3875 92.7324C63.3305 92.9931 63.2736 93.2537 63.2168 93.5144C63.0789 94.1457 62.9396 94.7766 62.8 95.4074C64.186 95.3414 65.572 95.2754 67 95.2074C67 92.6994 67 90.1914 67 87.6074C68.122 87.6074 69.244 87.6074 70.4 87.6074C70.4 90.1814 70.4 92.7554 70.4 95.4074C71.852 95.4074 73.304 95.4074 74.8 95.4074C74.6735 94.8358 74.6735 94.8358 74.5445 94.2527C74.4624 93.8767 74.3802 93.5007 74.2983 93.1247C74.2144 92.7409 74.1293 92.3574 74.0441 91.9738C73.7419 90.5826 73.5072 89.2274 73.4 87.8074C74.456 87.6094 75.512 87.4114 76.6 87.2074C77.0274 88.8271 77.3909 90.4562 77.7375 92.0949C77.7828 92.3058 77.8281 92.5167 77.8748 92.734C77.9169 92.9353 77.959 93.1367 78.0023 93.3441C78.0404 93.5247 78.0785 93.7053 78.1177 93.8914C78.2 94.4074 78.2 94.4074 78.2 95.4074C80.642 95.4074 83.084 95.4074 85.6 95.4074C85.2494 94.5329 84.8988 93.6584 84.5375 92.7574C83.8872 91.1339 83.2384 89.5099 82.6 87.8816C82.4589 87.5221 82.4589 87.5221 82.315 87.1554C82.13 86.6817 81.9462 86.2075 81.7635 85.7329C81.3929 84.7748 81.0257 83.8286 80.5586 82.9129C79.5214 80.8374 79.4456 78.8312 79.4522 76.5435C79.4548 74.4031 79.2565 72.4827 77.6867 70.8894C75.9322 69.2841 74.2479 69.2954 71.8 69.0074C71.8 53.4974 71.8 37.9874 71.8 22.0074C72.8347 22.7835 73.7236 23.4788 74.6 24.3949C75.3619 25.1851 76.15 25.9221 76.9806 26.6401C77.6995 27.2697 78.3928 27.9263 79.0875 28.5824C79.2365 28.7228 79.3855 28.8631 79.539 29.0078C80.4495 29.8681 81.342 30.7431 82.2219 31.6348C82.7153 32.1211 83.2343 32.5721 83.7594 33.0238C84.7248 33.8643 85.6601 34.7386 86.6 35.6074C86.7207 35.7188 86.8413 35.8301 86.9656 35.9448C88.2502 37.1315 89.5255 38.321 90.75 39.5699C91.5958 40.427 92.4885 41.178 93.4305 41.9262C94.2013 42.5775 94.904 43.2863 95.6058 44.0105C96.0534 44.4708 96.4629 44.8494 97 45.2074C97 45.3394 97 45.4714 97 45.6074C95.416 45.6074 93.832 45.6074 92.2 45.6074C92.2 63.1634 92.2 80.7194 92.2 98.8074C74.116 98.8074 56.032 98.8074 37.4 98.8074C37.4 88.4454 37.4 78.0834 37.4 67.4074C31.262 67.4074 25.124 67.4074 18.8 67.4074C18.8 77.7694 18.8 88.1314 18.8 98.8074C15.17 98.8074 11.54 98.8074 7.8 98.8074C7.8 82.2414 7.8 65.6754 7.8 48.6074C14.466 48.6074 21.132 48.6074 28 48.6074C28 47.6174 28 46.6274 28 45.6074C19.75 45.6074 11.5 45.6074 3 45.6074C3.22288 44.9388 3.39494 44.7954 3.925 44.3574C4.46361 43.9017 4.97386 43.4412 5.4625 42.9324C5.99003 42.3943 6.54274 41.9322 7.1375 41.4699C8.50841 40.3713 9.71944 39.1142 10.9486 37.8616C11.8119 36.984 12.6841 36.1383 13.619 35.3372C14.2634 34.7794 14.8799 34.192 15.5 33.6074C17.0372 32.1636 17.0372 32.1636 17.8375 31.4824C18.6394 30.7941 19.3723 30.0404 20.1145 29.2891C20.7892 28.6091 21.485 27.9698 22.2148 27.3488C22.6623 26.9522 23.0801 26.533 23.5 26.1074C24.0269 25.5742 24.5565 25.0584 25.125 24.5699C26.4557 23.426 27.7209 22.2083 29 21.0074C29.5416 20.499 30.0833 19.9907 30.625 19.4824C30.7592 19.3565 30.8934 19.2305 31.0316 19.1008C31.9548 18.2351 32.8831 17.3752 33.8143 16.5182C34.8097 15.6008 35.7971 14.675 36.784 13.7484C37.8056 12.7893 38.8297 11.833 39.8547 10.8777C40.6787 10.1091 41.4994 9.33699 42.3189 8.56357C43.5291 7.42147 44.7446 6.28964 45.9875 5.1832C46.4944 4.72142 46.9738 4.23653 47.4539 3.74727C47.9686 3.24191 48.5131 2.77322 49.0602 2.30352C49.3155 2.08108 49.5606 1.84686 49.8 1.60742ZM51.6 20.8074C51.6 23.2494 51.6 25.6914 51.6 28.2074C53.646 28.2074 55.692 28.2074 57.8 28.2074C57.337 25.661 56.6738 23.6203 54.5148 22.0559C53.5225 21.4324 52.7638 21.1399 51.6 20.8074ZM44.4 23.0074C42.9999 24.674 42.468 26.0634 42.2 28.2074C44.246 28.2074 46.292 28.2074 48.4 28.2074C48.4 25.7654 48.4 23.3234 48.4 20.8074C46.9587 20.8074 45.3736 22.0591 44.4 23.0074ZM42.2 31.6074C42.2 33.5874 42.2 35.5674 42.2 37.6074C44.246 37.6074 46.292 37.6074 48.4 37.6074C48.4 35.6274 48.4 33.6474 48.4 31.6074C46.354 31.6074 44.308 31.6074 42.2 31.6074ZM51.6 31.6074C51.6 33.5874 51.6 35.5674 51.6 37.6074C53.646 37.6074 55.692 37.6074 57.8 37.6074C57.8 35.6274 57.8 33.6474 57.8 31.6074C55.754 31.6074 53.708 31.6074 51.6 31.6074ZM51.4 55.6074C51.3273 55.791 51.2546 55.9745 51.1797 56.1637C50.031 59.0006 48.5922 60.7658 45.7867 62.0988C45.3278 62.2836 44.8707 62.4555 44.4 62.6074C44.84 63.0474 45.1068 63.1336 45.6875 63.3324C48.0396 64.2569 49.6477 65.7879 50.707 68.0684C50.9503 68.6442 51.1816 69.2217 51.4 69.8074C51.9843 69.5153 52.004 69.1265 52.225 68.5199C53.2998 65.8815 55.1337 64.3113 57.725 63.2199C58.0824 63.0799 58.4404 62.9415 58.8 62.8074C58.323 62.3304 57.9316 62.2152 57.3 61.9824C54.2329 60.7284 52.8608 58.5403 51.6 55.6074C51.534 55.6074 51.468 55.6074 51.4 55.6074Z" fill="#F78319"/>
<path id="Vector_2" d="M23.4 81.4072C24.456 81.4072 25.512 81.4072 26.6 81.4072C26.6 82.4632 26.6 83.5192 26.6 84.6072C25.544 84.6072 24.488 84.6072 23.4 84.6072C23.4 83.5512 23.4 82.4952 23.4 81.4072Z" fill="#F78319"/>
</g>
</svg>
