<svg width="100" height="101" viewBox="0 0 100 101" fill="none" xmlns="http://www.w3.org/2000/svg">
<g id="idea__1_-removebg-preview 1" clip-path="url(#clip0_56_1845)">
<path id="Vector" d="M56.918 55.8152C59.0614 57.6428 60.5812 59.9751 61 62.8082C61.2069 66.4775 60.3285 69.4751 57.882 72.3136C56.4839 73.748 54.858 74.5154 53 75.2082C53.1841 75.252 53.3681 75.2958 53.5578 75.341C58.8318 76.6622 63.0637 79.4623 66.0375 84.0582C68.1189 87.5535 68.8317 91.2074 68.85 95.2332C68.8562 95.5754 68.8562 95.5754 68.8625 95.9246C68.8683 97.1743 68.8315 98.1161 68.2 99.2082C67.265 100.075 66.7429 100.233 65.4844 100.238C65.3477 100.238 65.211 100.239 65.0701 100.24C64.6098 100.242 64.1495 100.243 63.6892 100.244C63.3601 100.245 63.031 100.246 62.7018 100.248C61.8059 100.251 60.91 100.253 60.0141 100.255C59.4546 100.256 58.895 100.257 58.3354 100.258C56.5852 100.262 54.835 100.265 53.0847 100.267C51.0635 100.269 49.0423 100.274 47.021 100.282C45.4594 100.288 43.8978 100.291 42.3361 100.292C41.4031 100.292 40.4702 100.294 39.5372 100.299C38.6593 100.304 37.7814 100.304 36.9035 100.302C36.5815 100.302 36.2595 100.303 35.9375 100.306C35.4973 100.31 35.0574 100.308 34.6172 100.306C34.371 100.306 34.1249 100.307 33.8713 100.307C32.9532 100.172 32.3073 99.775 31.7109 99.0631C31.1081 97.8695 31.0843 96.7662 31.1125 95.4457C31.1154 95.2255 31.1184 95.0054 31.1214 94.7785C31.2485 89.196 32.9785 84.2155 36.9984 80.2113C37.3873 79.8584 37.7854 79.5303 38.2 79.2082C38.3426 79.096 38.4851 78.9839 38.632 78.8683C40.9182 77.1699 43.4405 76.0682 46.2 75.4082C46.3578 75.3687 46.5155 75.3293 46.6781 75.2886C46.7843 75.2621 46.8905 75.2355 47 75.2082C46.8523 75.1545 46.7045 75.1009 46.5523 75.0457C43.4362 73.842 41.3015 71.9924 39.9023 68.9535C38.647 66.0143 38.7191 62.9289 39.8437 59.966C41.1357 57.174 43.3592 55.1025 46.2211 54.0082C49.9765 52.7108 53.7999 53.365 56.918 55.8152Z" fill="#F78319"/>
<path id="Vector_2" d="M88.1469 55.6228C90.6938 57.834 92.1594 60.4137 92.4508 63.7978C92.5716 66.9676 91.5919 69.6282 89.5625 72.0455C88.2386 73.463 86.6535 74.4453 84.8 75.008C84.602 75.008 84.404 75.008 84.2 75.008C84.2 75.14 84.2 75.272 84.2 75.408C84.3119 75.4108 84.4238 75.4136 84.5391 75.4165C88.003 75.6226 91.2621 77.5357 93.8 79.808C94.068 80.0477 94.068 80.0477 94.3414 80.2923C97.4061 83.1898 99.7882 87.3206 100.022 91.6039C100.033 92.0308 100.038 92.4574 100.041 92.8845C100.042 93.04 100.043 93.1954 100.044 93.3556C100.046 93.682 100.047 94.0084 100.048 94.3348C100.05 94.833 100.056 95.3309 100.063 95.829C100.064 96.1475 100.065 96.466 100.066 96.7845C100.068 96.9325 100.071 97.0804 100.073 97.2328C100.069 98.1333 99.9783 98.7086 99.4 99.408C98.295 100.391 97.2562 100.317 95.8239 100.299C95.5858 100.299 95.3476 100.299 95.1022 100.299C94.4518 100.299 93.8016 100.295 93.1513 100.289C92.4706 100.284 91.79 100.284 91.1093 100.283C89.8216 100.28 88.5339 100.274 87.2462 100.266C85.7797 100.257 84.3132 100.252 82.8467 100.248C79.8311 100.24 76.8156 100.226 73.8 100.208C73.8282 100.087 73.8565 99.965 73.8856 99.8399C73.9222 99.6795 73.9588 99.519 73.9966 99.3537C74.0331 99.1951 74.0695 99.0365 74.1071 98.8731C74.3387 97.7132 74.2689 96.5112 74.2625 95.333C74.2621 95.1908 74.2616 95.0487 74.2612 94.9023C74.2367 89.8746 73.2982 84.2274 69.9266 80.2494C69.6 79.808 69.6 79.808 69.5703 79.4009C69.9283 78.7884 70.4836 78.481 71.075 78.1205C71.2018 78.0415 71.3287 77.9626 71.4593 77.8812C73.6065 76.5689 75.9196 75.6656 78.4 75.208C78.2476 75.1497 78.0953 75.0914 77.9383 75.0314C74.9803 73.8571 72.9048 72.2532 71.4 69.408C70.239 66.5669 69.9494 63.5332 71 60.608C72.2678 57.6071 73.9684 55.57 77.0125 54.2455C80.8066 52.7817 84.849 53.1211 88.1469 55.6228Z" fill="#F78319"/>
<path id="Vector_3" d="M25.4 55.6082C27.5123 57.3244 29.2434 59.8628 29.6 62.6082C29.9195 66.3373 29.0431 69.2503 26.65 72.1582C25.3194 73.5969 23.6033 74.4913 21.8 75.2082C21.9911 75.2543 22.1821 75.3005 22.3789 75.348C25.3152 76.0791 28.05 77.2555 30.4 79.2082C30.2707 79.982 29.8996 80.5191 29.475 81.1707C28.2302 83.1485 27.2762 85.1687 26.6375 87.4207C26.5791 87.6255 26.5791 87.6255 26.5194 87.8345C25.8798 90.2491 25.7354 92.6702 25.75 95.1582C25.7486 95.4272 25.747 95.6962 25.7453 95.9652C25.7459 96.2259 25.7464 96.4865 25.7469 96.7551C25.7476 97.1022 25.7476 97.1022 25.7483 97.4564C25.7914 98.0824 25.8769 98.6434 26.0033 99.2552C26.0582 99.5234 26.0582 99.5234 26.1143 99.7971C26.1426 99.9328 26.1709 100.068 26.2 100.208C23.0689 100.227 19.9378 100.241 16.8067 100.25C15.3528 100.254 13.8989 100.259 12.445 100.269C11.1774 100.277 9.90992 100.282 8.64235 100.283C7.97146 100.284 7.30065 100.287 6.62979 100.293C5.87996 100.299 5.13029 100.299 4.38044 100.299C4.15919 100.302 3.93794 100.305 3.70998 100.308C2.42944 100.301 1.63662 100.182 0.600024 99.4082C-0.0126977 98.5171 -0.0768815 97.7756 -0.0796632 96.709C-0.0802372 96.5668 -0.0808112 96.4247 -0.0814027 96.2783C-0.0818094 95.9779 -0.0807135 95.6775 -0.0781983 95.3772C-0.0750283 94.9281 -0.0781501 94.4795 -0.0820069 94.0305C-0.0898522 88.7608 1.80011 84.3412 5.42502 80.5082C8.33997 77.6831 11.7294 76.2363 15.6 75.2082C15.4523 75.1546 15.3046 75.1009 15.1524 75.0457C12.0069 73.8307 9.78923 71.8906 8.40002 68.8082C7.31136 65.8514 7.35893 62.672 8.52502 59.7457C9.84632 56.9216 11.9279 55.1067 14.8352 54.0012C18.4947 52.751 22.2595 53.3444 25.4 55.6082Z" fill="#F78319"/>
<path id="Vector_4" d="M49.9625 0.145803C50.1721 0.146641 50.3817 0.147479 50.5977 0.148342C52.874 0.181405 54.9726 0.518634 57 1.6083C57.1596 1.69235 57.3192 1.7764 57.4836 1.86299C61.5534 4.14714 64.0043 7.83688 65.2938 12.2182C66.3156 15.9718 65.5649 20.0141 63.7703 23.3856C63.1399 24.4456 62.386 25.3592 61.5844 26.2919C60.2452 27.8915 59.5886 29.3341 59.4 31.4083C59.0293 31.779 58.5029 31.6336 58.0097 31.6354C57.7531 31.6348 57.7531 31.6348 57.4914 31.6342C57.3122 31.6345 57.1331 31.6349 56.9485 31.6352C56.3531 31.6361 55.7578 31.6355 55.1625 31.6349C54.7507 31.635 54.339 31.6352 53.9272 31.6354C53.063 31.6357 52.1988 31.6353 51.3346 31.6344C50.2241 31.6332 49.1137 31.6339 48.0033 31.6351C47.1526 31.6358 46.302 31.6356 45.4513 31.6351C45.0418 31.6349 44.6322 31.6351 44.2226 31.6356C43.6513 31.6361 43.0799 31.6353 42.5086 31.6342C42.3376 31.6346 42.1666 31.635 41.9904 31.6354C40.8229 31.6312 40.8229 31.6312 40.6 31.4083C40.5452 31.0799 40.4962 30.7505 40.45 30.4208C40.1176 28.5891 39.3636 27.3549 38.1375 25.9708C35.2684 22.7204 34.1917 18.7735 34.3659 14.4852C34.6083 11.0944 36.0861 7.68478 38.4 5.2083C38.5498 5.04047 38.6996 4.87263 38.8539 4.69971C41.8404 1.51059 45.6701 0.12222 49.9625 0.145803Z" fill="#F78319"/>
<path id="Vector_5" d="M40.8 37.0078C46.872 37.0078 52.944 37.0078 59.2 37.0078C59.6441 38.784 59.0449 41.0038 58.2 42.6078C56.598 44.7881 54.481 46.3792 51.7969 46.932C49.0425 47.2817 46.5065 46.787 44.2 45.2078C41.9846 43.4466 41.1181 41.2123 40.6696 38.5016C40.6 37.8078 40.6 37.8078 40.8 37.0078Z" fill="#F78319"/>
<path id="Vector_6" d="M30.1625 25.8575C31.0025 26.9134 31.2801 27.6109 31.143 28.9388C30.7443 30.2461 29.6905 31.1902 28.75 32.1325C28.624 32.2635 28.4979 32.3945 28.368 32.5294C27.3525 33.5511 26.3503 34.3004 24.9 34.5075C24.0176 34.3815 23.3306 34.1204 22.6 33.6075C22.2125 33.0825 22.2125 33.0825 22 32.6075C21.934 32.4755 21.868 32.3435 21.8 32.2075C21.6947 30.9647 21.86 30.2357 22.6 29.2075C23.1873 28.5229 23.8132 27.8834 24.45 27.245C24.6143 27.0735 24.7785 26.9019 24.9477 26.7251C26.5013 25.1605 28.2523 24.3293 30.1625 25.8575Z" fill="#F78319"/>
<path id="Vector_7" d="M71.85 25.1457C72.0367 25.1382 72.2233 25.1308 72.4156 25.123C73.8953 25.3387 74.9312 26.6725 75.9375 27.6832C76.0892 27.8317 76.241 27.9802 76.3973 28.1332C77.2657 29.0008 78.0451 29.7822 78.2797 31.0332C78.2681 31.9637 78.1388 32.6179 77.6 33.4082C76.5364 34.2281 75.7432 34.5183 74.4 34.4082C73.0034 33.8401 72.0847 33.015 71.0375 31.9457C70.8876 31.7989 70.7377 31.6521 70.5832 31.5008C69.6259 30.5366 68.9233 29.7204 68.736 28.334C68.8592 27.0302 69.4403 26.2771 70.4 25.4082C70.9058 25.1553 71.285 25.1604 71.85 25.1457Z" fill="#F78319"/>
<path id="Vector_8" d="M76.4 0.207764C77.1952 0.602722 77.6422 1.14027 78.0875 1.89526C78.3883 3.26591 78.1462 4.23739 77.4 5.40776C76.8694 6.03808 76.2917 6.61015 75.7 7.18276C75.5481 7.33436 75.3963 7.48595 75.2398 7.64214C74.145 8.71969 73.3891 9.32961 71.8 9.40776C70.8829 9.23582 70.194 8.99187 69.5125 8.34526C68.9483 7.37498 68.6615 6.55486 68.8601 5.41636C69.1496 4.57055 69.7764 4.02643 70.4 3.40776C70.6488 3.15429 70.8975 2.90062 71.146 2.64683C71.6801 2.10504 72.2149 1.56415 72.7539 1.0273C72.8685 0.912842 72.9832 0.79839 73.1014 0.680469C73.9724 -0.115103 75.3026 0.0692877 76.4 0.207764Z" fill="#F78319"/>
<path id="Vector_9" d="M26 0.207687C27.1659 0.823083 28.0131 1.74711 28.9375 2.67019C29.1109 2.83867 29.2843 3.00715 29.4629 3.18073C29.7114 3.42804 29.7114 3.42804 29.9649 3.68034C30.1156 3.82944 30.2663 3.97854 30.4217 4.13215C30.9301 4.77113 31.1784 5.41543 31.2235 6.23269C31.0984 7.20115 30.8422 7.84065 30.2 8.60769C29.252 9.33122 28.4218 9.44986 27.25 9.33269C26.0573 8.99419 25.2579 8.05627 24.4 7.20769C24.2353 7.05506 24.0705 6.90244 23.9008 6.74519C22.7446 5.65163 21.9072 4.69574 21.7125 3.08269C21.8577 1.9628 22.2907 1.09757 23.1985 0.390499C24.0691 -0.00587428 25.0728 0.0579254 26 0.207687Z" fill="#F78319"/>
<path id="Vector_10" d="M78.3319 14.1493C78.6092 14.147 78.8866 14.1429 79.1639 14.137C82.0647 14.0751 82.0647 14.0751 83.2 15.0084C83.7731 15.7049 83.9806 16.447 84.0875 17.3334C83.9412 18.4623 83.4906 19.2959 82.6 20.0084C81.3111 20.5188 80.0935 20.4819 78.725 20.4834C78.4863 20.4883 78.2476 20.4932 78.0016 20.4982C76.5697 20.503 75.6091 20.3953 74.4 19.6084C73.6483 18.7602 73.3479 17.9304 73.4 16.8084C73.7389 15.6323 74.2321 15.094 75.2 14.4084C76.2121 14.071 77.272 14.1554 78.3319 14.1493Z" fill="#F78319"/>
<path id="Vector_11" d="M20.8032 14.115C21.2123 14.1208 21.6209 14.1191 22.0301 14.1165C23.658 14.127 24.7496 14.1724 25.9625 15.3583C26.5414 16.2184 26.7097 16.8407 26.5109 17.8692C26.2265 18.8662 25.9265 19.4697 25 20.0083C23.728 20.4999 22.56 20.4746 21.2125 20.4708C20.8662 20.4756 20.8662 20.4756 20.5129 20.4806C19.1056 20.4814 17.9611 20.4636 16.8515 19.5083C16.1017 18.5154 15.8979 17.8531 16 16.6083C16.3183 15.5806 16.7371 14.8895 17.717 14.3658C18.7133 14.0409 19.765 14.0989 20.8032 14.115Z" fill="#F78319"/>
<path id="Vector_12" d="M40.8 37.0078C46.872 37.0078 52.944 37.0078 59.2 37.0078C59.4109 37.8512 59.3563 38.312 59.2125 39.1578C59.1736 39.3919 59.1347 39.626 59.0946 39.8672C59.0478 40.1348 59.0478 40.1348 59 40.4078C58.934 40.4078 58.868 40.4078 58.8 40.4078C58.7815 39.3488 58.847 38.4794 59 37.4078C52.994 37.4078 46.988 37.4078 40.8 37.4078C40.8 37.2758 40.8 37.1438 40.8 37.0078Z" fill="#F78319"/>
<path id="Vector_13" d="M13.2 74.0078C13.9541 74.1386 14.6312 74.3606 15.35 74.6203C17.6009 75.3188 19.8956 75.2216 22.1359 74.5195C22.6 74.4078 22.6 74.4078 23.2 74.6078C22.738 74.8058 22.276 75.0038 21.8 75.2078C22.064 75.3398 22.328 75.4718 22.6 75.6078C22.435 75.6057 22.27 75.6036 22.1 75.6015C17.7333 75.5305 17.7333 75.5305 13.4 76.0078C14.1374 75.5162 14.7394 75.4053 15.6 75.2078C14.808 74.8778 14.016 74.5478 13.2 74.2078C13.2 74.1418 13.2 74.0758 13.2 74.0078Z" fill="#F78319"/>
<path id="Vector_14" d="M29.6 25.4082C29.699 25.6062 29.699 25.6062 29.8 25.8082C29.6938 25.7755 29.5876 25.7427 29.4781 25.709C28.8923 25.5855 28.3484 25.5892 27.75 25.5957C27.4267 25.5984 27.4267 25.5984 27.0969 25.6012C26.8509 25.6046 26.8509 25.6046 26.6 25.6082C26.5499 25.7232 26.4997 25.8383 26.4481 25.9568C26.1666 26.4691 25.8437 26.8163 25.4313 27.2301C25.281 27.3809 25.1307 27.5317 24.9758 27.6871C24.8188 27.8426 24.6618 27.998 24.5 28.1582C24.343 28.3168 24.186 28.4753 24.0242 28.6387C23.8739 28.7885 23.7236 28.9382 23.5688 29.0926C23.431 29.2299 23.2932 29.3673 23.1512 29.5088C22.8 29.8082 22.8 29.8082 22.4 29.8082C22.8687 28.7379 23.715 28.0036 24.525 27.1832C24.6815 27.0185 24.838 26.8537 24.9992 26.684C26.4541 25.2098 27.5875 24.7021 29.6 25.4082Z" fill="#F78319"/>
<path id="Vector_15" d="M73.4 0.408203C73.532 0.474203 73.664 0.540203 73.8 0.608203C72.9326 1.65216 72.0038 2.63126 71.05 3.5957C70.9366 3.71164 70.8232 3.82757 70.7064 3.94702C69.8709 4.78455 69.8709 4.78455 69.2 5.0082C69.5027 4.29467 69.921 3.84079 70.4703 3.29883C70.6404 3.12996 70.8106 2.96109 70.9859 2.78711C71.1638 2.61257 71.3417 2.43803 71.525 2.2582C71.7044 2.08057 71.8838 1.90294 72.0687 1.71992C72.5116 1.28177 72.9553 0.844578 73.4 0.408203Z" fill="#F78319"/>
<path id="Vector_16" d="M78.3758 14.171C78.7985 14.1705 79.2211 14.1669 79.6438 14.1631C79.9125 14.1625 80.1813 14.1621 80.45 14.1619C80.6945 14.1611 80.9389 14.1603 81.1907 14.1594C81.8 14.208 81.8 14.208 82.4 14.608C82.2146 14.6017 82.0291 14.5955 81.8379 14.589C81.1431 14.5684 80.4486 14.5534 79.7536 14.5421C79.454 14.5361 79.1545 14.528 78.8551 14.5175C76.8306 14.399 76.8306 14.399 75.0313 15.2002C74.9195 15.3086 74.8078 15.417 74.6926 15.5286C74.4 15.808 74.4 15.808 73.8 16.008C74.099 15.2471 74.5389 14.8756 75.2 14.408C76.2203 14.0679 77.308 14.1708 78.3758 14.171Z" fill="#F78319"/>
<path id="Vector_17" d="M12.6 55.0078C12.732 55.0738 12.864 55.1398 13 55.2078C12.5469 55.9007 11.9854 56.3789 11.3554 56.9023C11.03 57.182 10.7336 57.4727 10.4375 57.7828C9.99998 58.2078 9.99998 58.2078 9.59998 58.2078C10.2149 56.7545 11.3448 55.8861 12.6 55.0078Z" fill="#F78319"/>
<path id="Vector_18" d="M38.4 79.0078C38.532 79.0738 38.664 79.1398 38.8 79.2078C36.1861 82.2791 36.1861 82.2791 35.2 82.6078C35.8133 81.158 37.0303 80.1998 38.2 79.2078C38.266 79.1418 38.332 79.0758 38.4 79.0078Z" fill="#F78319"/>
<path id="Vector_19" d="M54.6 74.6076C54.072 74.8056 53.544 75.0036 53 75.2076C53.99 75.4716 54.98 75.7356 56 76.0076C55.2372 76.1983 54.978 76.2068 54.2468 76.0521C53.98 75.997 53.98 75.997 53.7078 75.9408C53.5237 75.9009 53.3396 75.8611 53.15 75.8201C52.9628 75.781 52.7756 75.7419 52.5828 75.7017C52.1215 75.6052 51.6606 75.5071 51.2 75.4076C51.7953 75.1029 52.3726 74.8679 53.0125 74.6701C53.1839 74.6157 53.3553 74.5613 53.532 74.5052C54 74.4076 54 74.4076 54.6 74.6076Z" fill="#F78319"/>
<path id="Vector_20" d="M40.8 3.20801C40.5219 3.83931 40.196 4.25599 39.7 4.73301C39.5784 4.85109 39.4567 4.96916 39.3313 5.09082C39.222 5.19549 39.1127 5.30016 39 5.40801C38.868 5.54001 38.736 5.67201 38.6 5.80801C38.3366 5.94751 38.0702 6.08193 37.8 6.20801C38.1225 5.40184 38.6925 4.85612 39.3 4.25801C39.3998 4.15669 39.4996 4.05537 39.6024 3.95098C40.3494 3.20801 40.3494 3.20801 40.8 3.20801Z" fill="#F78319"/>
<path id="Vector_21" d="M46.4 74.8076C47.2059 74.9182 48.004 75.0388 48.8 75.2076C48.8 75.2736 48.8 75.3396 48.8 75.4076C47.576 75.6885 46.4565 75.8542 45.2 75.8076C45.2 75.7416 45.2 75.6756 45.2 75.6076C45.794 75.4756 46.388 75.3436 47 75.2076C46.802 75.0756 46.604 74.9436 46.4 74.8076Z" fill="#F78319"/>
<path id="Vector_22" d="M77.6 29.8076C77.732 29.8736 77.864 29.9396 78 30.0076C78.3504 31.0587 78.3295 31.9054 77.9 32.9076C77.7515 33.1551 77.7515 33.1551 77.6 33.4076C77.534 33.4076 77.468 33.4076 77.4 33.4076C77.4 33.0776 77.4 32.7476 77.4 32.4076C77.532 32.4076 77.664 32.4076 77.8 32.4076C77.734 31.5496 77.668 30.6916 77.6 29.8076Z" fill="#F78319"/>
<path id="Vector_23" d="M23.2 74.6082C22.507 74.9052 22.507 74.9052 21.8 75.2082C22.064 75.3402 22.328 75.4722 22.6 75.6082C21.7315 75.6416 21.1581 75.6342 20.4 75.2082C20.7533 75.0685 21.1077 74.9315 21.4625 74.7957C21.7584 74.6809 21.7584 74.6809 22.0602 74.5637C22.6 74.4082 22.6 74.4082 23.2 74.6082Z" fill="#F78319"/>
<path id="Vector_24" d="M74.8 14.6084C75.2204 14.6936 75.2204 14.6936 75.6 14.8084C75.3761 15.0096 75.1509 15.2093 74.925 15.4084C74.7998 15.5198 74.6745 15.6311 74.5454 15.7459C74.2 16.0084 74.2 16.0084 73.8 16.0084C74.055 15.4396 74.2903 14.9809 74.8 14.6084Z" fill="#F78319"/>
<path id="Vector_25" d="M5.19995 80.8076C5.33195 81.0056 5.46395 81.2036 5.59995 81.4076C5.13795 81.7376 4.67595 82.0676 4.19995 82.4076C4.19995 81.8076 4.19995 81.8076 4.69995 81.2701C4.86495 81.1175 5.02995 80.9649 5.19995 80.8076Z" fill="#F78319"/>
<path id="Vector_26" d="M84.2 75.0078C84.2 75.1398 84.2 75.2718 84.2 75.4078C84.53 75.4078 84.86 75.4078 85.2 75.4078C85.2 75.4738 85.2 75.5398 85.2 75.6078C84.2967 75.6231 83.4818 75.6283 82.6 75.4078C82.6 75.3418 82.6 75.2758 82.6 75.2078C83.1525 75.0883 83.632 75.0078 84.2 75.0078Z" fill="#F78319"/>
<path id="Vector_27" d="M17 14.8076C17.132 14.8736 17.264 14.9396 17.4 15.0076C17.3625 15.3701 17.3625 15.3701 17.2 15.8076C16.6875 16.1576 16.6875 16.1576 16.2 16.4076C16.55 15.2576 16.55 15.2576 17 14.8076Z" fill="#F78319"/>
<path id="Vector_28" d="M3.8 82.4082C3.932 82.6062 4.064 82.8042 4.2 83.0082C3.606 83.5032 3.606 83.5032 3 84.0082C3 83.2265 3.30114 82.985 3.8 82.4082Z" fill="#F78319"/>
<path id="Vector_29" d="M12.6 55.0078C12.732 55.0738 12.864 55.1398 13 55.2078C12.6588 55.7646 12.5048 55.9786 11.8625 56.1578C11.6336 56.1826 11.6336 56.1826 11.4 56.2078C11.8 55.8078 12.2 55.4078 12.6 55.0078Z" fill="#F78319"/>
</g>
<defs>
<clipPath id="clip0_56_1845">
<rect width="100" height="100" fill="white" transform="translate(0 0.208008)"/>
</clipPath>
</defs>
</svg>
