<svg width="100" height="101" viewBox="0 0 100 101" fill="none" xmlns="http://www.w3.org/2000/svg">
<g id="list__1_-removebg-preview 1">
<path id="Vector" d="M11.7419 2.98081C12.0342 2.97965 12.0342 2.97965 12.3323 2.97848C12.6541 2.97874 12.6541 2.97874 12.9825 2.979C13.21 2.97841 13.4375 2.97782 13.6719 2.9772C14.4384 2.97546 15.2049 2.97516 15.9713 2.97487C16.5192 2.97405 17.0671 2.97294 17.615 2.97186C19.1063 2.96914 20.5976 2.96793 22.089 2.96705C23.02 2.9665 23.951 2.96565 24.8819 2.96475C27.4591 2.96231 30.0362 2.96026 32.6133 2.95958C32.8608 2.95951 32.8608 2.95951 33.1133 2.95945C33.2786 2.9594 33.444 2.95936 33.6144 2.95931C33.9495 2.95922 34.2846 2.95914 34.6197 2.95905C34.7859 2.959 34.9521 2.95896 35.1234 2.95891C37.8171 2.95812 40.5109 2.95463 43.2046 2.94997C45.9696 2.94523 48.7345 2.94274 51.4994 2.9425C53.0521 2.94232 54.6048 2.94117 56.1575 2.93754C57.4796 2.93446 58.8017 2.93344 60.1238 2.93509C60.7984 2.93587 61.4729 2.93536 62.1475 2.93288C62.8788 2.93035 63.61 2.9315 64.3413 2.93359C64.6612 2.93118 64.6612 2.93118 64.9874 2.92871C66.2282 2.93704 67.179 3.02739 68.1289 3.91412C68.9146 4.94162 69.0288 5.50451 69.024 6.77375C69.0243 7.01927 69.0243 7.01927 69.0246 7.26976C69.0249 7.8213 69.0238 8.37284 69.0227 8.92438C69.0226 9.31852 69.0227 9.71266 69.0228 10.1068C69.0228 11.1795 69.0217 12.2521 69.0203 13.3248C69.019 14.4448 69.0189 15.5648 69.0187 16.6849C69.018 18.807 69.0164 20.9291 69.0144 23.0512C69.0122 25.4666 69.0111 27.8821 69.0101 30.2975C69.008 35.2674 69.0044 40.2372 69 45.2071C68.7968 45.3003 68.5935 45.3936 68.3842 45.4896C68.1134 45.6147 67.8426 45.7398 67.5719 45.8649C67.4384 45.926 67.305 45.9871 67.1675 46.0501C62.3571 48.2787 58.7718 52.012 56.9008 56.9477C55.1028 61.9518 55.1984 67.3388 57.4398 72.1868C58.387 74.1274 59.4337 75.7066 61 77.2071C61.1699 77.3775 61.3398 77.5479 61.5148 77.7235C63.6992 79.9008 66.156 81.2814 69 82.4071C69.0217 82.9781 69.0375 83.5483 69.05 84.1196C69.0567 84.2796 69.0634 84.4395 69.0703 84.6044C69.0895 85.7825 68.9236 86.4629 68.2 87.4071C66.9892 88.3014 65.974 88.321 64.4985 88.3087C64.2679 88.3099 64.0372 88.3112 63.7996 88.3125C63.162 88.3151 62.5245 88.3142 61.8869 88.3117C61.1982 88.3099 60.5096 88.3127 59.821 88.3149C58.4731 88.3184 57.1252 88.3176 55.7773 88.3153C54.6818 88.3135 53.5863 88.3133 52.4908 88.3141C52.2568 88.3143 52.2568 88.3143 52.0181 88.3145C51.7012 88.3148 51.3843 88.315 51.0674 88.3153C48.0969 88.3176 45.1264 88.315 42.1558 88.3107C39.6073 88.3071 37.0588 88.3077 34.5103 88.3114C31.55 88.3157 28.5897 88.3174 25.6294 88.3149C25.3137 88.3146 24.9981 88.3144 24.6824 88.3141C24.4494 88.314 24.4494 88.314 24.2117 88.3138C23.1175 88.3131 22.0233 88.3142 20.9291 88.3161C19.5957 88.3184 18.2623 88.3178 16.9289 88.3135C16.2486 88.3114 15.5684 88.3106 14.8882 88.3132C14.1507 88.3154 13.4135 88.3127 12.676 88.3087C12.3535 88.3114 12.3535 88.3114 12.0245 88.3141C10.8466 88.3017 10.1115 88.2282 9.19999 87.4071C8.34656 86.526 8.07499 86.071 8.07471 84.8051C8.07332 84.6682 8.07192 84.5312 8.07049 84.39C8.06704 83.9311 8.07071 83.4726 8.07436 83.0137C8.07335 82.6813 8.0719 82.349 8.07006 82.0166C8.06627 81.1034 8.06872 80.1903 8.0722 79.2771C8.07487 78.2922 8.07179 77.3073 8.06944 76.3224C8.06576 74.393 8.06747 72.4635 8.07105 70.5341C8.07386 68.9659 8.07464 67.3978 8.07397 65.8297C8.07387 65.6066 8.07378 65.3835 8.07368 65.1537C8.07347 64.7006 8.07326 64.2474 8.07304 63.7943C8.07133 59.7856 8.07467 55.777 8.08061 51.7684C8.08638 47.8782 8.08779 43.9881 8.08471 40.0979C8.08136 35.8629 8.08055 31.6279 8.08405 27.3929C8.08442 26.9413 8.08479 26.4897 8.08515 26.038C8.08534 25.8158 8.08552 25.5936 8.08571 25.3647C8.08683 23.7986 8.08617 22.2325 8.08484 20.6664C8.0833 18.7576 8.08465 16.8488 8.08968 14.94C8.09218 13.966 8.09341 12.9921 8.09117 12.0181C8.08916 11.1264 8.09085 10.2348 8.09549 9.34305C8.09652 9.02059 8.09621 8.69811 8.09441 8.37565C8.07892 5.3459 8.07892 5.3459 8.99999 4.00709C9.89733 3.29289 10.6043 2.98249 11.7419 2.98081ZM14.6 12.4071C14.6 17.2911 14.6 22.1751 14.6 27.2071C19.484 27.2071 24.368 27.2071 29.4 27.2071C29.4 22.3231 29.4 17.4391 29.4 12.4071C24.516 12.4071 19.632 12.4071 14.6 12.4071ZM61.4373 18.3852C61.0886 18.3856 61.0886 18.3856 60.7329 18.386C60.4797 18.3873 60.2265 18.3887 59.9656 18.3901C59.6948 18.3908 59.424 18.3914 59.1533 18.392C58.4194 18.3938 57.6856 18.3971 56.9517 18.4009C56.4931 18.4032 56.0346 18.4053 55.576 18.4074C54.141 18.414 52.706 18.4216 51.271 18.4305C49.6149 18.4406 47.9587 18.4475 46.3025 18.4515C45.0216 18.4548 43.7408 18.4612 42.4599 18.4699C41.6951 18.475 40.9303 18.4788 40.1654 18.4794C39.4465 18.48 38.7277 18.4844 38.0089 18.4917C37.6192 18.4947 37.2296 18.4937 36.84 18.4926C36.6081 18.4957 36.3762 18.4988 36.1373 18.502C35.9358 18.5029 35.7343 18.5039 35.5267 18.505C34.8567 18.6349 34.6177 18.8778 34.2 19.4071C34.0667 19.9071 34.0667 19.9071 34.2 20.4071C34.622 20.9453 34.8593 21.1809 35.5397 21.3078C35.7474 21.3081 35.955 21.3084 36.169 21.3087C36.5273 21.3121 36.5273 21.3121 36.8929 21.3155C37.2851 21.3131 37.2851 21.3131 37.6851 21.3106C37.9638 21.3117 38.2424 21.3131 38.521 21.3149C39.2772 21.3185 40.0333 21.3171 40.7895 21.3146C41.5809 21.3125 42.3722 21.3144 43.1635 21.3157C44.4924 21.3171 45.8213 21.3152 47.1502 21.3114C48.6866 21.307 50.223 21.3084 51.7595 21.3128C53.0786 21.3165 54.3976 21.317 55.7167 21.3149C56.5046 21.3137 57.2924 21.3135 58.0803 21.3161C58.821 21.3184 59.5616 21.3168 60.3023 21.3122C60.7039 21.3106 61.1055 21.313 61.507 21.3155C61.7459 21.3133 61.9849 21.311 62.231 21.3087C62.4387 21.3084 62.6463 21.3081 62.8603 21.3078C63.543 21.1804 63.7809 20.9516 64.2 20.4071C64.2915 19.7663 64.3219 19.3932 63.9625 18.8446C63.2043 18.3479 62.3181 18.3825 61.4373 18.3852ZM34.2 25.4071C34.1657 26.1336 34.1657 26.1336 34.4 26.8071C35.0063 27.2113 35.1235 27.2575 35.8033 27.2619C36.0476 27.2649 36.0476 27.2649 36.2969 27.268C36.4749 27.2681 36.6529 27.2682 36.8363 27.2684C37.0243 27.27 37.2123 27.2717 37.406 27.2734C38.0288 27.2782 38.6515 27.28 39.2742 27.2813C39.7064 27.2831 40.1386 27.2849 40.5707 27.2868C41.4771 27.2901 42.3835 27.2916 43.2899 27.2922C44.4523 27.2933 45.6146 27.3008 46.777 27.3099C47.6697 27.3159 48.5624 27.3173 49.4551 27.3175C49.8837 27.3184 50.3124 27.3209 50.7409 27.325C51.34 27.3304 51.9388 27.3295 52.5378 27.327C52.7154 27.3299 52.893 27.3329 53.076 27.336C54.0988 27.3267 54.0988 27.3267 54.9164 26.7324C55.2416 26.2296 55.2416 26.2296 55.2 25.6821C54.9446 25.0755 54.7798 24.9256 54.2 24.6071C53.594 24.5167 52.9927 24.5231 52.3809 24.5263C52.1971 24.5249 52.0132 24.5235 51.8238 24.5221C51.2161 24.5185 50.6085 24.5192 50.0008 24.5204C49.5783 24.5195 49.1559 24.5184 48.7334 24.5172C47.8479 24.5154 46.9624 24.5159 46.0769 24.5179C44.9421 24.5202 43.8074 24.5161 42.6726 24.5103C41.8001 24.5066 40.9276 24.5067 40.0552 24.5078C39.6368 24.5079 39.2184 24.5066 38.8 24.5042C38.2149 24.5012 37.63 24.5033 37.045 24.5067C36.8722 24.5048 36.6993 24.5029 36.5213 24.5009C35.5107 24.5133 34.9039 24.6037 34.2 25.4071ZM14.6 35.2071C14.6 40.0911 14.6 44.9751 14.6 50.0071C19.484 50.0071 24.368 50.0071 29.4 50.0071C29.4 45.1231 29.4 40.2391 29.4 35.2071C24.516 35.2071 19.632 35.2071 14.6 35.2071ZM34.2 42.2071C34.1671 42.8264 34.1671 42.8264 34.4 43.4071C35.0273 44.0186 35.492 44.0826 36.3525 44.0846C36.5877 44.0866 36.823 44.0886 37.0653 44.0906C37.4514 44.0893 37.4514 44.0893 37.8453 44.0879C38.1196 44.089 38.394 44.0904 38.6683 44.0921C39.413 44.0957 40.1575 44.0954 40.9022 44.0943C41.524 44.0937 42.1457 44.0949 42.7675 44.0961C44.2345 44.0989 45.7014 44.0986 47.1683 44.0963C48.6813 44.094 50.1943 44.0968 51.7074 44.1022C53.0068 44.1066 54.3061 44.1079 55.6055 44.1068C56.3814 44.1061 57.1573 44.1066 57.9332 44.11C58.6629 44.1131 59.3926 44.1123 60.1223 44.1086C60.5174 44.1075 60.9125 44.1103 61.3075 44.1133C61.6613 44.1103 61.6613 44.1103 62.0221 44.1073C62.2267 44.1073 62.4312 44.1073 62.6419 44.1072C63.3539 43.9795 63.6922 43.7141 64.2 43.2071C64.303 42.576 64.3414 42.2075 63.9658 41.6752C63.4504 41.2974 63.0833 41.331 62.4475 41.3296C62.2071 41.3276 61.9668 41.3256 61.7192 41.3236C61.4526 41.3244 61.1859 41.3253 60.9192 41.3263C60.6386 41.3251 60.3581 41.3237 60.0775 41.3221C59.3151 41.3185 58.5527 41.3188 57.7903 41.3199C57.1541 41.3205 56.5179 41.3193 55.8817 41.3181C54.381 41.3153 52.8802 41.3156 51.3794 41.3179C49.8306 41.3202 48.2818 41.3174 46.733 41.312C45.4037 41.3076 44.0745 41.3062 42.7452 41.3074C41.9511 41.3081 41.157 41.3076 40.3628 41.3042C39.6161 41.3011 38.8694 41.3019 38.1226 41.3056C37.7177 41.3067 37.3128 41.3039 36.9079 41.3009C36.5465 41.3038 36.5465 41.3038 36.1779 41.3069C35.9685 41.3069 35.7591 41.3069 35.5434 41.307C34.858 41.4332 34.6159 41.6565 34.2 42.2071ZM34.483 47.7684C34.133 48.2216 34.133 48.2216 34.2125 48.9321C34.335 49.6581 34.335 49.6581 35 50.0071C35.383 50.0674 35.383 50.0674 35.8046 50.0592C36.0494 50.0614 36.0494 50.0614 36.2991 50.0635C36.4774 50.063 36.6557 50.0625 36.8394 50.062C37.0278 50.063 37.2161 50.0641 37.4102 50.0651C38.0339 50.0679 38.6575 50.0677 39.2812 50.0672C39.7139 50.068 40.1466 50.0689 40.5792 50.0698C41.4864 50.0713 42.3936 50.0713 43.3009 50.0702C44.4651 50.0691 45.6292 50.0725 46.7935 50.0771C47.687 50.08 48.5805 50.0802 49.4741 50.0796C49.9034 50.0797 50.3328 50.0808 50.7621 50.0828C51.3616 50.0852 51.961 50.0839 52.5605 50.0816C52.828 50.0838 52.828 50.0838 53.1009 50.0862C53.264 50.0848 53.4272 50.0834 53.5954 50.0819C53.808 50.082 53.808 50.082 54.0249 50.082C54.5156 49.984 54.6901 49.7924 55 49.4071C55.2176 48.9358 55.2176 48.9358 55.2 48.4071C54.9346 47.8464 54.9346 47.8464 54.4 47.4071C53.7817 47.2572 53.1747 47.2725 52.541 47.2809C52.353 47.2794 52.1649 47.278 51.9712 47.2765C51.3494 47.2732 50.728 47.277 50.1062 47.2813C49.6743 47.2811 49.2425 47.2807 48.8106 47.2798C47.9053 47.2793 47.0002 47.2822 46.095 47.2877C44.9341 47.2945 43.7735 47.2933 42.6126 47.2896C41.7207 47.2875 40.8289 47.2892 39.9371 47.2923C39.509 47.2933 39.081 47.2932 38.6529 47.2919C38.0548 47.2909 37.457 47.2949 36.859 47.3004C36.5931 47.2984 36.5931 47.2984 36.3218 47.2964C35.5467 47.3085 35.1304 47.3159 34.483 47.7684ZM14.6 58.0071C14.6 62.8911 14.6 67.7751 14.6 72.8071C19.484 72.8071 24.368 72.8071 29.4 72.8071C29.4 67.9231 29.4 63.0391 29.4 58.0071C24.516 58.0071 19.632 58.0071 14.6 58.0071ZM34.2 65.0071C34.1493 65.6365 34.1493 65.6365 34.4 66.2071C34.8917 66.7188 35.1758 66.8044 35.8893 66.8846C36.1679 66.8888 36.4467 66.8897 36.7253 66.8879C36.878 66.8893 37.0306 66.8906 37.1878 66.8921C37.6916 66.8957 38.1954 66.8949 38.6992 66.8938C39.0499 66.8947 39.4006 66.8958 39.7513 66.897C40.4862 66.8988 41.221 66.8983 41.9559 66.8963C42.897 66.894 43.838 66.898 44.7791 66.9039C45.5034 66.9076 46.2275 66.9075 46.9518 66.9064C47.2987 66.9063 47.6457 66.9075 47.9926 66.91C48.4781 66.913 48.9633 66.9109 49.4488 66.9074C49.5917 66.9094 49.7345 66.9113 49.8818 66.9133C50.5857 66.9029 50.9849 66.8164 51.5899 66.4454C52.0665 66.0181 52.0665 66.0181 52.1125 65.2946C52.0662 64.6171 52.0662 64.6171 51.6894 64.2694C51.0181 63.9096 50.3995 63.9201 49.6563 63.9231C49.5017 63.9214 49.3472 63.9197 49.1879 63.918C48.6776 63.9133 48.1674 63.9131 47.657 63.9133C47.3018 63.9119 46.9467 63.9104 46.5915 63.9087C45.8472 63.906 45.1029 63.9057 44.3586 63.9069C43.4054 63.9081 42.4523 63.902 41.4991 63.8939C40.7656 63.8887 40.0321 63.8881 39.2986 63.8888C38.9472 63.8885 38.5958 63.8866 38.2444 63.883C37.7527 63.8786 37.2613 63.8805 36.7696 63.884C36.5524 63.8801 36.5524 63.8801 36.3309 63.876C35.2861 63.8934 34.8261 64.1809 34.2 65.0071ZM34.5406 70.4755C34.1459 70.9896 34.1459 70.9896 34.1875 71.6321C34.4338 72.2985 34.597 72.4516 35.2 72.8071C35.733 72.9001 35.733 72.9001 36.3214 72.8911C36.6589 72.8959 36.6589 72.8959 37.0031 72.9007C37.2452 72.9008 37.4873 72.9008 37.7367 72.9008C38.111 72.9031 38.111 72.9031 38.4929 72.9055C39.0206 72.9076 39.5483 72.9085 40.076 72.9073C40.7509 72.9061 41.4254 72.9122 42.1002 72.9203C42.7457 72.9267 43.3912 72.9259 44.0367 72.9258C44.2784 72.9291 44.5201 72.9324 44.7691 72.9358C46.1229 72.9676 46.1229 72.9676 47.2594 72.3387C47.6541 71.8246 47.6541 71.8246 47.6125 71.1821C47.3662 70.5157 47.203 70.3626 46.6 70.0071C46.067 69.914 46.067 69.914 45.4786 69.9231C45.2536 69.9199 45.0287 69.9167 44.7969 69.9135C44.5548 69.9134 44.3127 69.9134 44.0633 69.9133C43.689 69.9111 43.689 69.9111 43.3071 69.9087C42.7793 69.9066 42.2517 69.9057 41.724 69.9069C41.0491 69.9081 40.3746 69.902 39.6998 69.8939C39.0543 69.8874 38.4088 69.8883 37.7633 69.8883C37.5216 69.8851 37.2799 69.8818 37.0309 69.8784C35.6771 69.8466 35.6771 69.8466 34.5406 70.4755Z" fill="#F78319"/>
<path id="Vector_2" d="M85 50.2074C85.7083 50.7696 86.3563 51.373 87 52.0074C87.1867 52.1725 87.1867 52.1725 87.3773 52.341C90.0015 54.7293 91.6218 58.733 91.8252 62.2422C91.9895 67.1888 90.8545 71.1255 87.7468 75.0402C87.6324 75.1613 87.5179 75.2825 87.4 75.4074C87.268 75.4074 87.136 75.4074 87 75.4074C87 75.5394 87 75.6714 87 75.8074C83.4574 79.0497 79.2773 80.7683 74.4664 80.8144C69.6231 80.59 65.3491 78.2237 62 74.8074C58.8215 71.0929 57.9514 66.5622 58.2 61.8074C58.3867 59.8888 58.9666 58.1361 59.8 56.4074C59.8837 56.2248 59.9675 56.0423 60.0539 55.8542C60.8479 54.2523 61.9671 53.0749 63.2 51.8074C63.3124 51.6756 63.4248 51.5439 63.5406 51.4081C64.6753 50.1152 66.2936 49.3862 67.8 48.6074C68.0591 48.4732 68.0591 48.4732 68.3234 48.3363C73.7828 45.7266 80.1227 46.9886 85 50.2074ZM74.1625 52.1074C73.6543 52.8082 73.6572 53.3493 73.6 54.2074C73.435 54.2486 73.27 54.2899 73.1 54.3324C71.3505 55.0196 70.4263 56.146 69.6 57.8074C69.114 59.2653 69.3088 60.7539 69.9351 62.1363C70.7023 63.5009 71.6896 64.5305 73.2 65.0074C73.9667 65.1666 74.7284 65.306 75.5023 65.4261C76.5217 65.6909 77.0229 66.1417 77.6 67.0074C77.7455 67.9904 77.7008 68.794 77.275 69.6949C76.638 70.3821 76.1217 70.7852 75.1578 70.8261C74.1502 70.7592 73.5137 70.5643 72.8 69.8074C72.4544 69.2981 72.3467 68.7872 72.2125 68.1949C72.0988 67.7291 72.0058 67.4167 71.75 67.0074C71.2022 66.6944 70.8176 66.7191 70.2 66.8074C69.6959 67.0947 69.6959 67.0947 69.4 67.6074C69.2096 68.9942 69.5743 70.2323 70.3984 71.3456C71.1942 72.2661 71.8621 72.9313 73 73.4074C73.198 73.4074 73.396 73.4074 73.6 73.4074C73.6051 73.5303 73.6103 73.6533 73.6156 73.78C73.6687 74.7799 73.6687 74.7799 74.1375 75.6324C74.7861 75.8778 75.1457 75.8301 75.8 75.6074C76.4106 74.895 76.464 74.326 76.4 73.4074C76.5402 73.3909 76.6805 73.3744 76.825 73.3574C78.2265 72.9917 79.1734 71.9449 80 70.8074C80.6866 69.6251 80.7683 68.3466 80.6 67.0074C80.1674 65.411 79.1391 64.1864 77.8554 63.1808C77.0895 62.7445 76.4493 62.6148 75.5875 62.4949C74.3986 62.3238 73.4586 62.1293 72.6375 61.1949C72.2148 60.1493 72.2222 59.0716 72.625 58.0199C73.1908 57.3974 73.7501 57.0729 74.5914 56.9503C75.5321 56.909 76.2039 57.0705 77 57.6074C77.4631 58.1863 77.6385 58.7226 77.8 59.4324C77.9423 60.0521 78.0439 60.4438 78.6 60.8074C78.9704 61.0083 78.9704 61.0083 79.4 61.0074C80.1395 60.6536 80.1395 60.6536 80.6 60.0074C80.8014 58.4532 80.2314 57.3067 79.4 56.0074C78.6725 55.1757 77.8195 54.6342 76.8 54.2074C76.668 54.2074 76.536 54.2074 76.4 54.2074C76.3948 54.0844 76.3896 53.9614 76.3843 53.8347C76.3376 52.8288 76.3376 52.8288 75.8375 51.9949C75.1808 51.7134 74.7556 51.7006 74.1625 52.1074Z" fill="#F78319"/>
<path id="Vector_3" d="M71.8 83.207C73.912 83.207 76.024 83.207 78.2 83.207C78.2168 84.6906 78.2328 86.1738 78.2414 87.6574C78.2456 88.3484 78.2512 89.0393 78.2603 89.7303C78.2708 90.5246 78.2746 91.3189 78.2781 92.1133C78.2822 92.3588 78.2864 92.6042 78.2906 92.8572C78.291 94.2709 78.181 95.2138 77.4 96.407C76.5026 97.1212 75.7957 97.4316 74.6581 97.4333C74.3658 97.4345 74.3658 97.4345 74.0677 97.4356C73.7458 97.4354 73.7458 97.4354 73.4175 97.4351C73.19 97.4357 72.9625 97.4363 72.728 97.4369C71.9616 97.4387 71.1951 97.439 70.4286 97.4393C69.8808 97.4401 69.3329 97.4412 68.785 97.4423C67.2937 97.445 65.8023 97.4462 64.311 97.4471C63.38 97.4476 62.449 97.4485 61.518 97.4494C58.9409 97.4518 56.3638 97.4539 53.7866 97.4545C53.5392 97.4546 53.5392 97.4546 53.2867 97.4547C53.0387 97.4547 53.0387 97.4547 52.7856 97.4548C52.4505 97.4549 52.1154 97.455 51.7803 97.4551C51.6141 97.4551 51.4479 97.4552 51.2766 97.4552C48.5828 97.456 45.8891 97.4595 43.1953 97.4642C40.4304 97.4689 37.6655 97.4714 34.9005 97.4716C33.3478 97.4718 31.7951 97.473 30.2424 97.4766C28.9204 97.4797 27.5983 97.4807 26.2762 97.479C25.6016 97.4783 24.9271 97.4788 24.2525 97.4812C23.5212 97.4838 22.79 97.4826 22.0586 97.4805C21.8454 97.4821 21.6322 97.4838 21.4125 97.4854C20.0037 97.476 19.1319 97.2785 18.05 96.3195C17.4102 95.5909 17.1487 95.0769 17.1539 94.1047C17.1543 93.9367 17.1547 93.7688 17.1551 93.5957C17.1575 93.4221 17.16 93.2484 17.1625 93.0695C17.1626 92.8936 17.1627 92.7176 17.1629 92.5363C17.1719 91.2351 17.1719 91.2351 17.4 91.007C18.0326 90.9867 18.6609 90.9796 19.2936 90.9808C19.4949 90.9803 19.6962 90.9799 19.9036 90.9795C20.5838 90.9783 21.2639 90.9785 21.9441 90.9787C22.4295 90.9781 22.915 90.9774 23.4004 90.9766C24.4488 90.975 25.4973 90.9739 26.5457 90.9733C28.2038 90.9722 29.862 90.9688 31.5201 90.965C32.0873 90.9638 32.6544 90.9625 33.2216 90.9612C33.3634 90.9609 33.5051 90.9606 33.6512 90.9603C35.2663 90.9567 36.8815 90.9534 38.4966 90.9504C38.6443 90.9502 38.792 90.9499 38.9442 90.9496C41.3341 90.9452 43.7241 90.9431 46.114 90.9416C48.568 90.9399 51.022 90.9353 53.4759 90.928C54.9891 90.9236 56.5023 90.9216 58.0156 90.9229C59.177 90.9236 60.3385 90.9201 61.4999 90.9151C61.9754 90.9138 62.4509 90.9137 62.9264 90.9152C63.577 90.917 64.2273 90.9138 64.8778 90.9095C65.0648 90.9112 65.2519 90.9129 65.4446 90.9146C67.1874 90.8932 68.7952 90.3761 70.0929 89.1766C71.5949 87.3688 71.6448 85.5346 71.8 83.207Z" fill="#F78319"/>
<path id="Vector_4" d="M71.8 12.207C76 12.207 76 12.207 77.2 13.007C78.0443 13.9425 78.2251 14.5747 78.2241 15.8181C78.2244 16.0713 78.2246 16.3246 78.2249 16.5855C78.2242 16.8667 78.2235 17.1479 78.2228 17.4291C78.2227 17.7247 78.2227 18.0204 78.2228 18.316C78.2229 19.1193 78.2217 19.9225 78.2203 20.7257C78.2191 21.565 78.219 22.4042 78.2187 23.2434C78.2181 24.8328 78.2165 26.4223 78.2145 28.0117C78.2122 29.8211 78.2111 31.6305 78.2101 33.44C78.208 37.1623 78.2045 40.8847 78.2 44.607C77.9391 44.5903 77.6782 44.5735 77.4094 44.5562C77.0563 44.5356 76.7032 44.515 76.35 44.4945C76.1794 44.4833 76.0087 44.4721 75.8329 44.4605C74.4394 44.3826 73.224 44.4884 71.8 44.607C71.8 33.915 71.8 23.223 71.8 12.207Z" fill="#F78319"/>
<path id="Vector_5" d="M26 60.807C26.537 61.2574 26.5926 61.5682 26.725 62.257C26.5952 63.0363 26.5131 63.1814 26.0086 63.736C25.8818 63.8754 25.7549 64.0148 25.6243 64.1585C24.8751 64.9506 24.1103 65.7256 23.3375 66.4945C23.1755 66.6574 23.0135 66.8202 22.8465 66.9879C22.6917 67.1425 22.5369 67.297 22.3774 67.4563C22.2376 67.5959 22.0978 67.7354 21.9537 67.8793C21.3266 68.4605 20.8361 68.4358 19.9946 68.4531C19.6 68.407 19.6 68.407 19 68.007C19 67.875 19 67.743 19 67.607C18.736 67.475 18.472 67.343 18.2 67.207C18.2 67.075 18.2 66.943 18.2 66.807C18.068 66.807 17.936 66.807 17.8 66.807C17.1962 65.7684 17.1962 65.7684 17.2125 65.082C17.4564 64.4642 17.6497 64.1881 18.2 63.807C19.1281 63.6527 19.7731 63.7753 20.6 64.207C20.6928 64.1122 20.7855 64.0174 20.8811 63.9196C21.303 63.4894 21.7265 63.0607 22.15 62.632C22.296 62.4828 22.4419 62.3335 22.5922 62.1797C22.734 62.0366 22.8758 61.8935 23.0219 61.7461C23.1518 61.6141 23.2817 61.4822 23.4155 61.3462C24.2832 60.5809 24.8691 60.5192 26 60.807Z" fill="#F78319"/>
<path id="Vector_6" d="M25.8 15.407C26.4458 15.8489 26.5778 16.0998 26.7375 16.8695C26.5684 17.7768 26.2634 18.0462 25.5961 18.6469C25.2115 18.9966 24.8843 19.3596 24.55 19.757C23.9453 20.4564 23.3118 21.1242 22.6625 21.782C22.4802 21.9671 22.298 22.1523 22.1102 22.343C21.4427 22.9501 21.1274 23.2153 20.2156 23.1922C19.446 22.9607 19.1025 22.6232 18.55 22.0445C18.3799 21.87 18.2097 21.6955 18.0344 21.5156C17.47 20.8548 17.1943 20.4815 17.2125 19.607C17.4522 18.8401 17.7084 18.6067 18.4 18.207C19.352 18.0682 19.8089 18.3032 20.6 18.807C20.6928 18.7122 20.7855 18.6173 20.8811 18.5196C21.303 18.0894 21.7265 17.6607 22.15 17.232C22.2959 17.0828 22.4419 16.9335 22.5922 16.7797C22.734 16.6366 22.8758 16.4935 23.0219 16.3461C23.1518 16.2141 23.2816 16.0822 23.4154 15.9462C24.2225 15.2344 24.7531 15.1017 25.8 15.407Z" fill="#F78319"/>
<path id="Vector_7" d="M25.8 38.007C26.4238 38.5349 26.5765 38.8803 26.725 39.682C26.5616 40.6295 26.127 41.1874 25.4 41.807C25.268 41.807 25.136 41.807 25 41.807C24.901 42.104 24.901 42.104 24.8 42.407C24.4937 42.7086 24.4937 42.7086 24.1 43.032C23.2781 43.7263 22.5264 44.4722 21.7765 45.243C21.3273 45.6772 21.0888 45.7901 20.475 45.907C19.2543 45.7262 18.5234 44.7554 17.7125 43.882C17.3681 43.3587 17.2312 43.0322 17.2 42.407C17.3501 41.8201 17.4619 41.5106 17.95 41.1445C18.5384 40.9647 18.9867 40.9444 19.6 41.007C19.9385 41.1981 20.2727 41.3972 20.6 41.607C20.7009 41.5051 20.8018 41.4031 20.9057 41.2981C21.3616 40.838 21.8183 40.3788 22.275 39.9195C22.4338 39.759 22.5926 39.5985 22.7562 39.4332C22.9083 39.2804 23.0604 39.1277 23.2171 38.9703C23.3575 38.8289 23.4978 38.6875 23.6424 38.5418C24.3239 37.9036 24.8838 37.9123 25.8 38.007Z" fill="#F78319"/>
<path id="Vector_8" d="M77.8 14.0068C78.2682 14.7092 78.2495 14.9873 78.2481 15.8179C78.2487 16.0712 78.2492 16.3244 78.2498 16.5853C78.2484 16.8665 78.2469 17.1477 78.2454 17.4289C78.2453 17.7245 78.2454 18.0202 78.2456 18.3158C78.2457 19.1191 78.2433 19.9223 78.2406 20.7255C78.2381 21.5648 78.2378 22.404 78.2373 23.2432C78.2361 24.8326 78.2328 26.4221 78.2288 28.0115C78.2243 29.8209 78.2221 31.6303 78.2201 33.4398C78.2159 37.1621 78.2089 40.8845 78.2 44.6068C78.0851 44.6008 77.9702 44.5947 77.8519 44.5885C77.3263 44.5609 76.8006 44.5339 76.275 44.5068C76.0943 44.4973 75.9135 44.4878 75.7273 44.4779C74.8171 44.4314 73.9118 44.3947 73 44.4068C73 44.2748 73 44.1428 73 44.0068C73.6125 44.0014 74.225 43.9975 74.8375 43.9943C75.0104 43.9927 75.1832 43.991 75.3613 43.9893C75.5296 43.9886 75.6978 43.988 75.8711 43.9873C76.0251 43.9863 76.179 43.9852 76.3376 43.9841C76.8 44.0068 76.8 44.0068 77.8 44.2068C77.8 34.2408 77.8 24.2748 77.8 14.0068Z" fill="#F78319"/>
<path id="Vector_9" d="M64.6 50.4072C64.732 50.4732 64.864 50.5392 65 50.6072C63.9934 51.7622 62.9926 52.8431 61.8 53.8072C61.8 53.2072 61.8 53.2072 62.0571 52.8821C62.1744 52.7679 62.2917 52.6538 62.4125 52.5361C62.5389 52.4117 62.6652 52.2873 62.7954 52.1592C62.9289 52.0307 63.0625 51.9021 63.2 51.7697C63.3336 51.6389 63.4671 51.508 63.6047 51.3732C63.9352 51.0499 64.267 50.7279 64.6 50.4072Z" fill="#F78319"/>
<path id="Vector_10" d="M24.4 38.207C24.1183 38.8501 23.7793 39.2714 23.275 39.757C23.0855 39.9411 23.0855 39.9411 22.8922 40.1289C22.7958 40.2207 22.6993 40.3125 22.6 40.407C22.402 40.341 22.204 40.275 22 40.207C22.3238 39.8725 22.6491 39.5394 22.975 39.207C23.156 39.0214 23.337 38.8358 23.5234 38.6445C24 38.207 24 38.207 24.4 38.207Z" fill="#F78319"/>
<path id="Vector_11" d="M61.4 53.8066C61.4 54.3746 61.3195 54.8541 61.2 55.4066C60.936 55.4726 60.672 55.5386 60.4 55.6066C60.6499 54.9148 60.9351 54.3773 61.4 53.8066Z" fill="#F78319"/>
</g>
</svg>
