<svg width="40" height="41" viewBox="0 0 40 41" fill="none" xmlns="http://www.w3.org/2000/svg">
<g id="mingcute:location-2-fill" clip-path="url(#clip0_54_1732)">
<g id="Group">
<path id="Vector" d="M11.2 28.151C11.6244 28.0272 12.0805 28.0771 12.4681 28.2896C12.8556 28.5022 13.1429 28.86 13.2667 29.2843C13.3905 29.7087 13.3406 30.1648 13.128 30.5524C12.9155 30.9399 12.5577 31.2272 12.1334 31.351C11.3 31.5943 10.7 31.851 10.315 32.0843C10.7117 32.3226 11.3384 32.5893 12.2084 32.8376C14.1334 33.3876 16.8884 33.751 20 33.751C23.1117 33.751 25.8667 33.3876 27.7917 32.8376C28.6634 32.5893 29.2884 32.3226 29.685 32.0843C29.3017 31.851 28.7017 31.5943 27.8684 31.351C27.4507 31.2218 27.1005 30.9336 26.8933 30.5486C26.6861 30.1636 26.6385 29.7126 26.7607 29.2929C26.8829 28.8731 27.1652 28.5182 27.5467 28.3046C27.9281 28.091 28.3783 28.0358 28.8 28.151C29.9134 28.476 30.9334 28.8926 31.7167 29.4276C32.4417 29.926 33.3334 30.7943 33.3334 32.0843C33.3334 33.3893 32.42 34.2643 31.6834 34.7626C30.8867 35.2993 29.845 35.7176 28.7067 36.0426C26.41 36.701 23.3334 37.0843 20 37.0843C16.6667 37.0843 13.59 36.701 11.2934 36.0426C10.155 35.7176 9.11335 35.2993 8.31669 34.7626C7.58002 34.2626 6.66669 33.3893 6.66669 32.0843C6.66669 30.7943 7.55835 29.926 8.28335 29.4276C9.06669 28.8926 10.0867 28.476 11.2 28.151ZM20 3.75098C23.3152 3.75098 26.4946 5.06794 28.8389 7.41214C31.1831 9.75635 32.5 12.9358 32.5 16.251C32.5 20.531 30.1667 24.011 27.75 26.4843C26.7893 27.4575 25.757 28.3573 24.6617 29.176C23.6717 29.9193 21.4084 31.3126 21.4084 31.3126C20.9791 31.5566 20.4938 31.6849 20 31.6849C19.5063 31.6849 19.021 31.5566 18.5917 31.3126C17.468 30.6621 16.3818 29.9487 15.3384 29.176C14.2426 28.3578 13.2102 27.458 12.25 26.4843C9.83335 24.011 7.50002 20.531 7.50002 16.251C7.50002 12.9358 8.81698 9.75635 11.1612 7.41214C13.5054 5.06794 16.6848 3.75098 20 3.75098ZM20 12.9176C19.116 12.9176 18.2681 13.2688 17.643 13.894C17.0179 14.5191 16.6667 15.3669 16.6667 16.251C16.6667 17.135 17.0179 17.9829 17.643 18.608C18.2681 19.2331 19.116 19.5843 20 19.5843C20.8841 19.5843 21.7319 19.2331 22.357 18.608C22.9822 17.9829 23.3334 17.135 23.3334 16.251C23.3334 15.3669 22.9822 14.5191 22.357 13.894C21.7319 13.2688 20.8841 12.9176 20 12.9176Z" fill="#36454F"/>
</g>
</g>
<defs>
<clipPath id="clip0_54_1732">
<rect width="40" height="40" fill="white" transform="translate(0 0.417969)"/>
</clipPath>
</defs>
</svg>
