<svg width="100" height="101" viewBox="0 0 100 101" fill="none" xmlns="http://www.w3.org/2000/svg">
<g id="order-removebg-preview 1">
<path id="Vector" d="M49.4546 17.3824C54.1357 17.2537 58.5513 19.0579 61.9687 22.1934C65.5412 25.6024 67.2816 29.9448 67.4625 34.8442C67.3381 40.104 65.2732 44.4828 61.5273 48.1426C60.6845 48.8842 59.7761 49.4571 58.8 50.0067C58.5668 50.1416 58.5668 50.1416 58.3289 50.2793C54.3044 52.4567 49.2678 52.9379 44.8873 51.6591C40.136 50.1318 36.6679 46.9575 34.2937 42.6512C33.3031 40.6428 32.6949 38.2436 32.6 36.0067C32.592 35.8422 32.584 35.6777 32.5757 35.5082C32.4569 30.6858 34.1325 26.3301 37.4 22.8067C40.6282 19.5417 44.8756 17.6263 49.4546 17.3824ZM56.2925 27.466C56.1135 27.6459 55.9345 27.8258 55.7501 28.0111C55.6505 28.1107 55.5508 28.2102 55.4482 28.3128C55.1215 28.6398 54.7963 28.9681 54.471 29.2965C54.2439 29.5244 54.0166 29.7522 53.7893 29.98C53.1929 30.5778 52.5978 31.1769 52.003 31.7762C51.395 32.3882 50.7859 32.9992 50.1769 33.6102C48.9835 34.8079 47.7913 36.0069 46.6 37.2067C45.9763 36.9115 45.6184 36.6535 45.1882 36.1098C45.078 35.9721 44.9678 35.8344 44.8542 35.6926C44.7415 35.5487 44.6287 35.4049 44.5125 35.2567C44.2878 34.9743 44.063 34.692 43.8382 34.4098C43.5296 34.0218 43.2212 33.6339 42.9163 33.243C42.3774 32.5669 42.3774 32.5669 41.6 32.2067C40.6024 32.1328 39.99 32.1702 39.2 32.8067C38.5591 33.6021 38.5095 34.202 38.6 35.2067C38.8622 35.689 39.1048 36.0677 39.4375 36.4942C39.5257 36.6123 39.614 36.7304 39.7049 36.8521C39.9985 37.2408 40.298 37.6243 40.6 38.0067C40.708 38.1435 40.816 38.2804 40.9273 38.4214C42.8997 41.3504 42.8997 41.3504 45.582 43.302C46.5352 43.3677 47.125 43.2121 47.8875 42.6317C48.2688 42.2971 48.6355 41.9589 49 41.6067C49.2067 41.407 49.2067 41.407 49.4175 41.2033C50.8861 39.774 52.331 38.3341 53.6698 36.7817C54.1857 36.1956 54.7331 35.6437 55.2875 35.0942C55.4004 34.9816 55.5134 34.869 55.6298 34.7529C56.3364 34.0537 57.0625 33.3882 57.8179 32.7418C59.7613 31.093 59.7613 31.093 60.6875 28.8067C60.5723 28.0173 60.3133 27.6146 59.8 27.0067C58.3551 26.1036 57.5012 26.3719 56.2925 27.466Z" fill="#F78319"/>
<path id="Vector_2" d="M83.6 66.207C83.6 72.939 83.6 79.671 83.6 86.607C82.1609 87.2612 80.7381 87.8849 79.2664 88.4516C79.0694 88.528 78.8724 88.6044 78.6694 88.6831C78.034 88.9293 77.3983 89.1744 76.7625 89.4195C76.3191 89.591 75.8757 89.7626 75.4323 89.9341C73.0352 90.8604 70.6341 91.7747 68.225 92.6695C66.0293 93.4852 63.8489 94.3347 61.675 95.207C61.5298 95.2653 61.3845 95.3236 61.2349 95.3836C59.7831 95.9664 58.3328 96.5526 56.8839 97.1425C56.3259 97.3694 55.7676 97.5953 55.2092 97.8211C54.8216 97.9784 54.4346 98.1372 54.0476 98.2961C53.8156 98.3899 53.5836 98.4838 53.3446 98.5805C53.0406 98.7046 53.0406 98.7046 52.7305 98.8312C52.2 99.007 52.2 99.007 51.4 99.007C51.4 88.315 51.4 77.623 51.4 66.607C52.1775 66.8662 52.2477 67.1393 52.6446 67.8445C52.7679 68.0614 52.8912 68.2782 53.0183 68.5016C53.1497 68.7367 53.2811 68.9719 53.4125 69.207C53.5469 69.4442 53.6814 69.6813 53.8161 69.9183C54.0852 70.3918 54.3536 70.8656 54.6214 71.3397C55.131 72.2379 55.6509 73.1298 56.175 74.0195C56.298 74.2297 56.298 74.2297 56.4235 74.4441C56.7636 75.061 56.7636 75.061 57.2 75.607C58.3609 75.6801 59.2444 75.5232 60.325 75.0844C60.5421 75 60.5421 75 60.7635 74.914C61.2434 74.7267 61.7217 74.5356 62.2 74.3445C62.542 74.2102 62.884 74.0762 63.2261 73.9424C64.1552 73.5781 65.0829 73.2102 66.0103 72.8414C67.0215 72.4395 68.0335 72.0395 69.0453 71.6391C70.2821 71.1495 71.5188 70.6596 72.755 70.1686C75.6615 69.0147 78.5764 67.8869 81.5064 66.7941C81.8493 66.6641 82.1894 66.5265 82.5268 66.3829C83 66.207 83 66.207 83.6 66.207Z" fill="#F78319"/>
<path id="Vector_3" d="M16.4 66.207C17.185 66.364 17.8422 66.5475 18.5869 66.8195C18.8217 66.9051 19.0564 66.9908 19.2982 67.079C19.5541 67.1734 19.8099 67.2679 20.0656 67.3625C20.1971 67.4109 20.3285 67.4592 20.4639 67.5091C23.4462 68.6078 26.3994 69.7779 29.3498 70.9593C30.0187 71.2271 30.6879 71.4942 31.3571 71.7613C31.4891 71.814 31.6211 71.8667 31.7572 71.921C32.795 72.3351 33.8334 72.7476 34.8722 73.1591C35.4997 73.4078 36.1267 73.6576 36.7527 73.9101C37.4644 74.1967 38.1774 74.4799 38.8906 74.7625C39.1012 74.8483 39.3117 74.9341 39.5286 75.0225C40.6701 75.4705 41.571 75.7459 42.8 75.607C43.2374 75.226 43.2374 75.226 43.5125 74.632C43.643 74.3969 43.7734 74.1617 43.9039 73.9266C43.9786 73.7869 44.0533 73.6472 44.1302 73.5032C44.6496 72.5481 45.2019 71.6114 45.747 70.6708C45.9471 70.3245 46.1457 69.9774 46.3442 69.6302C46.4689 69.4124 46.5935 69.1947 46.7219 68.9703C46.8332 68.7753 46.9445 68.5803 47.0592 68.3793C47.4209 67.7719 47.7847 67.1795 48.2 66.607C48.332 66.607 48.464 66.607 48.6 66.607C48.6 77.299 48.6 87.991 48.6 99.007C46.5763 98.5573 46.5763 98.5573 45.6141 98.1625C45.3937 98.0731 45.1733 97.9837 44.9462 97.8916C44.5892 97.7445 44.5892 97.7445 44.225 97.5945C43.8286 97.4334 43.4319 97.273 43.0352 97.1125C42.7496 96.9969 42.464 96.8811 42.1785 96.7652C40.3312 96.0154 38.4786 95.2788 36.625 94.5445C36.4432 94.4725 36.2614 94.4004 36.0741 94.3261C33.2634 93.2132 30.4398 92.1391 27.6062 91.086C25.1416 90.1694 22.6909 89.2226 20.25 88.2445C20.0994 88.1843 19.9488 88.124 19.7936 88.0619C17.3596 87.0868 17.3596 87.0868 16.4 86.607C16.4 79.875 16.4 73.143 16.4 66.207Z" fill="#F78319"/>
<path id="Vector_4" d="M15.4 49.0068C16.592 49.2435 17.7082 49.5591 18.8406 49.9982C18.9956 50.0573 19.1506 50.1163 19.3104 50.1771C19.8241 50.3732 20.337 50.5712 20.85 50.7693C21.2169 50.9101 21.5839 51.0507 21.9509 51.1914C25.4574 52.5388 28.9474 53.9282 32.438 55.3164C35.3911 56.4902 38.3503 57.6415 41.3268 58.7544C42.5072 59.1971 43.6855 59.6454 44.864 60.093C45.4876 60.3298 46.1114 60.5664 46.7351 60.8029C47.0901 60.9376 47.445 61.0722 47.7999 61.2068C47.6958 62.0224 47.5382 62.6165 47.1101 63.3178C47.0077 63.4879 46.9054 63.6581 46.7999 63.8334C46.6329 64.1049 46.6329 64.1049 46.4624 64.3818C46.2263 64.7729 45.9904 65.164 45.7546 65.5553C45.6313 65.7589 45.508 65.9625 45.381 66.1723C44.6167 67.445 43.8774 68.7325 43.1342 70.0177C42.9683 70.3031 42.9683 70.3031 42.7992 70.5943C42.7026 70.7611 42.606 70.9279 42.5065 71.0998C42.155 71.6811 41.7801 72.244 41.3999 72.8068C39.2478 72.0079 37.1067 71.1832 34.9701 70.3437C32.0626 69.2018 29.1479 68.082 26.2225 66.9869C22.4587 65.5773 18.7184 64.1132 14.9875 62.6193C14.743 62.5215 14.4985 62.4237 14.2466 62.323C13.5535 62.0455 12.8606 61.7673 12.1679 61.4889C11.96 61.4055 11.7521 61.3221 11.5379 61.2362C11.3465 61.159 11.155 61.0818 10.9577 61.0022C10.708 60.9017 10.708 60.9017 10.4532 60.7991C10.0256 60.6177 9.61269 60.4195 9.19995 60.2068C9.45744 59.3604 9.77933 58.6351 10.225 57.8717C10.3489 57.6582 10.4728 57.4446 10.6005 57.2247C10.7323 57.0002 10.8641 56.7756 11 56.5443C11.1359 56.311 11.2718 56.0776 11.4076 55.8441C11.8036 55.1641 12.2016 54.4854 12.6 53.8068C12.7068 53.6246 12.8136 53.4424 12.9237 53.2547C13.3445 52.5372 13.7663 51.8204 14.1898 51.1045C14.6003 50.4093 15.0008 49.7087 15.4 49.0068Z" fill="#F78319"/>
<path id="Vector_5" d="M84.6 49.0068C84.683 49.1533 84.766 49.2997 84.8515 49.4506C85.6337 50.8251 86.4247 52.194 87.2233 53.559C87.7049 54.3827 88.185 55.2072 88.6648 56.0319C88.8777 56.3971 89.0912 56.7619 89.3054 57.1263C89.568 57.5729 89.8281 58.0209 90.0875 58.4693C90.1642 58.5983 90.2408 58.7273 90.3198 58.8603C90.4957 59.1673 90.6501 59.4863 90.8 59.8068C90.734 60.0048 90.668 60.2028 90.6 60.4068C90.124 60.6417 89.6659 60.8368 89.1711 61.0232C89.0224 61.0813 88.8737 61.1394 88.7205 61.1992C88.227 61.3914 87.7323 61.5804 87.2375 61.7693C86.8903 61.9038 86.5433 62.0384 86.1963 62.1733C85.4802 62.4512 84.7637 62.7279 84.0468 63.0035C83.0926 63.3706 82.1401 63.7417 81.1883 64.1146C78.7057 65.0863 76.2199 66.0494 73.7273 66.9951C73.5516 67.0618 73.3759 67.1285 73.1948 67.1972C72.4819 67.4676 71.769 67.738 71.0561 68.0083C68.2307 69.08 65.4198 70.1848 62.6198 71.3213C61.2916 71.8593 59.9674 72.3762 58.6 72.8068C57.4812 71.0214 56.4159 69.2089 55.364 67.3834C54.8143 66.4299 54.2584 65.4802 53.7 64.5318C53.6182 64.3928 53.5363 64.2538 53.452 64.1105C53.3365 63.9146 53.3365 63.9146 53.2187 63.7146C53.1473 63.5923 53.0759 63.4699 53.0023 63.3438C52.822 63.0434 52.6275 62.7517 52.4312 62.4615C52.2 62.0068 52.2 62.0068 52.1957 61.6173C52.5279 60.9499 53.172 60.8229 53.8375 60.585C53.9879 60.5283 54.1383 60.4716 54.2932 60.4132C54.6212 60.2899 54.9498 60.1682 55.2789 60.0477C55.8078 59.854 56.3352 59.6567 56.8623 59.4583C57.6035 59.1795 58.3452 58.9019 59.0871 58.625C60.6459 58.0413 62.1962 57.4362 63.7461 56.8292C64.2545 56.63 64.7632 56.4315 65.2719 56.233C67.0444 55.5408 68.8147 54.8435 70.5828 54.1404C74.045 52.7641 77.5093 51.3972 81 50.0943C81.1503 50.0379 81.3007 49.9814 81.4556 49.9233C81.8742 49.7664 82.2932 49.611 82.7125 49.4561C83.0656 49.3251 83.0656 49.3251 83.4258 49.1916C84 49.0068 84 49.0068 84.6 49.0068Z" fill="#F78319"/>
<path id="Vector_6" d="M31.4 42.4072C31.5015 42.6173 31.6031 42.8275 31.7078 43.0439C33.4389 46.5917 35.4733 49.3922 38.8 51.6072C39.0067 51.7449 39.2135 51.8826 39.4265 52.0244C42.3211 53.8104 45.612 54.8025 48.9999 55.0072C49.2618 55.0246 49.2618 55.0246 49.5289 55.0424C54.4809 55.1984 59.2235 53.3426 62.9999 50.2072C63.1745 50.0654 63.349 49.9236 63.5289 49.7775C65.7662 47.8735 67.6627 45.2189 68.5999 42.4072C69.6453 42.5354 70.5452 42.8592 71.5179 43.2408C71.6822 43.3043 71.8465 43.3677 72.0158 43.4331C72.5401 43.6359 73.0638 43.8403 73.5874 44.0447C73.9323 44.1783 74.2773 44.3118 74.6222 44.4451C75.2959 44.7059 75.9689 44.9684 76.6413 45.2325C77.2634 45.4768 77.887 45.7162 78.5125 45.9515C78.7878 46.0568 79.063 46.1621 79.3382 46.2674C79.5781 46.3577 79.8181 46.448 80.0652 46.5411C80.2417 46.6289 80.4181 46.7167 80.5999 46.8072C80.6659 47.0052 80.7319 47.2032 80.7999 47.4072C80.64 47.4682 80.4801 47.5291 80.3154 47.5919C70.8206 51.207 70.8206 51.207 61.3722 54.9405C59.443 55.7157 57.5046 56.4654 55.5624 57.2072C55.419 57.2621 55.2756 57.3169 55.1279 57.3734C54.9884 57.4266 54.849 57.4799 54.7053 57.5348C54.5014 57.6127 54.5014 57.6127 54.2933 57.6922C54.0281 57.7928 53.7626 57.8926 53.4967 57.9915C52.9182 58.2068 52.3488 58.4299 51.7846 58.6807C50.6176 59.1812 49.9256 59.2837 48.7301 58.8281C48.5552 58.7552 48.3802 58.6823 48.1999 58.6072C47.7927 58.4612 47.3851 58.3159 46.9773 58.1713C46.4969 57.9926 46.017 57.813 45.5374 57.6322C45.4052 57.5826 45.273 57.533 45.1367 57.4819C42.0545 56.3237 38.9975 55.1017 35.9386 53.884C32.027 52.3272 28.1012 50.8125 24.1629 49.325C22.5041 48.6974 20.8518 48.053 19.2 47.4072C19.4 46.8072 19.4 46.8072 19.8045 46.5859C19.9822 46.5174 20.16 46.4489 20.3431 46.3783C20.6446 46.2602 20.6446 46.2602 20.9521 46.1396C21.1711 46.0565 21.39 45.9734 21.6156 45.8877C21.8393 45.8007 22.0631 45.7137 22.2936 45.6241C23.0116 45.3455 23.7307 45.0701 24.45 44.7947C24.9321 44.6083 25.4141 44.4218 25.896 44.235C26.9612 43.8224 28.0272 43.4119 29.0938 43.0031C29.4373 42.8702 29.7779 42.7295 30.1154 42.582C30.6 42.4072 30.6 42.4072 31.4 42.4072Z" fill="#F78319"/>
<path id="Vector_7" d="M78 17.6067C78.6832 18.0015 78.9445 18.2438 79.2 18.9942C79.2 19.7721 79.1059 20.0115 78.6 20.6067C77.2658 21.5975 75.8039 22.4251 74.375 23.2692C74.0613 23.4589 74.0613 23.4589 73.7414 23.6524C71.7841 24.8067 71.7841 24.8067 70.6 24.8067C70.0104 24.5376 69.6914 24.3896 69.4 23.8067C69.2689 22.6643 69.2689 22.6643 69.4 22.2067C70.1975 21.4811 71.0369 20.9093 71.9718 20.3723C72.0979 20.2988 72.224 20.2252 72.3539 20.1494C72.752 19.9174 73.151 19.6871 73.55 19.4567C73.8206 19.2993 74.0912 19.1417 74.3617 18.9841C76.9124 17.5001 76.9124 17.5001 78 17.6067Z" fill="#F78319"/>
<path id="Vector_8" d="M23 17.0066C23.6735 17.2845 23.6735 17.2845 24.3321 17.6714C24.4508 17.7401 24.5695 17.8087 24.6918 17.8795C25.0673 18.0978 25.4398 18.3209 25.8125 18.5441C26.063 18.6901 26.3136 18.8358 26.5645 18.9812C29.8438 20.8941 29.8438 20.8941 30.2 21.6066C30.2981 22.4732 30.2955 22.8706 29.7875 23.5941C29.0468 24.1142 28.6923 24.084 27.8 24.0066C27.1923 23.7502 27.1923 23.7502 26.5891 23.3925C26.3671 23.2626 26.1451 23.1326 25.9164 22.9988C25.6859 22.8597 25.4555 22.7207 25.225 22.5816C24.9984 22.4485 24.7718 22.3155 24.5383 22.1784C23.8881 21.7942 23.243 21.4029 22.6 21.0066C22.4182 20.895 22.2364 20.7834 22.049 20.6685C21.888 20.5661 21.7269 20.4637 21.561 20.3581C21.4222 20.2703 21.2835 20.1824 21.1406 20.0918C20.7441 19.7597 20.5807 19.4891 20.4 19.0066C20.4289 18.3139 20.5309 17.9116 20.9125 17.3316C21.59 16.88 22.2165 16.9097 23 17.0066Z" fill="#F78319"/>
<path id="Vector_9" d="M66.125 5.81983C67.088 6.08733 67.088 6.08733 67.4 6.60733C67.6682 7.36435 67.7196 7.74617 67.3825 8.48277C67.2831 8.65613 67.1837 8.82949 67.0813 9.00811C66.9716 9.20202 66.8619 9.39593 66.7489 9.59571C66.6338 9.79754 66.5187 9.99938 66.4 10.2073C66.1826 10.6047 65.9656 11.0023 65.7493 11.4003C65.5289 11.7986 65.3083 12.1968 65.0875 12.5948C64.9773 12.7976 64.8671 13.0004 64.7536 13.2093C63.717 15.0697 63.717 15.0697 62.8 15.6073C62.0436 15.7334 61.7088 15.6678 61.0375 15.2948C60.5983 14.8053 60.4292 14.4939 60.355 13.8421C60.458 12.8479 61.0938 11.996 61.6 11.1573C61.7132 10.9627 61.8264 10.768 61.943 10.5675C62.289 9.9767 62.6432 9.39161 63 8.80733C63.1806 8.50588 63.1806 8.50588 63.3649 8.19835C63.4837 8.00434 63.6026 7.81034 63.725 7.61045C63.8836 7.3499 63.8836 7.3499 64.0454 7.08409C64.6504 6.27082 65.0878 5.80195 66.125 5.81983Z" fill="#F78319"/>
<path id="Vector_10" d="M35 5.60694C36.2011 6.96723 37.0761 8.6838 37.9875 10.2444C38.1256 10.474 38.2638 10.7036 38.4019 10.9331C38.531 11.1542 38.66 11.3753 38.7929 11.603C38.9097 11.8008 39.0265 11.9986 39.1468 12.2024C39.4471 12.9194 39.4722 13.4365 39.4 14.2069C38.8777 14.8684 38.4748 15.1703 37.6375 15.2819C36.8121 15.1848 36.495 14.8328 36 14.2069C35.5734 13.5444 35.1923 12.8596 34.8125 12.1694C34.6109 11.8081 34.409 11.4469 34.207 11.0858C34.0587 10.8187 34.0587 10.8187 33.9074 10.5462C33.5025 9.83599 33.0701 9.14403 32.6321 8.45386C32.2454 7.70928 32.2578 7.23129 32.4 6.40694C33.1656 5.4116 33.7957 5.23183 35 5.60694Z" fill="#F78319"/>
<path id="Vector_11" d="M74.4007 33.5721C74.648 33.5682 74.648 33.5682 74.9004 33.5643C75.0789 33.5628 75.2575 33.5614 75.4414 33.5598C75.6249 33.5582 75.8084 33.5566 75.9975 33.5549C76.3864 33.5522 76.7753 33.55 77.1641 33.5485C77.7581 33.545 78.3518 33.5362 78.9457 33.5274C79.3235 33.5254 79.7012 33.5237 80.0789 33.5223C80.3449 33.5171 80.3449 33.5171 80.6163 33.5117C81.4384 33.5146 81.8873 33.54 82.606 33.9706C83.1633 34.5885 83.2285 34.9805 83.2 35.8075C82.5414 36.9193 82.5414 36.9193 81.7746 37.1174C81.2479 37.1599 80.7338 37.1633 80.2055 37.1528C80.0135 37.153 79.8215 37.1532 79.6236 37.1534C79.2187 37.1525 78.8137 37.1486 78.4088 37.142C77.7888 37.1325 77.1696 37.1337 76.5496 37.1364C76.1557 37.1342 75.7619 37.1313 75.368 37.1278C75.1828 37.1282 74.9975 37.1285 74.8067 37.1289C73.5306 37.1008 73.5306 37.1008 72.8895 36.6429C72.4733 36.0168 72.4 35.5565 72.4 34.8075C72.9638 33.9132 73.362 33.5862 74.4007 33.5721Z" fill="#F78319"/>
<path id="Vector_12" d="M19.1734 32.7669C19.3478 32.7657 19.5221 32.7646 19.7018 32.7634C20.0706 32.7615 20.4395 32.7602 20.8083 32.7594C21.3715 32.7575 21.9345 32.7513 22.4977 32.745C22.8563 32.7437 23.2149 32.7426 23.5734 32.7419C23.8254 32.7382 23.8254 32.7382 24.0824 32.7344C25.0226 32.7379 25.6335 32.8016 26.4 33.4075C26.7828 33.9121 26.8008 34.169 26.7875 34.8075C26.5419 35.5935 26.3032 35.7799 25.6 36.2075C24.9661 36.3235 24.3431 36.3197 23.7 36.3137C23.426 36.3149 23.426 36.3149 23.1465 36.3161C22.7612 36.3166 22.3759 36.3151 21.9906 36.3118C21.4019 36.3075 20.8137 36.3117 20.225 36.3169C19.85 36.3163 19.475 36.3153 19.1 36.3137C18.8368 36.3162 18.8368 36.3162 18.5684 36.3186C17.7538 36.3062 17.3061 36.2712 16.5945 35.8438C16.0431 35.234 15.9857 34.8225 16 34.0075C16.805 32.6851 17.7484 32.774 19.1734 32.7669Z" fill="#F78319"/>
<path id="Vector_13" d="M50 1.30703C50.132 1.30497 50.264 1.30291 50.4 1.30078C51.0205 1.46561 51.2168 1.68542 51.6 2.20703C51.7221 2.879 51.712 3.54434 51.7062 4.22578C51.707 4.42252 51.7078 4.61925 51.7085 4.82195C51.7091 5.23752 51.7076 5.6531 51.7043 6.06865C51.7 6.70478 51.7042 7.34045 51.7094 7.97656C51.7088 8.38047 51.7078 8.78438 51.7062 9.18828C51.7078 9.37851 51.7095 9.56873 51.7111 9.76472C51.6924 11.0812 51.6924 11.0812 51.2183 11.7266C50.7665 12.0295 50.5391 12.1155 50 12.107C49.802 12.1101 49.802 12.1101 49.6 12.1133C48.9794 11.9485 48.7831 11.7286 48.4 11.207C48.2778 10.5351 48.2879 9.86972 48.2937 9.18828C48.293 8.99155 48.2922 8.79481 48.2914 8.59211C48.2909 8.17654 48.2923 7.76097 48.2957 7.34541C48.3 6.70928 48.2957 6.07361 48.2906 5.4375C48.2911 5.03359 48.2922 4.62969 48.2937 4.22578C48.2921 4.03556 48.2905 3.84533 48.2888 3.64934C48.3075 2.3329 48.3075 2.3329 48.7816 1.6875C49.2334 1.38461 49.4609 1.29861 50 1.30703Z" fill="#F78319"/>
<path id="Vector_14" d="M59.4 31.0068C59.499 31.3038 59.499 31.3038 59.6 31.6068C57.092 34.1148 54.584 36.6228 52 39.2068C51.802 39.1408 51.604 39.0748 51.4 39.0068C55.8335 34.2349 55.8335 34.2349 57.8414 32.5209C58.3883 32.042 58.8925 31.527 59.4 31.0068Z" fill="#F78319"/>
<path id="Vector_15" d="M39.4 21.0068C39.532 21.0728 39.664 21.1388 39.8 21.2068C38.7373 22.4666 37.631 23.7086 36.4 24.8068C36.268 24.8068 36.136 24.8068 36 24.8068C36.6667 23.2712 38.0915 22.0134 39.4 21.0068Z" fill="#F78319"/>
<path id="Vector_16" d="M23 17.0068C23 17.0728 23 17.1388 23 17.2068C22.6721 17.2872 22.6721 17.2872 22.3375 17.3693C21.5045 17.5966 21.5045 17.5966 21 18.2068C20.9527 18.7504 20.9731 19.2588 21 19.8068C20.868 19.7408 20.736 19.6748 20.6 19.6068C20.4041 18.8231 20.3227 18.3763 20.6625 17.6318C21.3207 16.803 22.0093 16.9908 23 17.0068Z" fill="#F78319"/>
<path id="Vector_17" d="M42.4 19.4072C42.334 19.6712 42.268 19.9352 42.2 20.2072C41.672 20.2732 41.144 20.3392 40.6 20.4072C41.1089 19.8474 41.6152 19.4072 42.4 19.4072Z" fill="#F78319"/>
</g>
</svg>
