<svg width="100" height="101" viewBox="0 0 100 101" fill="none" xmlns="http://www.w3.org/2000/svg">
<g id="payment-protection-removebg-preview 1" clip-path="url(#clip0_56_1956)">
<path id="Vector" d="M2.00686e-05 36.6074C18.216 36.6074 36.432 36.6074 55.2 36.6074C55.266 36.8714 55.332 37.1354 55.4 37.4074C55.2961 37.4969 55.1922 37.5863 55.0852 37.6785C54.9457 37.7994 54.8062 37.9203 54.6625 38.0449C54.5256 38.1633 54.3887 38.2816 54.2477 38.4035C53.7471 38.8551 53.2749 39.3289 52.8 39.8074C52.6252 39.9753 52.4504 40.1431 52.2703 40.316C51.0907 41.4602 50.0755 42.6106 49.2 44.0074C49.1315 44.1156 49.0631 44.2239 48.9925 44.3354C48.4397 45.2137 47.912 46.1047 47.4 47.0074C47.3295 47.1317 47.2591 47.2559 47.1864 47.3839C43.3393 54.2943 42.6473 62.6782 44.718 70.2504C45.8423 74.156 47.6174 77.9098 50.1867 81.0762C50.4 81.4074 50.4 81.4074 50.4 82.0074C44.6759 82.0257 38.9517 82.0398 33.2275 82.0483C32.5511 82.0493 31.8747 82.0503 31.1984 82.0514C30.9964 82.0517 30.9964 82.0517 30.7903 82.052C28.6124 82.0555 26.4346 82.0618 24.2567 82.0691C22.0206 82.0766 19.7846 82.081 17.5485 82.0827C16.2931 82.0837 15.0377 82.0862 13.7823 82.092C12.6001 82.0974 11.4179 82.0991 10.2356 82.0979C9.80232 82.0981 9.36905 82.0997 8.9358 82.1028C8.34263 82.1068 7.74967 82.1058 7.1565 82.1036C6.98645 82.106 6.8164 82.1083 6.64121 82.1107C4.57418 82.0903 3.02483 81.2587 1.60002 79.8074C-0.290685 77.8642 -0.110883 75.4084 -0.0908002 72.8901C-0.0905549 72.4874 -0.0906624 72.0847 -0.0910924 71.6819C-0.0912724 70.6075 -0.0866501 69.5332 -0.0810041 68.4589C-0.0764338 67.4492 -0.0762328 66.4395 -0.0756635 65.4297C-0.0714728 62.4806 -0.0603038 59.5315 -0.0499799 56.5824C-0.0334799 49.9907 -0.0169799 43.3989 2.00686e-05 36.6074ZM27.1711 60.215C26.9925 60.2167 26.8138 60.2184 26.6298 60.2201C26.3335 60.2229 26.3335 60.2229 26.0312 60.2258C25.8244 60.2277 25.6176 60.2297 25.4045 60.2317C24.7174 60.2382 24.0302 60.2447 23.343 60.2512C22.868 60.2557 22.3929 60.2601 21.9179 60.2646C20.6649 60.2765 19.4118 60.2883 18.1588 60.3001C16.8812 60.3122 15.6037 60.3243 14.3262 60.3363C11.8175 60.36 9.30874 60.3837 6.80002 60.4074C6.80002 61.9254 6.80002 63.4434 6.80002 65.0074C13.862 65.0074 20.924 65.0074 28.2 65.0074C28.2 63.4234 28.2 61.8394 28.2 60.2074C27.857 60.2074 27.5141 60.2118 27.1711 60.215ZM6.80002 70.4074C6.80002 71.9254 6.80002 73.4434 6.80002 75.0074C16.568 75.0074 26.336 75.0074 36.4 75.0074C36.466 73.4894 36.532 71.9714 36.6 70.4074C26.766 70.4074 16.932 70.4074 6.80002 70.4074Z" fill="#F78319"/>
<path id="Vector_2" d="M9.66412 14.9321C10.0112 14.9316 10.3584 14.9307 10.7055 14.9297C11.654 14.9276 12.6024 14.9292 13.5509 14.9314C14.5758 14.9332 15.6008 14.9315 16.6257 14.9303C18.6314 14.9284 20.637 14.9297 22.6426 14.9321C24.9791 14.9349 27.3157 14.9345 29.6522 14.9341C33.8214 14.9335 37.9907 14.9358 42.1599 14.9397C46.204 14.9435 50.2481 14.9449 54.2923 14.9438C58.6984 14.9426 63.1045 14.9426 67.5107 14.9449C67.9806 14.9452 68.4505 14.9454 68.9204 14.9456C69.1516 14.9458 69.3828 14.9459 69.621 14.946C71.2491 14.9468 72.8773 14.9467 74.5054 14.9463C76.4897 14.9459 78.4739 14.9469 80.4581 14.9498C81.4702 14.9513 82.4823 14.9521 83.4944 14.9512C84.4213 14.9504 85.3482 14.9514 86.2752 14.9539C86.61 14.9545 86.9448 14.9544 87.2797 14.9536C90.256 14.9469 92.7513 15.1176 95.0352 17.2085C98.2253 20.6924 96.8 26.3193 96.8 30.4069C64.856 30.4069 32.912 30.4069 0 30.4069C0 18.831 0 18.831 1.81953 16.9499C4.05196 14.9375 6.80753 14.9184 9.66412 14.9321Z" fill="#F78319"/>
<path id="Vector_3" d="M74.7875 36.7316C74.9234 36.7317 75.0593 36.7318 75.1994 36.7319C81.1257 36.7536 86.6853 38.7243 91.2 42.6066C91.3671 42.7502 91.3671 42.7502 91.5376 42.8967C96.045 46.8188 99.3889 52.453 99.966 58.4958C100.503 66.5748 98.725 73.0299 93.3695 79.1792C89.2384 83.803 83.0166 86.6838 76.829 87.0394C70.3231 87.2922 63.7768 85.5631 58.8 81.2066C58.6138 81.0473 58.4277 80.8879 58.2359 80.7238C53.7546 76.7917 50.5014 70.989 50 65.0066C49.6949 59.3242 50.2884 53.7258 53.4 48.8066C53.5289 48.6024 53.6578 48.3982 53.7906 48.1878C57.6971 42.2859 63.7225 38.4097 70.6164 36.9839C72.0031 36.7428 73.3829 36.7297 74.7875 36.7316ZM68.4 46.2066C68.2765 46.3066 68.153 46.4067 68.0258 46.5097C66.3601 47.9788 65.3376 50.3964 65.1507 52.5831C65.1166 53.2243 65.0934 53.8648 65.075 54.5066C65.0673 54.7283 65.0595 54.95 65.0516 55.1785C65.0328 55.7211 65.0157 56.2638 65 56.8066C64.8627 56.8572 64.7254 56.9079 64.584 56.9601C64.4039 57.0288 64.2238 57.0975 64.0383 57.1683C63.7705 57.269 63.7705 57.269 63.4973 57.3718C62.7554 57.7221 62.4488 58.1261 62 58.8066C61.7661 59.5083 61.7703 60.0672 61.7646 60.8079C61.7633 60.9498 61.762 61.0917 61.7606 61.2378C61.7567 61.7074 61.7543 62.1769 61.7523 62.6464C61.7515 62.8072 61.7507 62.9679 61.7499 63.1335C61.7457 63.9847 61.7428 64.836 61.741 65.6872C61.7387 66.5639 61.7319 67.4405 61.7239 68.3172C61.7187 68.9934 61.717 69.6696 61.7163 70.3459C61.7153 70.6689 61.713 70.9919 61.7093 71.3149C61.6131 73.7089 61.6131 73.7089 62.6 75.8066C63.7771 76.663 64.7228 76.7227 66.1531 76.7133C66.4714 76.7159 66.4714 76.7159 66.7961 76.7185C67.4951 76.723 68.194 76.7217 68.893 76.7199C69.3804 76.7209 69.8678 76.7222 70.3552 76.7236C71.3759 76.7257 72.3965 76.7248 73.4171 76.7219C74.7234 76.7184 76.0295 76.7231 77.3358 76.7302C78.3421 76.7346 79.3484 76.7343 80.3547 76.7326C80.8362 76.7325 81.3178 76.7338 81.7993 76.7368C82.4733 76.7403 83.147 76.7374 83.821 76.7328C84.0188 76.7352 84.2166 76.7375 84.4203 76.7399C85.6979 76.7224 86.655 76.5106 87.6 75.6066C88.1738 74.6354 88.2755 73.8241 88.2776 72.7081C88.2787 72.5655 88.2797 72.4228 88.2808 72.2759C88.2834 71.8087 88.2817 71.3417 88.2797 70.8746C88.2801 70.5476 88.2807 70.2207 88.2814 69.8937C88.2823 69.2104 88.281 68.527 88.2782 67.8437C88.2748 66.9696 88.2768 66.0957 88.2804 65.2217C88.2825 64.5472 88.2818 63.8727 88.2803 63.1982C88.2799 62.876 88.2804 62.5538 88.2818 62.2316C88.2833 61.7807 88.281 61.33 88.2776 60.8792C88.2769 60.4952 88.2769 60.4952 88.2762 60.1033C88.1737 59.1662 87.8316 58.5184 87.275 57.7691C86.7944 57.4023 86.4404 57.2656 85.8703 57.0839C85.6261 57.0053 85.6261 57.0053 85.377 56.9251C85.2526 56.886 85.1282 56.8469 85 56.8066C84.9981 56.6748 84.9963 56.543 84.9943 56.4072C84.9262 52.5848 84.7017 49.3684 81.95 46.4566C79.9082 44.5176 77.4564 43.5271 74.632 43.5761C72.2043 43.7473 70.2201 44.6144 68.4 46.2066Z" fill="#F78319"/>
<path id="Vector_4" d="M78.1953 49.471C79.277 50.3133 79.7733 51.3269 80.2 52.6069C80.2185 52.9299 80.2261 53.2537 80.2265 53.5772C80.2269 53.8572 80.2269 53.8572 80.2273 54.1429C80.2262 54.4344 80.2262 54.4344 80.225 54.7319C80.2261 55.0258 80.2261 55.0258 80.2273 55.3257C80.2271 55.5118 80.2268 55.6979 80.2265 55.8897C80.2263 56.0608 80.2261 56.2319 80.2259 56.4082C80.2 56.8069 80.2 56.8069 80 57.0069C79.688 57.0266 79.3751 57.0325 79.0625 57.0328C78.8629 57.0334 78.6634 57.0341 78.4578 57.0347C78.2407 57.0343 78.0236 57.0339 77.8 57.0335C77.5788 57.0337 77.3576 57.0339 77.1297 57.0341C76.6609 57.0342 76.1922 57.0338 75.7234 57.033C75.0031 57.0319 74.2828 57.033 73.5625 57.0343C73.1083 57.0341 72.6541 57.0339 72.2 57.0335C71.9829 57.0339 71.7658 57.0343 71.5422 57.0347C71.3426 57.0341 71.1431 57.0334 70.9375 57.0328C70.7609 57.0326 70.5843 57.0325 70.4023 57.0323C70 57.0069 70 57.0069 69.8 56.8069C69.6 54.8012 69.4766 52.3538 70.6 50.6069C72.6955 48.1533 75.495 47.6672 78.1953 49.471Z" fill="#F78319"/>
<path id="Vector_5" d="M59.2 42.207C59.332 42.273 59.464 42.339 59.6 42.407C59.1141 42.9045 58.626 43.3997 58.1375 43.8945C57.9304 44.1066 57.9304 44.1066 57.7191 44.323C57.5857 44.4578 57.4523 44.5925 57.3148 44.7313C57.1923 44.8559 57.0698 44.9805 56.9435 45.1089C56.6 45.407 56.6 45.407 56 45.607C56.5949 44.2073 58.0022 43.0957 59.2 42.207Z" fill="#F78319"/>
<path id="Vector_6" d="M2.80001 16.207C2.93201 16.273 3.06401 16.339 3.20001 16.407C2.94292 16.6749 2.6843 16.9413 2.42501 17.207C2.28115 17.3555 2.13729 17.504 1.98907 17.657C1.60001 18.007 1.60001 18.007 1.20001 18.007C1.51662 17.1522 2.10115 16.754 2.80001 16.207Z" fill="#F78319"/>
<path id="Vector_7" d="M72.2 49.4072C71.9018 50.1663 71.4486 50.5293 70.8 51.0072C70.8 50.4072 70.8 50.4072 71.275 49.8697C71.8 49.4072 71.8 49.4072 72.2 49.4072Z" fill="#F78319"/>
</g>
<defs>
<clipPath id="clip0_56_1956">
<rect width="100" height="100" fill="white" transform="translate(0 0.207031)"/>
</clipPath>
</defs>
</svg>
