<svg width="100" height="101" viewBox="0 0 100 101" fill="none" xmlns="http://www.w3.org/2000/svg">
<g id="property-removebg-preview 1">
<path id="Vector" d="M32.8758 58.7764C36.885 58.639 40.585 60.3352 44.2104 61.8357C49.917 64.1964 55.6746 65.8455 61.8812 66.0475C62.0601 66.0539 62.2389 66.0602 62.4232 66.0668C62.7623 66.0775 63.1015 66.0847 63.4408 66.0875C64.8294 66.1263 65.9177 66.5014 66.8875 67.5209C67.5459 68.548 67.5221 69.6243 67.4 70.8084C66.8889 71.8495 66.2175 72.5878 65.1101 72.9834C60.0903 74.4397 53.3906 73.8159 48.6359 71.6748C47.9055 71.3689 47.5503 71.3816 46.8 71.6084C46.3319 71.9951 46.3319 71.9951 46.3125 72.6834C46.3337 73.4087 46.3337 73.4087 46.7625 73.8459C48.2361 74.6839 49.8043 75.0808 51.45 75.4334C51.5973 75.4651 51.7447 75.4968 51.8966 75.5295C54.4416 76.0478 56.9542 76.2915 59.55 76.2834C59.6892 76.2832 59.8285 76.2831 59.9719 76.2829C62.2651 76.2734 64.3996 76.0806 66.6 75.4084C66.7488 75.3655 66.8976 75.3225 67.0509 75.2782C72.2113 73.7602 77.0189 70.9644 81.6 68.2084C81.7176 68.1377 81.8352 68.0669 81.9564 67.994C83.8788 66.8369 85.7954 65.6703 87.7078 64.4968C91.9604 61.888 91.9604 61.888 94.2 62.2084C95.1015 62.4632 95.7688 62.8505 96.3 63.6334C96.7311 64.5443 96.7885 65.4246 96.6 66.4084C94.7818 71.039 87.7004 74.1934 83.6025 76.5729C83.1017 76.8659 82.605 77.1655 82.1087 77.4662C79.0735 79.3042 76.0093 81.0905 72.8 82.6084C72.6607 82.6754 72.5215 82.7424 72.378 82.8114C70.6894 83.6187 68.99 84.3199 67.2 84.8709C67.0533 84.917 66.9067 84.963 66.7556 85.0105C63.9113 85.8413 61.0376 86.1128 58.0875 86.0834C57.9281 86.0828 57.7687 86.0822 57.6044 86.0816C54.1171 86.0666 50.6542 85.7973 47.1802 85.5161C41.6458 85.0726 35.6811 84.6737 30.5062 87.0569C30 87.2084 30 87.2084 29.609 87.0555C29.1947 86.8052 28.8906 86.5483 28.5495 86.206C28.3636 86.021 28.3636 86.021 28.1739 85.8321C28.0403 85.697 27.9066 85.562 27.7689 85.4228C27.6264 85.2803 27.4839 85.1379 27.337 84.9911C26.8664 84.5202 26.3973 84.0479 25.9281 83.5756C25.602 83.2488 25.2758 82.922 24.9495 82.5953C24.0911 81.7354 23.234 80.8743 22.377 80.013C21.5023 79.1342 20.6265 78.2565 19.7508 77.3787C18.0327 75.6564 16.3159 73.9328 14.6 72.2084C14.8526 71.5511 15.0682 71.0638 15.5547 70.5514C15.6681 70.4308 15.7815 70.3102 15.8983 70.186C16.0848 69.9929 16.0848 69.9929 16.275 69.7959C16.4062 69.6586 16.5375 69.5212 16.6727 69.3797C17.1133 68.9208 17.5567 68.4647 18 68.0084C18.2366 67.762 18.2366 67.762 18.4781 67.5106C22.4427 63.3897 26.8838 59.1798 32.8758 58.7764Z" fill="#F78319"/>
<path id="Vector_2" d="M50.4 8.6084C58.848 8.6084 67.296 8.6084 76 8.6084C76 24.3164 76 40.0244 76 56.2084C73.36 56.2084 70.72 56.2084 68 56.2084C67.634 55.8424 67.7693 55.2598 67.7653 54.7683C67.7633 54.5741 67.7633 54.5741 67.7613 54.3761C67.7584 54.0941 67.7561 53.8121 67.7541 53.5301C67.7508 53.0837 67.7461 52.6374 67.7411 52.1911C67.7269 50.9217 67.7149 49.6523 67.7047 48.3829C67.6983 47.6071 67.69 46.8314 67.6806 46.0558C67.6774 45.76 67.675 45.4643 67.6732 45.1685C67.6708 44.7543 67.666 44.3403 67.6606 43.9261C67.6575 43.5726 67.6575 43.5726 67.6544 43.212C67.6018 42.6279 67.5173 42.2951 67.2 41.8084C66.2266 41.0925 64.8169 41.3418 63.6602 41.3453C63.2147 41.3459 62.7694 41.3412 62.3239 41.3361C62.0391 41.3357 61.7543 41.3355 61.4696 41.3357C61.2118 41.3351 60.954 41.3346 60.6884 41.3339C59.9435 41.4145 59.5753 41.533 59 42.0084C58.6014 42.7939 58.5463 43.4595 58.5363 44.3336C58.5332 44.527 58.5332 44.527 58.5302 44.7242C58.524 45.1473 58.5206 45.5704 58.5172 45.9936C58.5135 46.2881 58.5096 46.5826 58.5055 46.8771C58.4952 47.6501 58.4873 48.4231 58.4798 49.1961C58.4704 50.1247 58.4581 51.0534 58.4463 51.982C58.4287 53.3908 58.4147 54.7996 58.4 56.2084C55.76 56.2084 53.12 56.2084 50.4 56.2084C50.4 40.5004 50.4 24.7924 50.4 8.6084ZM57.2 16.2084C57.2 17.6604 57.2 19.1124 57.2 20.6084C58.652 20.6084 60.104 20.6084 61.6 20.6084C61.6 19.1564 61.6 17.7044 61.6 16.2084C60.148 16.2084 58.696 16.2084 57.2 16.2084ZM64.8 16.2084C64.8 17.6604 64.8 19.1124 64.8 20.6084C66.252 20.6084 67.704 20.6084 69.2 20.6084C69.2 19.1564 69.2 17.7044 69.2 16.2084C67.748 16.2084 66.296 16.2084 64.8 16.2084ZM57.2 23.8084C57.2 25.2604 57.2 26.7124 57.2 28.2084C58.652 28.2084 60.104 28.2084 61.6 28.2084C61.6 26.7564 61.6 25.3044 61.6 23.8084C60.148 23.8084 58.696 23.8084 57.2 23.8084ZM64.8 23.8084C64.8 25.2604 64.8 26.7124 64.8 28.2084C66.252 28.2084 67.704 28.2084 69.2 28.2084C69.2 26.7564 69.2 25.3044 69.2 23.8084C67.748 23.8084 66.296 23.8084 64.8 23.8084Z" fill="#F78319"/>
<path id="Vector_3" d="M78.6 18.0078C84.54 18.0078 90.48 18.0078 96.6 18.0078C96.6 30.6138 96.6 43.2198 96.6 56.2078C95.016 56.2078 93.432 56.2078 91.8 56.2078C91.794 55.2946 91.794 55.2946 91.788 54.363C91.7746 52.3546 91.7591 50.3461 91.7425 48.3376C91.7325 47.1196 91.7232 45.9015 91.7156 44.6834C91.7082 43.5086 91.699 42.3337 91.6883 41.1588C91.6846 40.71 91.6816 40.2611 91.6793 39.8122C91.6759 39.1849 91.6701 38.5576 91.6637 37.9302C91.6633 37.7435 91.6629 37.5568 91.6624 37.3644C91.6602 37.1936 91.658 37.0228 91.6557 36.8468C91.6546 36.6984 91.6534 36.55 91.6523 36.3971C91.6203 35.9432 91.6203 35.9432 91.2 35.4078C90.4832 35.3578 90.4832 35.3578 89.8 35.4078C89.5725 35.8627 89.5732 36.1161 89.5697 36.6214C89.5672 36.8768 89.5672 36.8768 89.5646 37.1373C89.5638 37.3244 89.5629 37.5115 89.5621 37.7043C89.5604 37.9011 89.5588 38.0979 89.557 38.3006C89.5536 38.7287 89.5505 39.1568 89.5479 39.5849C89.5437 40.2613 89.5383 40.9377 89.5326 41.6141C89.5186 43.2939 89.5067 44.9737 89.4947 46.6534C89.4846 48.0724 89.4736 49.4914 89.4616 50.9103C89.4563 51.5788 89.4521 52.2472 89.448 52.9156C89.4447 53.3228 89.4413 53.73 89.4379 54.1372C89.437 54.3247 89.4362 54.5122 89.4353 54.7055C89.4227 55.985 89.4227 55.985 89.2 56.2078C88.6274 56.2225 88.0598 56.2263 87.4875 56.2203C87.3262 56.2194 87.1649 56.2185 86.9988 56.2176C86.5992 56.2152 86.1996 56.2116 85.8 56.2078C85.7983 55.9561 85.7967 55.7043 85.7951 55.445C85.7796 53.0758 85.762 50.7067 85.7425 48.3376C85.7325 47.1196 85.7232 45.9015 85.7156 44.6834C85.7082 43.5086 85.699 42.3337 85.6883 41.1588C85.6846 40.71 85.6816 40.2611 85.6793 39.8122C85.6759 39.1849 85.6701 38.5576 85.6637 37.9302C85.6633 37.7435 85.6629 37.5568 85.6624 37.3644C85.6602 37.1936 85.658 37.0228 85.6557 36.8468C85.6546 36.6984 85.6534 36.55 85.6523 36.3971C85.6203 35.9432 85.6203 35.9432 85.2 35.4078C84.8045 35.3352 84.8045 35.3352 84.375 35.3703C84.1192 35.3827 83.8635 35.3951 83.6 35.4078C83.5979 35.6654 83.5958 35.9231 83.5937 36.1885C83.5742 38.6107 83.5537 41.033 83.5321 43.4552C83.521 44.7006 83.5104 45.946 83.5005 47.1915C83.491 48.3923 83.4805 49.5931 83.4694 50.7939C83.4653 51.2531 83.4615 51.7124 83.4581 52.1716C83.4534 52.8125 83.4473 53.4533 83.441 54.0941C83.4399 54.286 83.4387 54.4779 83.4375 54.6756C83.4356 54.8492 83.4336 55.0228 83.4316 55.2017C83.4303 55.3534 83.429 55.5052 83.4277 55.6615C83.4 56.0078 83.4 56.0078 83.2 56.2078C82.8438 56.2253 82.487 56.2292 82.1304 56.2273C81.9145 56.2267 81.6986 56.2261 81.4761 56.2254C81.2489 56.2237 81.0216 56.222 80.7875 56.2203C80.5594 56.2194 80.3314 56.2185 80.0964 56.2176C79.5309 56.2152 78.9655 56.2119 78.4 56.2078C78.3953 51.2567 78.3918 46.3056 78.3896 41.3544C78.3886 39.0557 78.3872 36.757 78.3849 34.4583C78.3829 32.4555 78.3816 30.4527 78.3811 28.4499C78.3809 27.3887 78.3803 26.3276 78.3788 25.2664C78.3775 24.2688 78.377 23.2713 78.3773 22.2737C78.3773 21.9064 78.3769 21.5392 78.3761 21.1719C78.3751 20.6728 78.3754 20.1736 78.3759 19.6745C78.3753 19.5272 78.3747 19.3799 78.3741 19.2282C78.3771 18.2306 78.3771 18.2306 78.6 18.0078ZM83 24.6078C83 25.7298 83 26.8518 83 28.0078C85.97 28.0078 88.94 28.0078 92 28.0078C92 26.8858 92 25.7638 92 24.6078C91.3529 24.2843 90.6443 24.3795 89.9336 24.3813C89.6849 24.381 89.6849 24.381 89.4313 24.3807C89.0801 24.3805 88.7289 24.3809 88.3776 24.3817C87.8417 24.3828 87.3058 24.3818 86.7699 24.3805C86.4286 24.3806 86.0873 24.3809 85.7461 24.3813C85.5862 24.3808 85.4264 24.3804 85.2617 24.38C85.1109 24.3807 84.9602 24.3813 84.8048 24.3819C84.6732 24.3821 84.5416 24.3823 84.4061 24.3824C83.8968 24.4051 83.8968 24.4051 83 24.6078Z" fill="#F78319"/>
<path id="Vector_4" d="M47.6 15.208C47.732 15.274 47.864 15.34 48 15.408C48.0046 20.6981 48.0081 25.9883 48.0103 31.2784C48.0113 33.7345 48.0128 36.1906 48.015 38.6467C48.017 40.7866 48.0183 42.9265 48.0188 45.0665C48.019 46.2003 48.0196 47.3341 48.0211 48.4679C48.0224 49.5338 48.0229 50.5996 48.0226 51.6655C48.0226 52.0579 48.023 52.4503 48.0238 52.8427C48.0248 53.376 48.0246 53.9093 48.024 54.4426C48.0246 54.6 48.0252 54.7574 48.0258 54.9196C48.0228 55.9852 48.0228 55.9852 47.8 56.208C43.972 56.208 40.144 56.208 36.2 56.208C36.2 44.262 36.2 32.316 36.2 20.008C41.9521 17.4771 41.9521 17.4771 44.15 16.5955C44.3766 16.5039 44.6032 16.4122 44.8367 16.3178C45.4241 16.0804 46.0119 15.8438 46.6 15.608C46.7795 15.5287 46.959 15.4495 47.1439 15.3678C47.2944 15.3151 47.4449 15.2623 47.6 15.208Z" fill="#F78319"/>
<path id="Vector_5" d="M10.275 73.2953C10.4498 73.2868 10.6246 73.2783 10.8047 73.2695C12.2908 73.6147 13.4677 75.0172 14.5124 76.0684C14.6541 76.2094 14.7957 76.3504 14.9417 76.4956C15.4051 76.9573 15.8671 77.4204 16.3289 77.8836C16.6525 78.2069 16.9761 78.5301 17.2998 78.8533C17.9757 79.5286 18.6509 80.2046 19.3256 80.8812C20.1899 81.7479 21.0561 82.6127 21.9228 83.477C22.5905 84.1432 23.2571 84.8104 23.9235 85.4778C24.2426 85.7971 24.562 86.1162 24.8816 86.4349C25.3278 86.88 25.7726 87.3264 26.2171 87.7731C26.3489 87.9041 26.4808 88.0352 26.6166 88.1702C27.5546 89.1169 28.2855 89.8868 28.2875 91.2828C28.2914 91.4617 28.2953 91.6407 28.2992 91.825C27.987 93.6593 26.42 94.8572 25.15 96.0953C24.9416 96.3008 24.7332 96.5064 24.525 96.7121C24.0183 97.2123 23.5097 97.7106 23 98.2078C22.3363 97.9183 21.9 97.5572 21.3901 97.046C21.2308 96.8873 21.0715 96.7285 20.9074 96.565C20.7345 96.3906 20.5616 96.2163 20.3834 96.0366C20.1999 95.8532 20.0165 95.6698 19.8274 95.4808C19.3249 94.9784 18.8237 94.4748 18.3226 93.971C17.7986 93.4444 17.2734 92.919 16.7483 92.3935C15.7545 91.3984 14.7617 90.4023 13.7692 89.4058C12.6392 88.2713 11.508 87.1379 10.3767 86.0046C8.04989 83.6736 5.72449 81.3412 3.40002 79.0078C3.90253 77.9385 4.72804 77.2129 5.55872 76.386C5.84806 76.0973 6.13464 75.806 6.42112 75.5145C6.60494 75.3305 6.78876 75.1466 6.97815 74.957C7.14528 74.7893 7.3124 74.6216 7.48459 74.4488C8.33648 73.72 9.15056 73.32 10.275 73.2953Z" fill="#F78319"/>
<path id="Vector_6" d="M25.4 27.8076C28.172 27.8076 30.944 27.8076 33.8 27.8076C33.8 37.1796 33.8 46.5516 33.8 56.2076C31.028 56.2076 28.256 56.2076 25.4 56.2076C25.4 46.8356 25.4 37.4636 25.4 27.8076Z" fill="#F78319"/>
<path id="Vector_7" d="M54.4919 2.18121C54.7709 2.18182 54.7709 2.18182 55.0555 2.18244C55.3476 2.18191 55.3476 2.18191 55.6457 2.18137C56.293 2.18049 56.9402 2.18108 57.5875 2.18175C58.0351 2.18162 58.4828 2.18142 58.9304 2.18117C59.87 2.18088 60.8095 2.18131 61.749 2.18224C62.9563 2.18338 64.1636 2.18272 65.3709 2.18153C66.2957 2.1808 67.2204 2.18103 68.1452 2.18155C68.5905 2.18169 69.0358 2.18152 69.481 2.18106C70.1022 2.18055 70.7234 2.18132 71.3445 2.18244C71.5305 2.18203 71.7165 2.18163 71.9081 2.18121C73.1771 2.18546 73.1771 2.18546 73.4 2.40831C73.4197 2.6744 73.4262 2.9415 73.4266 3.20831C73.4268 3.36919 73.4271 3.53006 73.4273 3.69581C73.4266 3.86494 73.4258 4.03406 73.425 4.20831C73.4258 4.37744 73.4265 4.54656 73.4273 4.72081C73.4271 4.88169 73.4268 5.04256 73.4266 5.20831C73.4263 5.35681 73.4261 5.50531 73.4259 5.65831C73.4 6.00831 73.4 6.00831 73.2 6.20831C72.5801 6.22845 71.9646 6.23554 71.3445 6.23419C71.0524 6.23472 71.0524 6.23472 70.7543 6.23526C70.107 6.23614 69.4598 6.23555 68.8125 6.23488C68.3649 6.23501 67.9172 6.23521 67.4696 6.23546C66.53 6.23575 65.5905 6.23532 64.651 6.23439C63.4437 6.23325 62.2364 6.23391 61.0291 6.2351C60.1043 6.23582 59.1796 6.2356 58.2548 6.23508C57.8095 6.23494 57.3642 6.23511 56.919 6.23557C56.2978 6.23608 55.6766 6.23531 55.0555 6.23419C54.8695 6.2346 54.6835 6.235 54.4919 6.23542C53.2229 6.23117 53.2229 6.23117 53 6.00831C52.9803 5.74223 52.9738 5.47513 52.9734 5.20831C52.9732 5.04744 52.9729 4.88656 52.9727 4.72081C52.9734 4.55169 52.9742 4.38256 52.975 4.20831C52.9742 4.03919 52.9735 3.87006 52.9727 3.69581C52.9729 3.53494 52.9732 3.37406 52.9734 3.20831C52.9737 3.05981 52.9739 2.91131 52.9741 2.75831C53.0369 1.90886 53.8142 2.18348 54.4919 2.18121Z" fill="#F78319"/>
<path id="Vector_8" d="M47.6 15.208C47.732 15.274 47.864 15.34 48 15.408C48.0046 20.6981 48.0081 25.9883 48.0103 31.2784C48.0113 33.7345 48.0128 36.1906 48.015 38.6467C48.017 40.7866 48.0183 42.9265 48.0188 45.0665C48.019 46.2003 48.0196 47.3341 48.0211 48.4679C48.0224 49.5338 48.0229 50.5996 48.0226 51.6655C48.0226 52.0579 48.023 52.4503 48.0238 52.8427C48.0248 53.376 48.0246 53.9093 48.024 54.4426C48.0246 54.6 48.0252 54.7574 48.0258 54.9196C48.0228 55.9852 48.0228 55.9852 47.8 56.208C43.972 56.208 40.144 56.208 36.2 56.208C36.2 44.262 36.2 32.316 36.2 20.008C36.332 20.008 36.464 20.008 36.6 20.008C36.6 31.822 36.6 43.636 36.6 55.808C40.23 55.808 43.86 55.808 47.6 55.808C47.6 42.41 47.6 29.012 47.6 15.208Z" fill="#F78319"/>
<path id="Vector_9" d="M50.4 8.6084C58.848 8.6084 67.296 8.6084 76 8.6084C76 24.3164 76 40.0244 76 56.2084C73.36 56.2084 70.72 56.2084 68 56.2084C67.6344 55.8428 67.7693 55.2626 67.7653 54.7715C67.764 54.6424 67.7626 54.5132 67.7613 54.3802C67.7584 54.0989 67.7561 53.8175 67.7541 53.5362C67.7508 53.0906 67.7461 52.6451 67.7411 52.1995C67.7269 50.9324 67.7149 49.6652 67.7047 48.3979C67.6983 47.6235 67.69 46.8491 67.6806 46.0747C67.6774 45.7797 67.675 45.4847 67.6732 45.1896C67.6708 44.776 67.666 44.3624 67.6606 43.9488C67.6575 43.596 67.6575 43.596 67.6544 43.236C67.6006 42.6149 67.4644 42.1692 67.2 41.6084C67.332 41.6084 67.464 41.6084 67.6 41.6084C68.3132 43.0956 68.2778 44.4972 68.2586 46.1209C68.2575 46.4011 68.2566 46.6813 68.256 46.9615C68.2538 47.6941 68.2479 48.4266 68.2412 49.1591C68.2351 49.9086 68.2323 50.6581 68.2293 51.4076C68.2232 52.8746 68.2115 54.3414 68.2 55.8084C70.708 55.8084 73.216 55.8084 75.8 55.8084C75.8 40.2984 75.8 24.7884 75.8 8.8084C67.484 8.8084 59.168 8.8084 50.6 8.8084C50.6 24.3844 50.6 39.9604 50.6 56.0084C53.174 56.0084 55.748 56.0084 58.4 56.0084C58.4 56.0744 58.4 56.1404 58.4 56.2084C55.76 56.2084 53.12 56.2084 50.4 56.2084C50.4 40.5004 50.4 24.7924 50.4 8.6084Z" fill="#F78319"/>
<path id="Vector_10" d="M8.40002 74.0078C8.09398 74.7376 7.65754 75.1913 7.09299 75.7398C6.91472 75.915 6.73644 76.0902 6.55276 76.2707C6.36623 76.4521 6.1797 76.6334 5.98752 76.8203C5.6176 77.1801 5.24854 77.5407 4.88049 77.9023C4.71651 78.0617 4.55252 78.221 4.38357 78.3852C3.95926 78.7956 3.95926 78.7956 3.80002 79.4078C3.66802 79.1438 3.53602 78.8798 3.40002 78.6078C4.04654 77.9514 4.69434 77.2964 5.34338 76.6425C5.56412 76.4197 5.7845 76.1966 6.00452 75.9731C6.32031 75.6525 6.63737 75.3332 6.95471 75.0141C7.05327 74.9134 7.15182 74.8128 7.25336 74.7092C7.95448 74.0078 7.95448 74.0078 8.40002 74.0078Z" fill="#F78319"/>
<path id="Vector_11" d="M15.6 70.6084C15.666 70.8724 15.732 71.1364 15.8 71.4084C15.47 71.6724 15.14 71.9364 14.8 72.2084C14.8 71.4267 15.1012 71.1852 15.6 70.6084Z" fill="#F78319"/>
</g>
</svg>
