<svg width="100" height="101" viewBox="0 0 100 101" fill="none" xmlns="http://www.w3.org/2000/svg">
<g id="review-removebg-preview 1">
<path id="Vector" d="M58.0374 44.957C59.5507 46.2288 60.581 47.6716 61.4749 49.4195C61.5418 49.5492 61.6086 49.6789 61.6774 49.8125C63.0487 52.6243 63.0442 56.2618 62.0507 59.1937C61.0701 61.5919 59.623 63.5851 57.5999 65.207C57.7096 65.2542 57.8193 65.3014 57.9322 65.35C64.7943 68.3214 69.5579 72.7954 72.3625 79.757C72.8049 80.9513 73.1246 82.1644 73.4 83.407C74.9573 82.0447 76.3385 80.6567 77.6 79.007C77.7477 78.8178 77.8954 78.6285 78.0476 78.4336C81.0499 74.5239 83.1797 70.3902 84.4 65.607C84.4396 65.4563 84.4792 65.3056 84.5201 65.1504C85.607 60.9602 85.8276 56.7031 85.3423 52.4097C85.0523 49.8238 85.0523 49.8238 85.6 49.0195C86.4301 48.4488 86.806 48.465 87.8 48.607C88.3389 48.9332 88.5322 49.2018 88.7289 49.7976C90.9106 58.7756 88.2487 69.1476 83.5925 76.8574C77.995 85.8534 69.3408 92.1634 59.0499 94.6695C58.8514 94.718 58.6529 94.7665 58.4484 94.8165C55.6769 95.4598 52.9587 95.6898 50.1249 95.682C49.9684 95.6818 49.8119 95.6817 49.6507 95.6815C39.9369 95.6459 30.6987 92.0325 23.5999 85.407C23.2708 85.1195 22.9416 84.832 22.6124 84.5445C15.9305 78.5004 11.3199 69.0107 10.7999 60.007C10.7526 58.7823 10.7413 57.5575 10.7374 56.332C10.7367 56.1796 10.7359 56.0272 10.7351 55.8702C10.7212 50.2966 10.7212 50.2966 11.7999 48.807C12.4493 48.4823 13.0983 48.4999 13.7999 48.607C14.4124 48.932 14.4124 48.932 14.7999 49.607C14.8353 50.5526 14.7182 51.4698 14.5999 52.407C13.7395 61.022 15.6337 70.5685 21.1999 77.407C21.3604 77.6201 21.3604 77.6201 21.5242 77.8375C22.2463 78.7952 23.0142 79.7154 23.7874 80.632C23.9308 80.8042 23.9308 80.8042 24.0771 80.9799C24.844 81.8796 25.6951 82.6478 26.5999 83.407C26.6279 83.2976 26.6559 83.1882 26.6847 83.0754C28.3634 76.6139 31.766 71.0433 37.5742 67.4711C39.1085 66.5756 40.7665 65.8987 42.3999 65.207C42.3082 65.1308 42.2164 65.0546 42.1218 64.9762C39.7711 62.9983 37.8082 60.1187 37.3999 57.007C37.1158 52.8656 37.8214 49.5108 40.571 46.2617C45.2979 41.2507 52.6208 40.8739 58.0374 44.957ZM43.7124 48.0945C41.7406 49.9906 40.8443 52.1114 40.7624 54.8695C40.8103 57.4436 41.7662 59.7276 43.5468 61.6C45.5473 63.3969 47.7313 64.2003 50.3999 64.207C53.1222 64.0446 55.3806 62.8177 57.1999 60.807C58.7092 58.7777 59.3183 56.5263 59.1999 54.007C58.7932 51.3391 57.7955 49.2518 55.6468 47.5195C51.8555 44.8682 47.2407 45.0315 43.7124 48.0945Z" fill="#F78319"/>
<path id="Vector_2" d="M50.6 4.80738C51.7085 5.46627 52.0896 6.47118 52.6109 7.59644C52.8017 7.99312 52.9926 8.38973 53.1836 8.78629C53.4808 9.41046 53.7764 10.0353 54.0694 10.6614C54.3541 11.2669 54.6446 11.8692 54.9359 12.4714C55.0218 12.6594 55.1077 12.8473 55.1962 13.0409C55.6989 14.0901 55.6989 14.0901 56.6489 14.7108C57.0207 14.7586 57.0207 14.7586 57.4 14.8074C57.5418 14.8307 57.6836 14.854 57.8297 14.878C58.3126 14.9572 58.7962 15.0234 59.2813 15.0878C59.644 15.1384 60.0068 15.1891 60.3695 15.2398C60.9355 15.3178 61.5016 15.3951 62.0679 15.4714C62.6184 15.546 63.1686 15.623 63.7188 15.7003C63.9704 15.7332 63.9704 15.7332 64.2271 15.7667C65.243 15.9112 66.0843 16.1367 67 16.6074C67.3317 17.2707 67.3439 17.8954 67.2 18.6074C66.8349 19.2342 66.316 19.7025 65.8 20.2074C65.5647 20.4466 65.3299 20.6862 65.0953 20.9261C62.9963 23.0612 62.9963 23.0612 61.9 24.0074C61.7922 24.103 61.6845 24.1986 61.5734 24.2971C61.2 24.6074 61.2 24.6074 60.8083 24.8439C60.3117 25.1981 60.0737 25.4565 59.8 26.0074C59.7891 27.255 60.0397 28.4388 60.2875 29.6574C60.349 29.9888 60.4099 30.3203 60.4699 30.6519C60.6385 31.5721 60.8182 32.4898 61 33.4074C61.0832 33.8332 61.1654 34.2592 61.2461 34.6855C61.2771 34.8454 61.3081 35.0053 61.34 35.1701C61.4416 35.9104 61.3818 36.4801 61.2 37.2074C60.7254 37.7147 60.2783 37.8983 59.6 38.0074C59.2207 37.8966 59.2207 37.8966 58.8242 37.7035C58.6748 37.6319 58.5253 37.5603 58.3714 37.4865C58.2117 37.4068 58.052 37.327 57.8875 37.2449C57.7211 37.1639 57.5547 37.0828 57.3833 36.9994C55.8656 36.2543 54.3657 35.4739 52.8734 34.6793C52.7303 34.6036 52.5871 34.5279 52.4396 34.45C52.1298 34.279 51.825 34.0986 51.5244 33.9117C51.3684 33.8164 51.2123 33.7212 51.0516 33.623C50.8424 33.4897 50.8424 33.4897 50.629 33.3537C50.1922 33.1588 50.1922 33.1588 49.7115 33.3501C49.5427 33.435 49.3739 33.5199 49.2 33.6074C49.0339 33.6856 48.8678 33.7639 48.6966 33.8445C48.1098 34.1354 47.5233 34.4269 46.9375 34.7199C46.7241 34.8263 46.5107 34.9327 46.2908 35.0424C44.8959 35.7434 43.5234 36.4723 42.1822 37.2715C41.5266 37.6556 40.9635 37.9444 40.2 38.0074C39.1301 37.6088 39.1301 37.6088 38.763 37.0406C38.0286 35.089 39.2618 31.77 39.643 29.7648C39.7443 29.2297 39.8423 28.694 39.9398 28.1582C39.9719 27.9942 40.004 27.8302 40.037 27.6613C40.1952 26.7944 40.1952 26.7944 40.0535 25.938C39.7867 25.59 39.5162 25.275 39.2047 24.966C39.0879 24.8494 38.971 24.7328 38.8507 24.6128C38.7267 24.4914 38.6027 24.37 38.475 24.2449C38.284 24.0558 38.284 24.0558 38.0892 23.8629C37.3538 23.1396 36.6034 22.4455 35.8164 21.7785C35.2281 21.2542 34.6706 20.701 34.1125 20.1449C34.0059 20.0391 33.8992 19.9334 33.7894 19.8245C32.9559 18.9878 32.7803 18.6084 32.7148 17.4214C32.8482 16.7731 33.0609 16.6032 33.6 16.2074C34.3384 16.0349 35.0848 15.98 35.8391 15.9128C36.2923 15.8607 36.7454 15.8077 37.1984 15.7539C37.9104 15.6719 38.6211 15.5952 39.3352 15.5337C41.9496 15.3901 41.9496 15.3901 44.1974 14.2353C44.8634 13.3327 45.2612 12.3396 45.628 11.2858C45.8744 10.6005 46.197 9.97513 46.5289 9.32691C46.8502 8.66592 47.1699 8.00431 47.4855 7.34058C47.5906 7.1257 47.6957 6.91081 47.8039 6.68941C47.8949 6.49994 47.9858 6.31046 48.0795 6.11524C48.7162 5.10624 49.396 4.60672 50.6 4.80738Z" fill="#F78319"/>
<path id="Vector_3" d="M22.8 17.4074C23.6027 18.2293 24.0069 19.0083 24.3711 20.0965C25.3582 23.1133 25.3582 23.1133 27.403 25.3774C28.7157 25.8093 30.0371 25.8463 31.4098 25.8157C32.1837 25.8048 32.8985 25.8998 33.6625 26.0199C33.8639 26.0429 34.0653 26.0658 34.2727 26.0895C34.8805 26.2254 35.2937 26.4481 35.8 26.8074C36.1306 27.4686 36.1513 28.0981 36 28.8074C35.1689 30.0373 33.9599 31.0435 32.875 32.0449C32.4416 32.4477 32.0084 32.8506 31.5795 33.2583C31.2 33.6074 31.2 33.6074 30.5829 34.0832C30.1491 34.6772 30.1513 34.801 30.2125 35.5043C30.2693 35.8563 30.3322 36.2074 30.4 36.5574C30.431 36.7424 30.4621 36.9275 30.494 37.1181C30.5899 37.6825 30.6936 38.2449 30.8 38.8074C30.8902 39.2876 30.9803 39.7678 31.0688 40.2483C31.1213 40.5288 31.1763 40.809 31.2344 41.0885C31.4076 41.98 31.3995 42.7211 31.2 43.6074C30.702 44.1624 30.4007 44.3804 29.6596 44.4801C28.7793 44.3831 28.2257 44.0205 27.4852 43.5567C24.3494 41.4379 24.3494 41.4379 20.8133 40.9059C19.9931 41.2428 19.3036 41.7327 18.616 42.2875C17.9108 42.8299 17.1255 43.2127 16.3375 43.6199C16.1998 43.6984 16.0621 43.7768 15.9203 43.8577C15.1103 44.3098 14.5273 44.5096 13.6 44.4074C13.0802 44.2341 12.8686 44.1159 12.5755 43.652C11.9129 41.9734 12.8804 39.3287 13.1989 37.625C13.27 37.2426 13.3389 36.8598 13.4079 36.477C13.4704 36.1398 13.4704 36.1398 13.5341 35.7958C13.5962 35.2418 13.6072 34.919 13.4 34.4074C13.0299 34.026 12.6623 33.68 12.2625 33.3324C12.0269 33.1215 11.7918 32.91 11.5571 32.6981C11.4339 32.5868 11.3107 32.4756 11.1837 32.3609C10.5224 31.7517 9.88568 31.1183 9.25005 30.4824C9.12844 30.3617 9.00683 30.2409 8.88154 30.1165C7.81973 29.0515 7.81973 29.0515 7.73755 28.0324C7.75008 27.4559 7.78151 27.2381 8.08755 26.7324C9.54651 25.8072 11.6996 25.8144 13.375 25.5949C13.8955 25.5266 14.4157 25.4575 14.936 25.3879C15.1644 25.358 15.3928 25.3281 15.6281 25.2972C16.2126 25.2216 16.2126 25.2216 16.8 25.0074C17.0957 24.4866 17.3573 23.9748 17.611 23.434C17.7685 23.1092 17.9261 22.7845 18.0836 22.4598C18.3298 21.9462 18.5751 21.4323 18.8195 20.9179C19.0559 20.4221 19.2958 19.928 19.536 19.434C19.6077 19.2802 19.6794 19.1265 19.7533 18.968C20.4356 17.571 21.1805 16.9158 22.8 17.4074Z" fill="#F78319"/>
<path id="Vector_4" d="M79 17.4066C79.7556 18.0309 80.153 18.7988 80.5782 19.6636C80.6481 19.8031 80.7179 19.9426 80.79 20.0863C80.9366 20.3799 81.0825 20.674 81.2276 20.9683C81.4501 21.4193 81.6757 21.8686 81.9016 22.3179C82.044 22.6039 82.1862 22.8899 82.3282 23.1761C82.4294 23.3777 82.4294 23.3777 82.5327 23.5833C82.8169 24.1635 83 24.5516 83 25.2066C83.2256 25.2285 83.4512 25.2504 83.6836 25.273C85.4842 25.4523 87.2815 25.6544 89.075 25.8941C89.2519 25.9161 89.4288 25.9381 89.6111 25.9607C90.5313 26.0881 91.2467 26.2198 92 26.8066C92.3305 27.4675 92.3519 28.0975 92.2 28.8066C91.9407 29.1844 91.9407 29.1844 91.5946 29.5589C91.4674 29.6974 91.3402 29.8358 91.2091 29.9784C90.5432 30.6753 89.8711 31.3644 89.1875 32.0441C89.0513 32.1811 88.915 32.3181 88.7746 32.4593C88.6405 32.5932 88.5063 32.7272 88.368 32.8652C88.2491 32.9838 88.1303 33.1024 88.0078 33.2247C87.6 33.6066 87.6 33.6066 86.9425 34.046C86.3123 34.5711 86.3123 34.5711 86.3771 35.3955C86.4289 35.704 86.4878 36.0114 86.5524 36.3175C86.5812 36.4815 86.61 36.6454 86.6397 36.8143C86.7327 37.3381 86.8347 37.8596 86.9375 38.3816C87.0353 38.9022 87.1311 39.4231 87.2247 39.9445C87.2834 40.2685 87.3446 40.592 87.409 40.9149C87.6195 42.0375 87.7392 43.0978 87.075 44.0941C86.4123 44.5301 85.9855 44.4682 85.2 44.4066C84.5309 44.1407 84.5309 44.1407 83.8438 43.7714C83.7203 43.7062 83.5969 43.6411 83.4697 43.5739C83.0783 43.3667 82.6892 43.1555 82.3 42.9441C81.9105 42.7356 81.5205 42.5279 81.1303 42.3206C80.7759 42.1318 80.4225 41.941 80.0692 41.7501C79.8484 41.6367 79.6275 41.5234 79.4 41.4066C79.2811 41.3435 79.1622 41.2805 79.0397 41.2156C78.4666 40.9349 78.1121 40.7826 77.4785 40.9182C77.318 41.0046 77.1575 41.091 76.9922 41.18C76.8114 41.2742 76.6305 41.3683 76.4442 41.4653C76.2564 41.5697 76.0685 41.674 75.875 41.7816C75.6805 41.884 75.486 41.9864 75.2856 42.092C74.4425 42.5381 73.6087 43.0005 72.7766 43.4667C72.5533 43.5912 72.3301 43.7158 72.1 43.8441C71.9123 43.9542 71.7247 44.0642 71.5313 44.1777C70.907 44.4466 70.4735 44.4716 69.8 44.4066C69.2375 44.0941 69.2375 44.0941 68.8 43.6066C68.5577 42.5419 68.6443 41.6239 68.85 40.5667C68.8774 40.4152 68.9048 40.2637 68.933 40.1076C69.02 39.6277 69.1097 39.1484 69.2 38.6691C69.2902 38.1876 69.3796 37.706 69.467 37.2241C69.5213 36.9253 69.5771 36.6267 69.6346 36.3286C69.8256 35.3498 69.8256 35.3498 69.6 34.4066C69.3291 34.0503 69.3291 34.0503 68.9805 33.7214C68.8539 33.5957 68.7273 33.47 68.5968 33.3405C68.4617 33.2097 68.3267 33.0789 68.1875 32.9441C68.0509 32.8095 67.9143 32.6749 67.7736 32.5363C67.091 31.8681 66.4011 31.2152 65.675 30.5941C64.0938 29.2338 64.0938 29.2338 63.9118 28.4042C63.8743 27.7509 63.9485 27.2917 64.2875 26.7316C65.7429 25.8086 67.8909 25.8138 69.5625 25.5941C70.0806 25.5256 70.5985 25.4565 71.1164 25.387C71.4575 25.3422 71.4575 25.3422 71.8054 25.2964C72.0997 25.2519 72.0997 25.2519 72.4 25.2066C72.5459 25.1944 72.6917 25.1821 72.842 25.1696C73.4384 24.898 73.5545 24.4025 73.8118 23.8183C73.866 23.6981 73.9202 23.5778 73.976 23.454C74.1493 23.0685 74.3186 22.6815 74.4875 22.2941C76.2728 18.2526 76.2728 18.2526 77.2875 17.3941C77.9581 17.1487 78.3219 17.1901 79 17.4066Z" fill="#F78319"/>
<path id="Vector_5" d="M73.2 25.4066C71.3367 25.8157 69.455 26.0533 67.5632 26.289C67.3222 26.3214 67.0811 26.3537 66.8328 26.387C66.6151 26.4149 66.3974 26.4427 66.1731 26.4714C65.5672 26.6143 65.2796 26.8256 64.8 27.2066C64.602 27.2066 64.404 27.2066 64.2 27.2066C64.4 26.6066 64.4 26.6066 64.7109 26.3856C65.4002 26.1332 66.1012 26.0398 66.825 25.9417C66.9817 25.9196 67.1385 25.8975 67.3 25.8747C67.6308 25.8285 67.9616 25.783 68.2925 25.7382C68.7985 25.6693 69.3039 25.5973 69.8093 25.5249C70.1312 25.4803 70.453 25.4359 70.775 25.3917C70.9258 25.3701 71.0767 25.3484 71.2321 25.3261C71.9327 25.2333 72.5277 25.1553 73.2 25.4066Z" fill="#F78319"/>
<path id="Vector_6" d="M28 78.8066C28.2977 79.5807 28.0796 80.0484 27.8 80.8066C27.6493 81.3292 27.5127 81.8555 27.375 82.3816C27.3387 82.5193 27.3023 82.657 27.2649 82.7988C27.1762 83.1347 27.0881 83.4706 27 83.8066C26.802 83.8066 26.604 83.8066 26.4 83.8066C26.8869 82.1242 27.4403 80.4659 28 78.8066Z" fill="#F78319"/>
<path id="Vector_7" d="M34.6 69.6074C34.732 69.6734 34.864 69.7394 35 69.8074C34.142 70.7314 33.284 71.6554 32.4 72.6074C32.268 72.5414 32.136 72.4754 32 72.4074C32.8334 71.4359 33.6837 70.5014 34.6 69.6074Z" fill="#F78319"/>
<path id="Vector_8" d="M66.15 26.1818C66.3098 26.1854 66.4696 26.1891 66.6343 26.1928C66.755 26.1974 66.8756 26.2021 67 26.2068C67 26.2728 67 26.3388 67 26.4068C66.812 26.4432 66.812 26.4432 66.6203 26.4803C66.4568 26.5138 66.2934 26.5473 66.125 26.5818C65.9625 26.6143 65.8001 26.6468 65.6328 26.6803C65.1626 26.7802 65.1626 26.7802 64.8 27.2068C64.602 27.2068 64.404 27.2068 64.2 27.2068C64.4 26.6068 64.4 26.6068 64.7531 26.3709C65.2514 26.188 65.6212 26.1663 66.15 26.1818Z" fill="#F78319"/>
<path id="Vector_9" d="M13.8 48.6074C13.8 48.6734 13.8 48.7394 13.8 48.8074C13.5855 48.861 13.371 48.9147 13.15 48.9699C12.487 49.1799 12.1122 49.3566 11.6 49.8074C11.675 49.3199 11.675 49.3199 11.8 48.8074C12.4429 48.486 13.0872 48.5959 13.8 48.6074Z" fill="#F78319"/>
</g>
</svg>
