<svg width="100" height="101" viewBox="0 0 100 101" fill="none" xmlns="http://www.w3.org/2000/svg">
<g id="services__1_-removebg-preview 1">
<path id="Vector" d="M24.5363 58.7806C24.7643 58.7798 24.9923 58.7791 25.2272 58.7783C25.4768 58.7785 25.7263 58.7786 25.9834 58.7788C26.2519 58.7783 26.5204 58.7777 26.789 58.777C27.5266 58.7754 28.2643 58.775 29.0019 58.7749C29.7976 58.7745 30.5932 58.773 31.3889 58.7717C33.1286 58.7689 34.8682 58.7677 36.6079 58.7669C37.6943 58.7663 38.7807 58.7655 39.8671 58.7646C42.8754 58.7621 45.8837 58.7601 48.892 58.7594C49.0845 58.7593 49.277 58.7593 49.4753 58.7593C49.6683 58.7592 49.8612 58.7592 50.06 58.7591C50.451 58.759 50.842 58.7589 51.233 58.7588C51.427 58.7588 51.6209 58.7588 51.8208 58.7587C54.9635 58.7579 58.1063 58.7544 61.249 58.7498C64.4761 58.745 67.7033 58.7425 70.9304 58.7423C72.7421 58.7421 74.5538 58.741 76.3655 58.7373C77.9082 58.7343 79.4508 58.7332 80.9935 58.7349C81.7804 58.7357 82.5672 58.7355 83.354 58.7327C84.075 58.7301 84.796 58.7304 85.517 58.7328C85.8999 58.7334 86.2829 58.731 86.6659 58.7285C88.76 58.7405 90.4639 59.1125 92 60.6069C92.8908 61.7963 93.0346 62.882 93.0253 64.3285C93.0247 64.4783 93.0242 64.6281 93.0236 64.7824C93.0092 66.479 92.9052 68.1683 92.7953 69.8608C92.7739 70.2045 92.7525 70.5483 92.7313 70.892C92.6865 71.6138 92.6412 72.3356 92.5954 73.0573C92.4772 74.9211 92.3626 76.7851 92.2485 78.6491C92.2373 78.8315 92.2261 79.0138 92.2146 79.2017C92.0097 82.5497 91.8382 85.8982 91.7091 89.2501C91.7027 89.4104 91.6963 89.5706 91.6897 89.7357C91.6735 90.1477 91.6585 90.5597 91.6436 90.9717C91.6085 91.4835 91.5497 91.919 91.4 92.4069C91.5282 92.3999 91.6563 92.393 91.7883 92.3858C93.1375 92.3436 94.1308 92.424 95.1875 93.3444C95.5022 94.0292 95.5349 94.6761 95.4 95.4069C95.0413 95.9689 94.7963 96.3088 94.2 96.6069C93.7224 96.6269 93.2507 96.6347 92.773 96.6337C92.6236 96.6342 92.4742 96.6347 92.3203 96.6352C91.8144 96.6365 91.3085 96.6364 90.8027 96.6363C90.4384 96.637 90.0741 96.6377 89.7099 96.6386C88.7048 96.6406 87.6997 96.6413 86.6947 96.6418C85.6123 96.6426 84.5299 96.6445 83.4476 96.6463C80.8318 96.6502 78.216 96.6522 75.6001 96.654C74.3695 96.6549 73.1388 96.656 71.9081 96.657C67.8191 96.6604 63.7302 96.6633 59.6412 96.6648C58.5795 96.6652 57.5179 96.6655 56.4562 96.6659C56.1923 96.666 55.9285 96.6661 55.6566 96.6662C51.379 96.6678 47.1015 96.673 42.8239 96.6794C38.4361 96.6861 34.0482 96.6897 29.6604 96.6903C27.1952 96.6907 24.73 96.6925 22.2648 96.6976C20.166 96.7019 18.0672 96.7036 15.9683 96.7016C14.8968 96.7007 13.8253 96.7011 12.7538 96.705C11.7737 96.7085 10.7936 96.7083 9.8134 96.7052C9.45808 96.7047 9.10276 96.7056 8.74744 96.7079C8.26572 96.7109 7.78425 96.709 7.30253 96.7059C7.16345 96.7079 7.02437 96.71 6.88107 96.7121C5.93795 96.6986 5.46354 96.4708 4.80003 95.8069C4.47672 95.1603 4.48332 94.5058 4.60003 93.8069C4.91477 93.219 5.30345 92.7185 5.94726 92.4763C6.56678 92.3813 7.16751 92.3831 7.79436 92.3842C7.93298 92.3842 8.0716 92.3841 8.21442 92.3841C8.67108 92.3842 9.12774 92.3858 9.5844 92.3874C9.90163 92.3877 10.2188 92.388 10.5361 92.3882C11.3699 92.389 12.2037 92.3909 13.0375 92.3932C13.8888 92.3952 14.7401 92.3961 15.5914 92.3971C17.261 92.3993 18.9305 92.4027 20.6 92.4069C20.5918 92.2738 20.5835 92.1407 20.575 92.0035C20.3736 88.7512 20.1733 85.4988 19.9742 82.2463C19.8779 80.6734 19.7812 79.1005 19.6836 77.5276C19.5985 76.1553 19.5141 74.7829 19.4305 73.4104C19.3863 72.6851 19.3417 71.9597 19.2963 71.2344C18.739 62.3146 18.739 62.3146 20.1227 60.6092C21.3885 59.2536 22.7044 58.7829 24.5363 58.7806ZM51.7657 72.6092C50.4494 73.9856 49.9933 75.1813 49.8875 77.0694C49.9313 78.6975 50.5128 80.0088 51.5727 81.2397C52.889 82.4795 54.1926 83.0466 56 83.1069C58.0427 83.0388 59.4088 82.2832 60.8 80.8069C61.8581 79.5877 62.1539 78.1993 62.2 76.6069C62.0055 74.5973 61.1101 73.107 59.5625 71.8319C57.0313 70.1693 53.9043 70.6283 51.7657 72.6092Z" fill="#F78319"/>
<path id="Vector_2" d="M69.2 7.40741C69.4066 7.53038 69.6131 7.65336 69.8258 7.78006C74.9588 11.0124 78.9049 16.5099 80.3438 22.3954C81 25.3812 81 25.3812 81 26.4074C81.198 26.4734 81.396 26.5394 81.6 26.6074C81.8704 26.9558 81.8704 26.9558 82.125 27.3824C82.2101 27.5221 82.2952 27.6619 82.3829 27.8058C82.9898 28.928 82.8521 30.1733 82.8591 31.4137C82.8614 31.6994 82.8655 31.9851 82.8714 32.2707C82.9105 34.156 82.9039 35.576 81.6071 37.0558C81.4769 37.1636 81.3467 37.2714 81.2125 37.3824C81.0829 37.4933 80.9532 37.6041 80.8196 37.7183C79.8626 38.3777 79.054 38.4556 77.9024 38.4465C77.7618 38.4459 77.6211 38.4453 77.4762 38.4448C77.03 38.4425 76.5838 38.4375 76.1375 38.4324C75.8338 38.4304 75.53 38.4286 75.2262 38.4269C74.4841 38.4225 73.7421 38.4156 73 38.4074C72.965 38.5218 72.93 38.6362 72.8938 38.7541C71.6853 42.5569 68.9843 45.8231 66.2 48.6074C66.4206 48.6093 66.6412 48.6111 66.8685 48.6131C67.7016 48.6212 68.5347 48.6343 69.3678 48.6489C69.7256 48.6545 70.0834 48.6588 70.4412 48.6616C74.8149 48.6984 78.2999 49.6133 81.55 52.6949C83.2 54.3949 83.2 54.3949 83.2 55.4074C65.248 55.4074 47.296 55.4074 28.8 55.4074C29.7676 52.9885 31.8325 51.0648 34.2 50.0074C36.1128 49.2547 37.7589 48.7854 39.804 48.7441C39.9757 48.74 40.1474 48.7358 40.3243 48.7315C40.8704 48.7185 41.4165 48.7067 41.9625 48.6949C42.3338 48.6863 42.705 48.6775 43.0762 48.6687C43.9841 48.6474 44.8921 48.6271 45.8 48.6074C45.665 48.4748 45.5299 48.3421 45.3907 48.2055C45.2123 48.029 45.0339 47.8525 44.85 47.6707C44.5855 47.4099 44.5855 47.4099 44.3157 47.1438C42.582 45.3403 39.2 41.0454 39.2 38.4074C39.0085 38.4116 38.8169 38.4158 38.6196 38.4201C37.9025 38.4347 37.1853 38.4438 36.4681 38.4513C36.1589 38.4553 35.8497 38.4608 35.5406 38.4678C32.085 38.5436 32.085 38.5436 30.5954 37.2582C30.4616 37.0907 30.4616 37.0907 30.325 36.9199C30.2328 36.8088 30.1405 36.6977 30.0454 36.5832C29.2004 35.2889 29.3256 33.887 29.3259 32.4C29.3251 31.9483 29.3178 31.497 29.3102 31.0453C29.2981 29.5286 29.3063 28.2947 30.2 27.0074C30.3393 26.8855 30.4785 26.7635 30.6219 26.6379C31.2493 25.9237 31.2873 25.0368 31.45 24.1199C32.3359 19.6443 34.1322 15.9333 37 12.4074C37.1341 12.2421 37.2682 12.0769 37.4063 11.9066C40.5022 8.25877 45.3689 5.5339 50 4.40741C50.2421 4.34785 50.4842 4.2883 50.7336 4.22694C57.0327 2.83261 63.7132 4.09737 69.2 7.40741ZM40.2714 14.8987C37.7928 17.718 35.7516 21.4285 35.4 25.2074C36.126 25.2074 36.852 25.2074 37.6 25.2074C37.8097 24.5871 38.0124 23.9664 38.2016 23.3394C39.799 18.1954 42.9556 14.1918 47.7125 11.6199C52.0974 9.35488 56.832 9.10123 61.5399 10.4137C66.2683 11.981 70.2836 15.3937 72.6 19.8074C73.3273 21.3545 73.887 22.9503 74.2915 24.6121C74.3642 25.0045 74.3642 25.0045 74.6 25.2074C74.9373 25.2218 75.2751 25.2242 75.6125 25.2199C75.7964 25.2181 75.9802 25.2163 76.1696 25.2144C76.3116 25.2121 76.4537 25.2098 76.6 25.2074C76.1219 21.3907 74.4794 18.1152 72 15.2074C71.8817 15.0599 71.7634 14.9125 71.6415 14.7605C68.6149 11.1209 63.9867 8.62861 59.3072 8.0537C51.873 7.37513 45.4076 9.32064 40.2714 14.8987ZM67.5498 21.4272C64.938 23.3577 62.3544 24.794 59.2 25.6074C59.0219 25.6564 58.8438 25.7054 58.6602 25.7558C56.0854 26.3772 53.6873 25.979 51.2 25.2074C50.7004 25.0603 50.2004 24.9145 49.7 24.7699C49.4835 24.7052 49.2669 24.6405 49.0438 24.5738C46.7507 23.9811 44.2874 24.0046 42 24.6074C40.5759 28.4052 41.2657 33.5012 42.8469 37.1644C43.1884 37.7861 43.3502 38.0509 43.975 38.3574C44.3133 38.4538 44.6559 38.5351 45 38.6074C45.3678 38.7122 45.3678 38.7122 45.743 38.8191C47.353 39.2717 48.9235 39.5439 50.6 39.6074C50.7032 39.4342 50.8063 39.2609 50.9125 39.0824C51.7554 37.8314 52.905 36.9064 54.4 36.6074C56.4253 36.3995 57.7706 36.7343 59.45 37.8324C60.5939 39.0283 61.061 40.1734 61.1125 41.8324C61.0691 43.0431 60.8414 43.7889 60.2 44.8074C60.1418 44.9451 60.0835 45.0827 60.0235 45.2246C59.7436 45.7041 59.5072 45.7976 59 46.0074C58.868 46.0757 58.736 46.144 58.6 46.2144C58.468 46.2822 58.336 46.35 58.2 46.4199C58.068 46.4882 57.936 46.5565 57.8 46.6269C56.3929 47.2618 54.8623 47.1471 53.4407 46.6152C52.0777 45.9724 51.239 45.1652 50.6 43.8074C50.6 43.7414 50.6 43.6754 50.6 43.6074C50.121 43.5399 49.6418 43.4734 49.1625 43.4074C49.0278 43.3883 48.8931 43.3692 48.7543 43.3496C48.0307 43.2508 47.3305 43.1847 46.6 43.2074C48.3953 45.9192 51.0894 47.995 54.3 48.7074C54.5991 48.7486 54.8992 48.7827 55.2 48.8074C55.5775 48.8383 55.5775 48.8383 55.9625 48.8699C59.4366 48.7443 62.0471 46.9908 64.4 44.6074C64.5483 44.4589 64.6965 44.3104 64.8493 44.1574C68.6396 40.138 70.9153 34.0334 70.8297 28.5433C70.6789 25.8208 69.9164 23.1963 68.6 20.8074C68.1821 20.8074 67.8734 21.1869 67.5498 21.4272Z" fill="#F78319"/>
<path id="Vector_3" d="M23 35.4066C24.706 36.7447 26.2458 38.8034 26.6 41.0066C26.6346 41.5474 26.6571 42.0781 26.6625 42.6191C26.6641 42.7713 26.6657 42.9234 26.6673 43.0802C26.6576 44.0071 26.5441 44.7105 26.1625 45.5691C25.6266 46.8169 25.937 47.7725 26.4 49.0066C26.6024 49.4794 26.8108 49.9423 27.0461 50.3996C27.2309 50.8883 27.2261 51.2885 27.2 51.8066C25.4824 51.9093 24.0855 51.7282 22.4578 51.1621C21.3437 50.8988 20.3846 51.197 19.3125 51.5191C15.8351 52.4026 12.6408 51.5659 9.59998 49.8066C7.85927 48.6668 6.71918 46.8312 6.13123 44.8621C5.6103 42.2606 6.02586 39.9144 7.44295 37.6965C9.02336 35.5282 11.3116 34.0243 13.9586 33.4949C17.1841 33.051 20.2838 33.5633 23 35.4066Z" fill="#F78319"/>
<path id="Vector_4" d="M20.2 82.6074C20.266 82.6074 20.332 82.6074 20.4 82.6074C20.486 83.835 20.5714 85.0626 20.6563 86.2903C20.6852 86.7075 20.7143 87.1248 20.7436 87.542C20.7858 88.1432 20.8273 88.7445 20.8687 89.3457C20.8818 89.531 20.8949 89.7162 20.9085 89.9071C20.9205 90.0832 20.9325 90.2593 20.9449 90.4407C20.9555 90.5939 20.9662 90.7471 20.9772 90.905C21.0059 91.5395 21.0034 92.1724 21 92.8074C19.0285 92.8335 17.057 92.8596 15.0855 92.8857C14.1701 92.8977 13.2547 92.9098 12.3394 92.922C11.4563 92.9337 10.5731 92.9453 9.69004 92.957C9.35282 92.9614 9.01559 92.9659 8.67837 92.9704C8.20671 92.9766 7.73504 92.9829 7.26338 92.9891C7.1234 92.9909 6.98343 92.9928 6.83922 92.9947C6.29273 93.0019 5.74649 93.0074 5.19995 93.0074C5.78473 92.4226 6.21695 92.4143 7.03524 92.3834C7.28573 92.3838 7.53621 92.3843 7.79429 92.3847C7.9329 92.3847 8.07152 92.3847 8.21434 92.3846C8.67101 92.3848 9.12766 92.3863 9.58433 92.3879C9.90155 92.3883 10.2188 92.3885 10.536 92.3887C11.3698 92.3895 12.2036 92.3915 13.0375 92.3937C13.8888 92.3957 14.7401 92.3966 15.5914 92.3977C17.2609 92.3998 18.9304 92.4032 20.6 92.4074C20.5878 92.2242 20.5757 92.0411 20.5632 91.8523C20.5177 91.1561 20.4731 90.4597 20.4291 89.7634C20.41 89.4651 20.3906 89.1669 20.3708 88.8687C20.2325 86.7783 20.1744 84.7022 20.2 82.6074Z" fill="#F78319"/>
<path id="Vector_5" d="M40.2 9.20703C40.332 9.27303 40.464 9.33903 40.6 9.40703C39.808 10.265 39.016 11.123 38.2 12.007C38.002 11.941 37.804 11.875 37.6 11.807C38.3735 10.816 39.2377 10.0141 40.2 9.20703Z" fill="#F78319"/>
<path id="Vector_6" d="M44.6 13.4072C44.732 13.4732 44.864 13.5392 45 13.6072C44.8433 13.8417 44.6846 14.0748 44.525 14.3072C44.4369 14.4372 44.3487 14.5671 44.2578 14.701C44.1728 14.802 44.0877 14.9031 44 15.0072C43.868 15.0072 43.736 15.0072 43.6 15.0072C43.534 15.1392 43.468 15.2712 43.4 15.4072C43.0713 15.5515 42.7379 15.6859 42.4 15.8072C42.7007 15.0737 43.1275 14.6694 43.725 14.1572C43.9702 13.9453 43.9702 13.9453 44.2203 13.7291C44.3456 13.6229 44.4709 13.5167 44.6 13.4072Z" fill="#F78319"/>
<path id="Vector_7" d="M65.2 43.6074C65.266 43.8054 65.332 44.0034 65.4 44.2074C65.0809 44.5092 64.7597 44.8088 64.4375 45.1074C64.2589 45.2745 64.0802 45.4415 63.8961 45.6137C63.4 46.0074 63.4 46.0074 62.8 46.0074C63.592 45.2154 64.384 44.4234 65.2 43.6074Z" fill="#F78319"/>
<path id="Vector_8" d="M21.2 59.6074C21.332 59.6734 21.464 59.7394 21.6 59.8074C21.4141 60.0379 21.2262 60.2667 21.0375 60.4949C20.8809 60.6863 20.8809 60.6863 20.7211 60.8816C20.4 61.2074 20.4 61.2074 19.8 61.4074C20.1111 60.6441 20.6072 60.169 21.2 59.6074Z" fill="#F78319"/>
<path id="Vector_9" d="M61.2 80.0068C61.332 80.2048 61.464 80.4028 61.6 80.6068C61.072 81.0688 60.544 81.5308 60 82.0068C59.868 81.9408 59.736 81.8748 59.6 81.8068C60.128 81.2128 60.656 80.6188 61.2 80.0068Z" fill="#F78319"/>
<path id="Vector_10" d="M8.6 36.4072C8.798 36.4732 8.996 36.5392 9.2 36.6072C8.606 37.1022 8.606 37.1022 8 37.6072C8 37.0072 8 37.0072 8.3 36.6697C8.4485 36.5398 8.4485 36.5398 8.6 36.4072Z" fill="#F78319"/>
</g>
</svg>
