<svg width="100" height="101" viewBox="0 0 100 101" fill="none" xmlns="http://www.w3.org/2000/svg">
<g id="system-integration__1_-removebg-preview 1">
<path id="Vector" d="M18.2 35.6083C18.5275 35.9359 18.4249 36.3088 18.4252 36.7603C18.4263 37.0649 18.4263 37.0649 18.4275 37.3756C18.4277 37.597 18.4279 37.8185 18.4281 38.0466C18.4318 38.5126 18.4357 38.9786 18.4398 39.4447C18.4456 40.1816 18.45 40.9183 18.4501 41.6553C18.4507 42.365 18.4577 43.0744 18.4656 43.7841C18.4642 44.0027 18.4628 44.2213 18.4613 44.4465C18.4859 45.9999 18.8245 46.9714 19.8814 48.112C21.0762 49.2161 22.5463 49.2737 24.0875 49.3333C24.2528 49.3411 24.4182 49.3488 24.5886 49.3568C24.9923 49.3754 25.3961 49.3921 25.8 49.4083C25.866 49.6723 25.932 49.9363 26 50.2083C26.1936 50.2215 26.1936 50.2215 26.3912 50.2348C26.9785 50.2797 27.5638 50.3376 28.15 50.3958C28.4547 50.4161 28.4547 50.4161 28.7656 50.4368C29.361 50.5015 29.8477 50.5747 30.4 50.8083C30.8279 51.3685 31.0054 51.9379 31.2 52.6083C31.318 52.8597 31.4386 53.1098 31.5625 53.3583C31.8279 54.0849 31.8296 54.2869 31.6 55.0083C31.2007 55.6029 31.2007 55.6029 30.7125 56.2208C30.192 56.8833 29.7783 57.4517 29.4 58.2083C31.842 60.6503 34.284 63.0923 36.8 65.6083C37.8561 64.8374 37.8561 64.8374 38.8375 63.9794C39.2976 63.556 39.5859 63.3553 40.2 63.2083C41.3429 63.4551 42.3756 64.0662 43.4 64.6083C43.598 64.6743 43.796 64.7403 44 64.8083C44.0636 65.1331 44.1258 65.4582 44.1875 65.7833C44.2223 65.9643 44.2571 66.1453 44.2929 66.3318C44.4333 67.2188 44.5106 68.1147 44.6 69.0083C48.164 69.0083 51.728 69.0083 55.4 69.0083C55.532 67.7543 55.664 66.5003 55.8 65.2083C56.1229 64.5624 56.8056 64.4534 57.45 64.2083C57.5838 64.1563 57.7176 64.1042 57.8554 64.0505C58.1177 63.9485 58.3809 63.8488 58.645 63.7516C59.0368 63.6042 59.0368 63.6042 59.5078 63.3036C60 63.2083 60 63.2083 60.3293 63.3839C60.7118 63.6674 61.0683 63.968 61.425 64.2833C61.6703 64.4945 61.9166 64.7044 62.164 64.913C62.2718 65.0077 62.3796 65.1024 62.4907 65.2C62.8208 65.4642 62.8208 65.4642 63.4 65.4083C63.7651 65.1308 63.7651 65.1308 64.129 64.7474C64.2731 64.6032 64.4172 64.4591 64.5657 64.3106C64.7201 64.1531 64.8745 63.9956 65.0336 63.8333C65.1925 63.6735 65.3515 63.5137 65.5153 63.3491C66.0241 62.8369 66.5308 62.3226 67.0375 61.8083C67.3815 61.4613 67.7256 61.1144 68.0699 60.7677C68.9148 59.9161 69.758 59.0629 70.6 58.2083C70.1704 57.2918 69.5311 56.5604 68.8738 55.799C68.4287 55.2502 68.1982 54.9282 68.2086 54.2107C68.4198 53.5459 68.6447 52.8951 68.9 52.2458C68.9887 52.0177 69.0773 51.7895 69.1687 51.5544C69.4 51.0083 69.4 51.0083 69.6 50.8083C71.1245 50.5449 72.6514 50.3451 74.2 50.4083C74.2 50.0783 74.2 49.7483 74.2 49.4083C74.5619 49.3971 74.5619 49.3971 74.9312 49.3857C75.2541 49.3725 75.5771 49.3592 75.9 49.3458C76.0583 49.3413 76.2166 49.3368 76.3797 49.3322C77.775 49.2693 79.0813 49.0007 80.1625 48.0458C80.271 47.9538 80.3795 47.8617 80.4914 47.7669C81.5322 46.5574 81.4908 45.3414 81.4953 43.8232C81.4984 43.5945 81.5015 43.3658 81.5047 43.1302C81.5142 42.4021 81.5198 41.674 81.525 40.9458C81.5323 40.2141 81.5404 39.4824 81.5495 38.7507C81.555 38.2958 81.5592 37.8408 81.5622 37.3859C81.5643 37.1815 81.5663 36.9772 81.5684 36.7667C81.5697 36.586 81.571 36.4053 81.5724 36.2191C81.6 35.8083 81.6 35.8083 81.8 35.6083C83.6326 35.5574 85.007 36.2267 86.35 37.4333C88.0649 39.3404 88.1425 41.4182 88.1167 43.8494C88.1167 44.1923 88.1172 44.5351 88.1181 44.878C88.1192 45.8027 88.1142 46.7273 88.1079 47.6519C88.1024 48.6208 88.1024 49.5896 88.1018 50.5584C88.1 52.1828 88.0945 53.8071 88.0864 55.4315C88.075 57.7254 88.0706 60.0192 88.0673 62.3132C88.0648 63.9012 88.0607 65.4892 88.0563 67.0772C88.0552 67.4626 88.0542 67.848 88.0532 68.2334C88.0503 69.33 88.0464 70.4266 88.0409 71.5232C88.0393 71.8559 88.0381 72.1887 88.0373 72.5214C88.036 72.9736 88.0336 73.4258 88.0307 73.8779C88.0296 74.1315 88.0285 74.3851 88.0274 74.6464C88 75.2083 88 75.2083 87.8 75.4083C87.3988 75.4281 86.9969 75.4334 86.5952 75.4335C86.1998 75.4343 86.1998 75.4343 85.7964 75.4351C85.5 75.4346 85.2036 75.4342 84.9072 75.4337C84.5953 75.434 84.2835 75.4343 83.9716 75.4347C83.1105 75.4355 82.2494 75.4351 81.3882 75.4345C80.4612 75.434 79.5341 75.4347 78.607 75.4353C76.7893 75.4362 74.9715 75.436 73.1537 75.4354C71.6771 75.4349 70.2005 75.4349 68.7238 75.4351C68.4092 75.4351 68.4092 75.4351 68.0883 75.4352C67.6623 75.4352 67.2363 75.4353 66.8103 75.4354C62.8107 75.436 58.811 75.4353 54.8114 75.4342C51.3756 75.4333 47.9397 75.4335 44.5039 75.4344C40.5191 75.4355 36.5343 75.4359 32.5495 75.4353C32.1251 75.4352 31.7006 75.4352 31.2761 75.4351C31.0672 75.4351 30.8584 75.435 30.6431 75.435C29.1674 75.4348 27.6916 75.4351 26.2158 75.4356C24.4186 75.4361 22.6215 75.436 20.8243 75.4349C19.9064 75.4344 18.9886 75.4342 18.0707 75.4349C17.2318 75.4355 16.393 75.4351 15.5541 75.4341C15.2493 75.4338 14.9444 75.434 14.6396 75.4344C14.228 75.435 13.8163 75.4343 13.4047 75.4335C13.1752 75.4335 12.9457 75.4334 12.7093 75.4334C12.2 75.4083 12.2 75.4083 12 75.2083C11.9779 74.7657 11.9702 74.3224 11.9678 73.8793C11.9663 73.6684 11.9663 73.6684 11.9648 73.4533C11.9616 72.9786 11.9599 72.5039 11.9582 72.0292C11.9563 71.6902 11.9543 71.3512 11.9523 71.0122C11.946 69.895 11.942 68.7779 11.9382 67.6607C11.9373 67.3755 11.9373 67.3755 11.9362 67.0846C11.9301 65.2911 11.9247 63.4977 11.9214 61.7042C11.917 59.4113 11.9086 57.1185 11.8947 54.8256C11.8852 53.2132 11.8804 51.6008 11.8789 49.9884C11.8779 49.0258 11.8749 48.0633 11.867 47.1008C11.8596 46.1934 11.8579 45.2863 11.8606 44.3789C11.8606 44.0474 11.8585 43.7159 11.8542 43.3844C11.8246 40.9725 12.2059 39.0626 13.875 37.2083C15.1203 36.0762 16.5222 35.5338 18.2 35.6083Z" fill="#F78319"/>
<path id="Vector_2" d="M47 23.6084C48.98 23.6084 50.96 23.6084 53 23.6084C53.45 26.0834 53.45 26.0834 53.525 27.2459C53.5474 27.5781 53.5474 27.5781 53.5703 27.917C53.5801 28.0792 53.5899 28.2413 53.6 28.4084C53.9712 28.4765 53.9712 28.4765 54.35 28.5459C55.7354 28.8528 57.1348 29.3692 58.3218 30.1529C58.7675 30.4505 58.7675 30.4505 59.1857 30.3588C59.6523 30.1894 59.9317 29.9811 60.3062 29.6568C60.5 29.494 60.5 29.494 60.6976 29.3279C60.9666 29.0976 61.2349 28.8663 61.5023 28.6342C61.6961 28.4721 61.6961 28.4721 61.8937 28.3068C62.0101 28.2065 62.1265 28.1062 62.2465 28.0028C62.6 27.8084 62.6 27.8084 62.9873 27.8241C63.5467 28.074 63.8807 28.4219 64.3093 28.8592C64.4782 29.03 64.6471 29.2008 64.8211 29.3768C64.9956 29.5563 65.1701 29.7359 65.35 29.9209C65.5276 30.1012 65.7052 30.2816 65.8883 30.4674C66.3269 30.9131 66.764 31.3601 67.2 31.8084C66.6862 32.7522 66.144 33.5692 65.45 34.3959C65.2901 34.5875 65.1303 34.779 64.9656 34.9764C64.8449 35.1189 64.7243 35.2615 64.6 35.4084C64.9974 36.4622 65.5268 37.4396 66.0492 38.4357C66.4823 39.3222 66.739 40.2597 67 41.2084C67.1262 41.2255 67.2523 41.2427 67.3823 41.2603C67.9508 41.338 68.5192 41.4169 69.0875 41.4959C69.3854 41.5363 69.3854 41.5363 69.6894 41.5775C69.9727 41.6172 69.9727 41.6172 70.2617 41.6576C70.4366 41.6817 70.6115 41.7058 70.7917 41.7306C71.2 41.8084 71.2 41.8084 71.4 42.0084C71.4175 42.4521 71.4214 42.8964 71.4195 43.3404C71.4191 43.5398 71.4191 43.5398 71.4186 43.7431C71.4175 44.1691 71.415 44.595 71.4125 45.0209C71.4115 45.309 71.4106 45.5972 71.4097 45.8854C71.4075 46.593 71.4041 47.3007 71.4 48.0084C70.9868 48.0753 70.5735 48.1413 70.1601 48.2068C69.8149 48.2621 69.8149 48.2621 69.4627 48.3185C68.6934 48.4229 67.9743 48.4388 67.2 48.4084C67.1775 48.5909 67.1775 48.5909 67.1547 48.7771C66.9692 50.0136 66.6396 51.1428 66.2 52.3084C66.1477 52.4472 66.0955 52.5861 66.0417 52.7291C65.805 53.34 65.5649 53.861 65.2 54.4084C65.2368 55.3486 65.7493 55.9611 66.3125 56.6709C66.3974 56.7809 66.4824 56.8908 66.5699 57.0041C66.7783 57.2734 66.9889 57.5411 67.2 57.8084C66.3569 58.8088 65.4892 59.7726 64.575 60.7084C64.3928 60.9018 64.3928 60.9018 64.207 61.099C64.0887 61.2197 63.9703 61.3403 63.8484 61.4646C63.7429 61.5741 63.6375 61.6835 63.5288 61.7963C63.2 62.0084 63.2 62.0084 62.7908 61.965C62.2326 61.7413 61.8351 61.393 61.375 61.0084C60.7242 60.4521 60.7242 60.4521 60 60.0084C59.5138 60.2715 59.0461 60.5455 58.575 60.8334C56.9814 61.775 55.3826 62.3367 53.6 62.8084C53.559 63.0515 53.518 63.2946 53.4758 63.5451C53.4214 63.8621 53.3669 64.179 53.3125 64.4959C53.2721 64.7366 53.2721 64.7366 53.2308 64.9822C53.0226 66.1857 53.0226 66.1857 52.8 66.4084C51.8721 66.4648 50.9419 66.4548 50.0125 66.4584C49.6182 66.4646 49.6182 66.4646 49.216 66.4709C48.9655 66.4719 48.7151 66.473 48.457 66.474C48.2258 66.4759 47.9945 66.4778 47.7563 66.4797C47.5727 66.4562 47.3891 66.4326 47.2 66.4084C46.7292 65.7023 46.6684 65.0912 46.575 64.2709C46.5577 64.1305 46.5404 63.9901 46.5226 63.8455C46.4803 63.5 46.44 63.1542 46.4 62.8084C46.1656 62.7357 45.9313 62.663 45.6898 62.5881C44.0551 62.0691 42.5239 61.5511 41.0523 60.6482C40.5313 60.372 40.1934 60.2202 39.6 60.2084C39.0264 60.5864 39.0264 60.5864 38.4875 61.1084C37.9242 61.6271 37.9242 61.6271 37.4 62.0084C36.61 61.9601 36.2248 61.5026 35.6906 60.9576C35.4373 60.7014 35.4373 60.7014 35.1789 60.44C34.9171 60.1707 34.9171 60.1707 34.65 59.8959C34.4723 59.7156 34.2947 59.5352 34.1117 59.3494C33.6731 58.9037 33.2359 58.4567 32.8 58.0084C33.3288 57.0532 33.8818 56.2235 34.5851 55.3873C34.8362 55.0274 34.8362 55.0274 34.7695 54.642C34.54 54.055 34.2849 53.4826 34.025 52.9084C33.3984 51.4887 32.8 49.9789 32.8 48.4084C32.5896 48.4166 32.3792 48.4249 32.1625 48.4334C31.3718 48.4364 30.62 48.3317 29.8398 48.2068C29.4909 48.1515 29.4909 48.1515 29.1349 48.095C28.9584 48.0664 28.7818 48.0378 28.6 48.0084C28.595 47.1576 28.5914 46.3067 28.589 45.4559C28.588 45.1663 28.5866 44.8766 28.5849 44.587C28.5825 44.1714 28.5813 43.7559 28.5804 43.3404C28.5794 43.0901 28.5783 42.8398 28.5773 42.5819C28.6 42.0084 28.6 42.0084 28.8 41.8084C29.1112 41.7491 29.4244 41.7008 29.7383 41.6576C29.9271 41.6312 30.116 41.6048 30.3105 41.5775C30.5092 41.5506 30.7078 41.5237 30.9125 41.4959C31.1119 41.4682 31.3113 41.4405 31.5168 41.4119C32.0111 41.3433 32.5055 41.2755 33 41.2084C33.0582 41.0006 33.1165 40.7928 33.1765 40.5787C33.6186 39.0583 34.0538 37.7322 34.9922 36.4311C35.2336 36.0177 35.2336 36.0177 35.2023 35.5459C34.9074 34.7626 34.4165 34.1872 33.8875 33.5459C33.7834 33.4169 33.6794 33.2878 33.5722 33.1549C33.3164 32.8381 33.0584 32.5231 32.8 32.2084C33.2726 31.1206 34.1511 30.3756 34.975 29.5459C35.1382 29.3761 35.3014 29.2064 35.4695 29.0314C35.6275 28.872 35.7856 28.7125 35.9484 28.5482C36.0925 28.4015 36.2366 28.2547 36.385 28.1035C36.8 27.8084 36.8 27.8084 37.2118 27.8313C37.618 28.0166 37.9195 28.2168 38.2625 28.5021C38.3826 28.5999 38.5028 28.6976 38.6265 28.7982C38.8755 29.005 39.1245 29.2118 39.3734 29.4186C39.4936 29.5163 39.6137 29.614 39.7375 29.7146C39.8455 29.8045 39.9535 29.8943 40.0648 29.9869C40.4507 30.2419 40.7416 30.3479 41.2 30.4084C41.6695 30.2096 42.0935 30.0033 42.5375 29.7584C45.1022 28.4084 45.1022 28.4084 46.4 28.4084C46.4147 28.1652 46.4147 28.1652 46.4297 27.917C46.4446 27.6955 46.4596 27.4741 46.475 27.2459C46.4889 27.0301 46.5028 26.8143 46.5172 26.592C46.623 25.5901 46.8198 24.5996 47 23.6084ZM42.789 40.3061C41.2919 42.2391 41.0234 44.4126 41.2 46.8084C41.4422 48.4676 41.98 49.6877 43 51.0084C43.1155 51.1816 43.231 51.3549 43.35 51.5334C44.9206 53.1913 47.057 54.252 49.3312 54.4561C51.9338 54.524 54.0803 53.7377 56.0304 52.0318C57.9734 50.1866 58.7853 48.1947 58.875 45.4959C58.7774 42.8074 57.7851 40.6947 55.85 38.8334C53.6759 36.9784 51.3938 36.6588 48.6367 36.7726C46.2301 36.9701 44.3009 38.5439 42.789 40.3061Z" fill="#F78319"/>
<path id="Vector_3" d="M12 78.0078C37.08 78.0078 62.16 78.0078 88 78.0078C88 83.9314 88 83.9314 86.3688 85.6875C85.0633 86.8215 83.7913 87.4316 82.0702 87.4347C81.8385 87.4355 81.6069 87.4364 81.3682 87.4374C81.1135 87.4373 80.8589 87.4373 80.5965 87.4372C80.3233 87.4379 80.0502 87.4387 79.777 87.4395C79.0256 87.4415 78.2742 87.4422 77.5228 87.4428C76.7127 87.4435 75.9026 87.4454 75.0925 87.4472C73.1357 87.4511 71.1788 87.4532 69.222 87.4549C68.3004 87.4558 67.3788 87.4569 66.4571 87.4579C63.3933 87.4613 60.3294 87.4642 57.2655 87.4657C56.4705 87.4661 55.6754 87.4665 54.8804 87.4668C54.584 87.467 54.584 87.467 54.2816 87.4671C51.0808 87.4688 47.88 87.4739 44.6792 87.4804C41.3926 87.487 38.106 87.4906 34.8195 87.4912C32.9743 87.4917 31.1292 87.4934 29.2841 87.4985C27.7126 87.5029 26.1412 87.5045 24.5698 87.5025C23.7683 87.5016 22.9669 87.502 22.1654 87.5059C21.4308 87.5094 20.6963 87.5092 19.9617 87.5061C19.5719 87.5054 19.1821 87.5086 18.7924 87.512C16.8545 87.4978 15.1745 87.1273 13.7204 85.7766C11.5822 83.3151 12 81.5117 12 78.0078Z" fill="#F78319"/>
<path id="Vector_4" d="M36.2 90.208C45.308 90.208 54.416 90.208 63.8 90.208C63.8 91.726 63.8 93.244 63.8 94.808C64.2648 94.7964 64.7297 94.7848 65.2086 94.7729C65.6607 94.765 66.1128 94.759 66.5649 94.7531C66.8782 94.7481 67.1915 94.7412 67.5047 94.7326C67.9561 94.7204 68.4071 94.7148 68.8586 94.7104C68.9978 94.7052 69.137 94.7 69.2804 94.6947C70.0557 94.6943 70.3749 94.7881 70.9893 95.2766C71.4 95.808 71.4 95.808 71.5125 96.408C71.3744 97.1445 71.1264 97.4816 70.6 98.008C69.8631 98.2536 69.1833 98.237 68.416 98.2361C68.2529 98.2367 68.0897 98.2373 67.9216 98.2379C67.373 98.2396 66.8245 98.2399 66.2759 98.2402C65.8833 98.2412 65.4908 98.2422 65.0982 98.2432C64.0305 98.2459 62.9627 98.2472 61.8949 98.248C61.2282 98.2486 60.5615 98.2495 59.8947 98.2503C57.8097 98.2531 55.7247 98.255 53.6397 98.2558C51.2308 98.2567 48.822 98.2602 46.4132 98.266C44.5525 98.2703 42.6917 98.2723 40.831 98.2726C39.7191 98.2728 38.6072 98.274 37.4952 98.2776C36.4495 98.2808 35.4039 98.2813 34.3582 98.2795C33.9742 98.2794 33.5902 98.2803 33.2061 98.2822C32.6823 98.2848 32.1586 98.2836 31.6348 98.2815C31.4825 98.2831 31.3301 98.2847 31.1732 98.2864C30.2799 98.278 29.7069 98.1646 29 97.608C28.5309 96.9044 28.484 96.6365 28.6 95.808C29.1416 95.1025 29.43 94.8348 30.3194 94.6945C30.5934 94.6946 30.8675 94.7002 31.1414 94.7104C31.359 94.7125 31.359 94.7125 31.581 94.7146C32.0417 94.7202 32.5019 94.7328 32.9625 94.7455C33.2759 94.7505 33.5893 94.7551 33.9027 94.7592C34.6688 94.7693 35.4339 94.7889 36.2 94.808C36.2 93.29 36.2 91.772 36.2 90.208Z" fill="#F78319"/>
<path id="Vector_5" d="M90.1718 22.5304C91.43 23.3477 92.2717 24.5477 92.6 26.0085C92.759 27.4663 92.368 28.8187 91.4625 29.971C90.4089 31.076 89.4253 31.4538 87.9 31.5085C86.5506 31.4601 85.6298 31.2038 84.6437 30.2718C84.0598 29.6314 83.8161 29.2732 83.6 28.4085C82.082 28.4085 80.564 28.4085 79 28.4085C79.0041 28.9182 79.0083 29.428 79.0126 29.9532C79.0259 31.6375 79.0347 33.3219 79.0414 35.0063C79.0456 36.0275 79.0512 37.0487 79.0603 38.0699C79.069 39.0554 79.0738 40.0409 79.0759 41.0265C79.0773 41.4025 79.0802 41.7785 79.0845 42.1544C79.0903 42.6812 79.0911 43.2077 79.0908 43.7344C79.0951 43.9675 79.0951 43.9675 79.0995 44.2052C79.0938 44.9498 79.026 45.368 78.6193 46.0006C78.0451 46.5591 77.7504 46.6335 76.9734 46.628C76.8123 46.6274 76.6511 46.6267 76.4851 46.6261C76.2326 46.6236 76.2326 46.6236 75.975 46.621C75.8051 46.6201 75.6352 46.6192 75.4601 46.6183C75.04 46.6159 74.62 46.6123 74.2 46.6085C74.2 45.4865 74.2 44.3645 74.2 43.2085C74.662 43.2085 75.124 43.2085 75.6 43.2085C75.5982 42.9948 75.5964 42.7811 75.5946 42.5609C75.5784 40.548 75.5664 38.5351 75.5585 36.5221C75.5543 35.4872 75.5487 34.4524 75.5396 33.4175C75.5309 32.419 75.5261 31.4205 75.524 30.4219C75.5226 30.0408 75.5197 29.6596 75.5154 29.2784C75.5096 28.745 75.5088 28.2117 75.5091 27.6782C75.5063 27.5203 75.5034 27.3623 75.5004 27.1996C75.5058 26.4851 75.5367 26.0902 75.9806 25.5166C76.7591 24.9445 77.3909 24.9824 78.3265 24.989C78.5521 24.9894 78.5521 24.9894 78.7822 24.9898C79.2631 24.9909 79.744 24.9934 80.225 24.996C80.5507 24.997 80.8765 24.9979 81.2023 24.9987C82.0015 25.0009 82.8007 25.0044 83.6 25.0085C83.6562 24.8543 83.7124 24.7001 83.7703 24.5413C84.2436 23.4432 85.2602 22.647 86.3375 22.171C87.7206 21.8317 88.885 21.8915 90.1718 22.5304Z" fill="#F78319"/>
<path id="Vector_6" d="M14.8 22.8083C15.5522 23.3152 15.9935 23.7954 16.4 24.6083C16.4 24.7403 16.4 24.8723 16.4 25.0083C16.6018 25.0062 16.8036 25.0041 17.0115 25.0019C17.7614 24.9947 18.5113 24.9901 19.2613 24.9863C19.5856 24.9843 19.91 24.9816 20.2343 24.9781C20.701 24.9732 21.1676 24.971 21.6343 24.9692C21.8512 24.9661 21.8512 24.9661 22.0725 24.963C22.8108 24.9628 23.3889 24.9693 24 25.4083C24.507 26.1689 24.4533 26.7747 24.4454 27.6553C24.4454 27.8232 24.4455 27.991 24.4455 28.1639C24.4453 28.7191 24.4421 29.2742 24.439 29.8294C24.4383 30.2141 24.4377 30.5989 24.4373 30.9837C24.4358 31.9967 24.4318 33.0097 24.4274 34.0227C24.4233 35.0563 24.4215 36.0899 24.4195 37.1235C24.4152 39.1518 24.4084 41.18 24.4 43.2083C24.862 43.2083 25.324 43.2083 25.8 43.2083C25.8 44.3303 25.8 45.4523 25.8 46.6083C25.2206 46.6299 24.642 46.6458 24.0625 46.6583C23.8991 46.665 23.7358 46.6717 23.5675 46.6786C22.7478 46.6919 22.3125 46.6764 21.596 46.2427C20.8718 45.4484 20.9725 44.6131 20.9772 43.598C20.9772 43.434 20.9772 43.2701 20.9772 43.1012C20.9773 42.559 20.9789 42.0169 20.9804 41.4747C20.9808 41.0989 20.9811 40.7231 20.9813 40.3473C20.982 39.3579 20.984 38.3686 20.9862 37.3792C20.9883 36.3698 20.9892 35.3603 20.9902 34.3509C20.9923 32.37 20.9958 30.3891 21 28.4083C19.482 28.4083 17.964 28.4083 16.4 28.4083C16.268 28.7383 16.136 29.0683 16 29.4083C15.2618 30.5044 14.4794 31.0532 13.2 31.4083C11.6101 31.6566 10.3054 31.3548 8.99995 30.4083C7.99256 29.4113 7.42199 28.3255 7.38745 26.888C7.463 25.1741 8.03551 24.0853 9.28745 22.9333C11.0295 21.5546 12.9555 21.764 14.8 22.8083Z" fill="#F78319"/>
<path id="Vector_7" d="M81.2 10.4078C82.2817 11.115 82.9866 11.9867 83.4 13.2078C83.6163 14.7163 83.5885 16.1232 82.7399 17.4265C81.8926 18.3771 80.7591 19.1392 79.4727 19.2554C77.7681 19.2969 76.7295 19.0543 75.45 17.9203C75.0185 17.4288 74.6086 16.9185 74.2 16.4078C72.286 16.4078 70.372 16.4078 68.4 16.4078C68.4 20.5658 68.4 24.7238 68.4 29.0078C66.9729 28.2942 65.7277 27.4692 65 26.0078C64.5788 24.1844 64.7154 22.2749 64.7865 20.4175C64.8046 19.8686 64.8106 19.3199 64.8161 18.7708C64.823 18.1122 64.8363 17.4538 64.85 16.7953C64.8551 16.5505 64.8602 16.3057 64.8654 16.0535C64.8737 15.8257 64.8821 15.5979 64.8907 15.3632C64.8972 15.1637 64.9037 14.9641 64.9104 14.7585C65.0144 14.1195 65.2226 13.7301 65.6 13.2078C66.2872 12.8642 67.0788 12.998 67.8344 13.0078C68.2105 13.008 68.5865 13.0077 68.9625 13.007C69.5561 13.0061 70.1491 13.0077 70.7426 13.018C72.9471 13.1631 72.9471 13.1631 74.9122 12.4108C75.2118 11.9508 75.3992 11.5159 75.6 11.0078C77.3454 9.58967 79.1956 9.50267 81.2 10.4078Z" fill="#F78319"/>
<path id="Vector_8" d="M23.6 10.4076C24.3681 10.9393 24.7404 11.271 25.1164 12.1324C25.371 12.5874 25.4879 12.7715 25.99 12.9328C26.494 12.976 26.9819 12.9752 27.4875 12.9599C27.671 12.9605 27.8544 12.9611 28.0433 12.9616C28.6292 12.9627 29.2143 12.9546 29.8 12.9451C30.3857 12.9388 30.9711 12.9345 31.5567 12.935C31.9209 12.9349 32.2851 12.9309 32.6492 12.9224C33.8808 12.9181 33.8808 12.9181 34.5055 13.3871C35.4965 14.8019 35.1402 17.0355 35.1719 18.7006C35.1852 19.3883 35.2042 20.0747 35.2373 20.7617C35.4631 25.5509 35.4631 25.5509 34.3321 27.0557C33.6466 27.8072 32.8902 28.5054 32 29.0076C31.868 29.0076 31.736 29.0076 31.6 29.0076C31.534 24.8496 31.468 20.6916 31.4 16.4076C29.486 16.4076 27.572 16.4076 25.6 16.4076C25.27 16.9356 24.94 17.4636 24.6 18.0076C24.1735 18.3756 24.1735 18.3756 23.775 18.5951C23.5763 18.7092 23.5763 18.7092 23.3735 18.8256C22.1565 19.4188 20.7131 19.4354 19.4329 19.0263C18.1996 18.4486 17.3762 17.7961 16.7805 16.5474C16.3214 15.174 16.4078 13.6362 17 12.3201C17.6737 11.1465 18.5868 10.4887 19.8 9.93259C21.2026 9.64039 22.3325 9.75278 23.6 10.4076Z" fill="#F78319"/>
<path id="Vector_9" d="M53.0001 3.20763C54.0797 4.1281 54.5736 5.21886 54.8001 6.60763C54.8923 7.89456 54.4451 8.83783 53.8118 9.93576C53.3931 10.4156 53.1453 10.5353 52.5868 10.8025C52.0716 11.1202 51.8424 11.2793 51.6509 11.8601C51.5954 12.4324 51.5889 12.9866 51.6001 13.5615C51.5968 13.8724 51.5968 13.8724 51.5935 14.1895C51.5882 14.8499 51.594 15.5097 51.6001 16.1701C51.5984 16.6184 51.5961 17.0668 51.593 17.5151C51.5871 18.6127 51.5909 19.71 51.6001 20.8076C50.5441 20.8076 49.4881 20.8076 48.4001 20.8076C48.4034 20.5292 48.4068 20.2507 48.4103 19.9638C48.4204 18.9282 48.4187 17.893 48.4135 16.8574C48.4129 16.4097 48.4154 15.962 48.4213 15.5143C48.4292 14.8696 48.4255 14.2258 48.4196 13.5811C48.4245 13.3816 48.4294 13.1822 48.4345 12.9768C48.4226 12.4006 48.393 11.9514 48.2001 11.4076C47.7717 10.9977 47.3559 10.7286 46.8337 10.4499C45.9628 9.96338 45.6171 9.1619 45.3376 8.24513C45.0481 6.87618 45.2651 5.59779 45.943 4.37794C46.692 3.29886 47.6641 2.64825 48.9219 2.28888C50.3857 2.04013 51.7887 2.35319 53.0001 3.20763Z" fill="#F78319"/>
<path id="Vector_10" d="M37.2315 27.8287C37.7235 28.068 38.0359 28.4047 38.4 28.8079C37.938 28.6759 37.476 28.5439 37 28.4079C36.8659 28.5421 36.8659 28.5421 36.729 28.679C36.608 28.7999 36.4871 28.9208 36.3625 29.0454C36.2342 29.1741 36.1058 29.3027 35.9735 29.4353C35.6801 29.7281 35.3843 30.0184 35.0875 30.3079C34.0231 31.3677 34.0231 31.3677 33.2 32.6079C33.068 32.3439 32.936 32.0799 32.8 31.8079C33.3518 31.2314 33.9069 30.6582 34.4651 30.0879C34.6545 29.8935 34.8431 29.6981 35.0307 29.5018C35.3004 29.22 35.5736 28.9416 35.8469 28.6634C36.0103 28.4948 36.1737 28.3261 36.342 28.1524C36.8 27.8079 36.8 27.8079 37.2315 27.8287Z" fill="#F78319"/>
<path id="Vector_11" d="M52.6 3.00767C52.468 3.07367 52.336 3.13967 52.2 3.20767C52.0515 3.14657 51.903 3.08547 51.75 3.02251C51.1268 2.77906 50.6665 2.76082 50 2.77017C49.7979 2.77146 49.5958 2.77275 49.3875 2.77407C48.5805 2.81893 48.5805 2.81893 47.8 3.00767C47.5719 3.38053 47.5719 3.38053 47.4 3.80767C47.0547 4.14829 47.0547 4.14829 46.675 4.45767C46.5487 4.56182 46.4223 4.66598 46.2922 4.77329C46.1958 4.85064 46.0993 4.92798 46 5.00767C46 4.2965 46.2157 4.03128 46.6742 3.50611C48.3471 1.97365 50.6904 1.85187 52.6 3.00767Z" fill="#F78319"/>
<path id="Vector_12" d="M74.4 12.8076C74.499 13.0056 74.499 13.0056 74.6 13.2076C74.3569 13.2116 74.1137 13.2155 73.8632 13.2196C72.9592 13.2349 72.0554 13.2526 71.1515 13.2711C70.7607 13.2787 70.3698 13.2857 69.9789 13.292C69.4163 13.3011 68.8539 13.3127 68.2914 13.3248C68.1172 13.3271 67.943 13.3294 67.7635 13.3318C66.8904 13.353 66.1949 13.402 65.4 13.8076C65.466 13.6096 65.532 13.4116 65.6 13.2076C66.0521 12.9816 66.3143 12.9771 66.8165 12.9666C67.0687 12.9606 67.0687 12.9606 67.3261 12.9545C67.5077 12.9511 67.6894 12.9478 67.8766 12.9443C68.0625 12.9402 68.2483 12.936 68.4399 12.9317C69.0349 12.9186 69.63 12.9069 70.225 12.8951C70.6279 12.8865 71.0308 12.8778 71.4336 12.8689C72.4224 12.8475 73.4112 12.8273 74.4 12.8076Z" fill="#F78319"/>
<path id="Vector_13" d="M35.0594 30.0521C35.1718 30.1034 35.2842 30.1547 35.4 30.2076C35.2338 30.3488 35.2338 30.3488 35.0641 30.4928C34.8468 30.6796 34.8468 30.6796 34.625 30.8701C34.4812 30.9931 34.3373 31.1161 34.1891 31.2428C33.7531 31.6517 33.467 32.0736 33.2 32.6076C33.068 32.3436 32.936 32.0796 32.8 31.8076C33.0802 31.5005 33.3643 31.197 33.65 30.8951C33.8867 30.641 33.8867 30.641 34.1282 30.3818C34.6 30.0076 34.6 30.0076 35.0594 30.0521Z" fill="#F78319"/>
<path id="Vector_14" d="M65 63.8076C65 64.534 64.8091 64.757 64.4 65.3451C64.2886 65.5068 64.1773 65.6684 64.0625 65.835C63.9759 65.9579 63.8893 66.0809 63.8 66.2076C63.536 66.0756 63.272 65.9436 63 65.8076C63.66 65.1476 64.32 64.4876 65 63.8076Z" fill="#F78319"/>
<path id="Vector_15" d="M47 3.20801C47.4266 3.2877 47.4266 3.2877 47.8 3.40801C47.5805 3.6384 47.3593 3.86728 47.1375 4.09551C47.0146 4.22312 46.8916 4.35074 46.7649 4.48223C46.4 4.80801 46.4 4.80801 45.8 5.00801C46.0594 4.22984 46.3414 3.71164 47 3.20801Z" fill="#F78319"/>
<path id="Vector_16" d="M14.6 36.6084C14.732 36.6744 14.864 36.7404 15 36.8084C14.7764 37.0762 14.5511 37.3426 14.325 37.6084C14.1998 37.7569 14.0745 37.9054 13.9454 38.0584C13.7744 38.2316 13.7744 38.2316 13.6 38.4084C13.468 38.4084 13.336 38.4084 13.2 38.4084C13.2 38.6064 13.2 38.8044 13.2 39.0084C13.068 39.0084 12.936 39.0084 12.8 39.0084C13.0906 37.943 13.8163 37.3356 14.6 36.6084Z" fill="#F78319"/>
<path id="Vector_17" d="M9.4 22.8076C9.532 22.8736 9.664 22.9396 9.8 23.0076C9.272 23.6016 8.744 24.1956 8.2 24.8076C8.134 24.6756 8.068 24.5436 8 24.4076C8.462 23.8796 8.924 23.3516 9.4 22.8076Z" fill="#F78319"/>
<path id="Vector_18" d="M33.6 31.0078C33.666 31.2058 33.732 31.4038 33.8 31.6078C33.602 31.9048 33.602 31.9048 33.4 32.2078C33.334 32.3398 33.268 32.4718 33.2 32.6078C33.068 32.3438 32.936 32.0798 32.8 31.8078C33.064 31.5438 33.328 31.2798 33.6 31.0078Z" fill="#F78319"/>
</g>
</svg>
