<svg width="60" height="61" viewBox="0 0 60 61" fill="none" xmlns="http://www.w3.org/2000/svg">
<g id="worker-removebg-preview 1">
<path id="Vector" d="M8.41598 30.0431C8.59045 30.0424 8.59045 30.0424 8.76845 30.0417C9.15496 30.0405 9.54143 30.0419 9.92794 30.0434C10.2064 30.0431 10.4848 30.0426 10.7632 30.042C11.5172 30.0409 12.2711 30.042 13.0251 30.0436C13.8152 30.045 14.6053 30.0445 15.3954 30.0443C16.7221 30.0441 18.0488 30.0455 19.3755 30.0477C20.7386 30.05 22.1016 30.0508 23.4646 30.0502C25.11 30.0493 26.7554 30.0497 28.4009 30.0512C29.0282 30.0518 29.6555 30.0519 30.2829 30.0517C31.022 30.0514 31.7611 30.0524 32.5002 30.0543C32.771 30.0548 33.0418 30.0549 33.3126 30.0546C33.6831 30.0542 34.0536 30.0553 34.4241 30.0567C34.5305 30.0563 34.6368 30.0558 34.7464 30.0554C35.8811 30.0633 36.9229 30.1647 37.7551 31.0049C41.7928 35.4697 38.5201 43.0283 38.5201 49.048C27.3529 49.048 16.1857 49.048 4.68005 49.048C4.68005 31.7758 4.68005 31.7758 5.34849 30.9294C6.2419 30.1685 7.27551 30.0336 8.41598 30.0431ZM19.7551 38.3905C19.1496 39.0392 18.8842 39.6992 18.8283 40.5857C18.8611 41.4319 19.1886 42.1038 19.8001 42.688C20.5014 43.1668 21.2751 43.3868 22.119 43.2393C22.8775 43.0229 23.4726 42.6379 23.9143 41.9774C24.3025 41.2594 24.4373 40.6181 24.2401 39.8155C23.9763 39.0254 23.5007 38.4776 22.8151 38.0155C21.7516 37.654 20.6859 37.6988 19.7551 38.3905Z" fill="white"/>
<path id="Vector_2" d="M21.2369 1.9702C21.5157 1.97058 21.7944 1.96776 22.0733 1.96472C24.239 1.95527 26.1217 2.50298 27.7129 4.02561C29.1923 5.49928 30.1064 7.25333 30.1369 9.36997C30.1331 10.004 30.113 10.6377 30.0855 11.271C30.0389 12.4268 30.0626 13.2087 30.8401 14.1281C31.1083 14.9327 31.0694 15.8006 30.7201 16.5731C30.3251 17.2709 29.7794 17.654 29.0776 18.0131C28.7739 18.0951 28.5132 18.0933 28.2001 18.0881C28.1824 18.1767 28.1648 18.2654 28.1466 18.3567C27.9453 19.2673 27.6711 20.365 26.9394 21.0065C26.5011 21.4098 26.358 21.7386 26.3135 22.3385C26.2964 22.7594 26.2941 23.1794 26.2951 23.6006C26.2929 23.776 26.2904 23.9514 26.2876 24.1268C26.2814 24.5539 26.2795 24.9809 26.2801 25.4081C26.4216 25.4051 26.5631 25.4022 26.709 25.3992C28.7342 25.4014 30.8386 26.4036 32.2801 27.8081C32.3989 28.1051 32.3989 28.1051 32.5201 28.4081C25.2733 28.4081 18.0265 28.4081 10.5601 28.4081C11.2441 27.0401 12.777 26.298 14.165 25.8002C15.0493 25.5116 15.8706 25.3796 16.8001 25.4081C16.8037 24.8979 16.8018 24.3882 16.7949 23.8781C16.7934 23.705 16.7933 23.532 16.7947 23.3589C16.8032 22.1909 16.6758 21.4797 15.8401 20.6081C15.3346 19.7864 15.0323 19.055 15.0001 18.0881C14.8441 18.0831 14.6882 18.0782 14.5276 18.0731C13.8374 17.9937 13.3519 17.7104 12.8401 17.2481C12.1558 16.3846 12.018 15.5765 12.1201 14.4881C12.2636 14.0468 12.4595 13.6713 12.7858 13.3389C13.0386 12.9169 13.0106 12.506 13.0088 12.0281C13.0101 11.9283 13.0114 11.8285 13.0127 11.7257C13.0169 11.4065 13.0187 11.0873 13.0201 10.7681C13.0316 8.0439 13.4838 5.90819 15.4801 3.92808C17.179 2.42579 19.0329 1.96395 21.2369 1.9702ZM23.7376 12.2681C22.0902 13.546 20.0249 14.2163 17.9626 14.3156C17.8622 14.3208 17.7619 14.3259 17.6586 14.3313C17.4124 14.3439 17.1662 14.3561 16.9201 14.3681C16.8041 17.5795 16.8041 17.5795 18.2776 20.3306C19.2721 21.1863 20.2757 21.6676 21.6076 21.7331C22.9366 21.6065 24.1198 21.1473 25.0576 20.1731C26.3868 18.5421 26.3657 16.2037 26.2229 14.2019C26.1082 13.4103 25.7709 13.0296 25.164 12.5432C25.0571 12.4722 24.9502 12.4012 24.8401 12.3281C24.741 12.2234 24.741 12.2234 24.6399 12.1167C24.2909 11.7922 24.0347 12.0124 23.7376 12.2681ZM18.8401 23.1281C18.8295 23.5306 18.8232 23.933 18.8176 24.3356C18.8145 24.4487 18.8115 24.5619 18.8084 24.6785C18.8011 25.3797 18.8589 25.8708 19.2001 26.4881C19.9565 27.2246 20.8224 27.3167 21.8401 27.3281C22.7551 27.2475 23.402 26.9951 24.0376 26.3081C24.3397 25.8605 24.3752 25.4889 24.3718 24.9562C24.3714 24.8495 24.371 24.7427 24.3706 24.6328C24.3696 24.5223 24.3686 24.4119 24.3676 24.2981C24.367 24.1858 24.3665 24.0735 24.3659 23.9578C24.3645 23.6812 24.3625 23.4046 24.3601 23.1281C24.2652 23.1627 24.1704 23.1974 24.0727 23.2331C22.3133 23.8122 20.5702 23.8239 18.8401 23.1281Z" fill="white"/>
<path id="Vector_3" d="M3.2036 54.5075C3.29761 54.5068 3.39163 54.5061 3.48849 54.5054C3.80545 54.5036 4.1223 54.5053 4.43926 54.5069C4.66801 54.5064 4.89676 54.5056 5.12551 54.5047C5.75561 54.5027 6.38568 54.5037 7.01579 54.5052C7.69473 54.5062 8.37367 54.5046 9.05262 54.5032C10.3833 54.5011 11.7139 54.5016 13.0446 54.503C14.1257 54.504 15.2068 54.5042 16.2879 54.5037C16.4415 54.5036 16.5952 54.5035 16.7535 54.5034C17.0656 54.5033 17.3778 54.5031 17.6899 54.503C20.5356 54.5016 23.3813 54.503 26.2269 54.5055C28.8259 54.5078 31.4248 54.5076 34.0237 54.5053C36.9422 54.5028 39.8607 54.5017 42.7792 54.5032C43.0902 54.5034 43.4012 54.5035 43.7122 54.5037C43.9418 54.5038 43.9418 54.5038 44.176 54.5039C45.2562 54.5043 46.3365 54.5036 47.4167 54.5025C48.7325 54.5011 50.0484 54.5015 51.3642 54.5041C52.036 54.5053 52.7078 54.5058 53.3796 54.5042C53.994 54.5028 54.6083 54.5036 55.2226 54.5061C55.4455 54.5067 55.6684 54.5064 55.8913 54.5052C56.1931 54.5038 56.4947 54.5053 56.7965 54.5075C56.8841 54.5064 56.9716 54.5052 57.0618 54.5041C57.4711 54.5102 57.6847 54.5408 58.0138 54.793C58.3668 55.276 58.2736 55.8435 58.2676 56.4204C58.2704 56.5448 58.2733 56.6693 58.2762 56.7975C58.276 56.9179 58.2758 57.0384 58.2755 57.1624C58.2757 57.3266 58.2757 57.3266 58.2758 57.494C58.1661 57.9485 57.9617 58.1164 57.6001 58.4079C57.264 58.467 57.0011 58.4888 56.6658 58.4834C56.5253 58.4847 56.5253 58.4847 56.3819 58.486C56.0666 58.4882 55.7516 58.4862 55.4363 58.4841C55.2086 58.4848 54.9808 58.4857 54.753 58.4869C54.1261 58.4894 53.4993 58.4882 52.8724 58.4863C52.1968 58.485 51.5211 58.4871 50.8454 58.4887C49.5214 58.4914 48.1974 58.4908 46.8734 58.4891C45.7976 58.4877 44.7218 58.4875 43.646 58.4882C43.4166 58.4883 43.4166 58.4883 43.1826 58.4885C42.8719 58.4887 42.5612 58.4889 42.2505 58.489C39.4185 58.4907 36.5865 58.489 33.7545 58.4858C31.1684 58.483 28.5824 58.4833 25.9963 58.4861C23.0918 58.4893 20.1873 58.4906 17.2827 58.4888C16.9732 58.4886 16.6636 58.4884 16.3541 58.4882C16.2017 58.4881 16.0494 58.488 15.8925 58.4879C14.8176 58.4874 13.7428 58.4883 12.668 58.4897C11.3586 58.4914 10.0492 58.4909 8.73987 58.4877C8.07144 58.4861 7.40305 58.4855 6.73462 58.4875C6.12321 58.4893 5.51186 58.4883 4.90046 58.4851C4.6788 58.4844 4.45713 58.4848 4.23548 58.4862C3.93499 58.4881 3.63475 58.4862 3.33428 58.4834C3.24747 58.4848 3.16066 58.4862 3.07121 58.4877C2.60626 58.479 2.41327 58.4186 2.04639 58.1228C1.7674 57.7662 1.72423 57.6089 1.72458 57.1624C1.72435 57.042 1.72412 56.9216 1.72388 56.7975C1.72674 56.6731 1.7296 56.5486 1.73255 56.4204C1.73123 56.2955 1.72992 56.1706 1.72856 56.0419C1.73732 55.1337 1.73732 55.1337 1.98633 54.793C2.38299 54.489 2.72372 54.5013 3.2036 54.5075Z" fill="white"/>
<path id="Vector_4" d="M41.7806 43.2531C41.9305 43.2519 41.9305 43.2519 42.0835 43.2507C42.4143 43.2484 42.745 43.2479 43.0758 43.2477C43.3055 43.2469 43.5352 43.2461 43.7649 43.2452C44.2466 43.2438 44.7283 43.2434 45.21 43.2435C45.8276 43.2435 46.445 43.2402 47.0626 43.2361C47.5371 43.2334 48.0115 43.233 48.486 43.2331C48.7137 43.2328 48.9414 43.2317 49.1691 43.2299C49.4874 43.2275 49.8056 43.2282 50.1239 43.2297C50.2181 43.2283 50.3123 43.227 50.4094 43.2256C50.8337 43.2305 51.0743 43.254 51.4194 43.5106C51.6548 43.8459 51.6493 44.0525 51.63 44.458C51.6257 44.5762 51.6214 44.6943 51.6169 44.8161C51.6113 44.9058 51.6058 44.9955 51.6 45.088C51.6878 45.0861 51.7755 45.0842 51.8659 45.0823C52.2648 45.0748 52.6636 45.0701 53.0625 45.0655C53.2696 45.0609 53.2696 45.0609 53.4809 45.0563C53.681 45.0546 53.681 45.0546 53.8852 45.0528C54.0077 45.0509 54.1303 45.049 54.2565 45.0471C54.6893 45.0986 55.0099 45.2578 55.32 45.568C55.3644 46.1044 55.3647 46.6425 55.3725 47.1805C55.378 47.3301 55.3835 47.4798 55.3892 47.634C55.4013 48.6363 55.2678 49.3551 54.6 50.128C53.8796 50.7018 53.2739 50.8666 52.3575 50.8555C52.2312 50.8547 52.2312 50.8547 52.1023 50.8538C51.8949 50.8524 51.6874 50.8503 51.48 50.848C51.4689 51.0225 51.4689 51.0225 51.4575 51.2005C51.4025 51.6087 51.2591 51.9027 51.0539 52.2584C50.9991 52.3543 50.9443 52.4501 50.8879 52.5489C50.8457 52.6212 50.8035 52.6935 50.76 52.768C49.5187 52.7902 48.2775 52.8073 47.0361 52.8177C46.4596 52.8227 45.8833 52.8295 45.3069 52.8404C44.7505 52.8508 44.1943 52.8566 43.6379 52.8591C43.4257 52.8608 43.2135 52.8643 43.0013 52.8695C41.3598 52.908 41.3598 52.908 40.9062 52.5901C40.7306 52.3322 40.6459 52.1074 40.56 51.808C40.5056 51.6712 40.5056 51.6712 40.45 51.5317C40.1537 50.7191 40.1495 49.9201 40.1564 49.0639C40.1564 48.9203 40.1563 48.7766 40.1563 48.6286C40.1565 48.3271 40.1577 48.0255 40.1597 47.724C40.1625 47.2619 40.1622 46.7998 40.1614 46.3377C40.162 46.0439 40.1629 45.7502 40.1639 45.4564C40.1638 45.3183 40.1637 45.1802 40.1636 45.0379C40.1647 44.9096 40.1659 44.7814 40.1671 44.6493C40.1676 44.5367 40.1682 44.4242 40.1687 44.3082C40.2022 43.9871 40.264 43.7973 40.44 43.528C40.8936 43.2256 41.2551 43.2525 41.7806 43.2531ZM51.6 47.128C51.6 47.722 51.6 48.316 51.6 48.928C52.4143 48.9711 52.4143 48.9711 53.16 48.688C53.4672 48.1907 53.4192 47.6937 53.4 47.128C52.806 47.128 52.212 47.128 51.6 47.128Z" fill="white"/>
<path id="Vector_5" d="M4.67999 50.7279C8.97367 50.7251 13.2674 50.723 17.561 50.7218C18.0674 50.7216 18.5738 50.7215 19.0801 50.7213C19.1809 50.7213 19.2818 50.7212 19.3856 50.7212C21.0202 50.7207 22.6547 50.7197 24.2892 50.7186C25.9651 50.7175 27.641 50.7168 29.3169 50.7166C30.3519 50.7164 31.3868 50.7159 32.4218 50.7149C33.1305 50.7143 33.8393 50.7141 34.548 50.7143C34.9575 50.7143 35.3671 50.7142 35.7766 50.7136C36.2195 50.713 36.6625 50.7131 37.1054 50.7135C37.2363 50.7131 37.3671 50.7128 37.5019 50.7124C37.6785 50.7128 37.6785 50.7128 37.8586 50.7131C37.961 50.7131 38.0634 50.713 38.1689 50.713C38.4 50.7279 38.4 50.7279 38.52 50.8479C38.5779 51.4036 38.5143 51.75 38.2776 52.2579C38.2334 52.3538 38.1892 52.4497 38.1437 52.5485C38.1095 52.6209 38.0752 52.6933 38.04 52.7679C33.8574 52.7816 29.6748 52.7922 25.4922 52.7985C24.9988 52.7993 24.5053 52.8001 24.0119 52.8009C23.8646 52.8011 23.8646 52.8011 23.7142 52.8013C22.1221 52.8039 20.5301 52.8087 18.938 52.8142C17.3052 52.8198 15.6724 52.8231 14.0397 52.8243C13.0316 52.8252 12.0235 52.8278 11.0155 52.8326C10.3248 52.8358 9.63422 52.8368 8.94358 52.836C8.54468 52.8356 8.1459 52.8365 7.747 52.8394C7.31513 52.8424 6.88341 52.8417 6.45153 52.84C6.32464 52.8418 6.19776 52.8435 6.06703 52.8453C5.75283 52.8421 5.46671 52.8359 5.15999 52.7679C4.90442 52.477 4.90442 52.477 4.79999 52.1679C4.77276 52.0961 4.74554 52.0243 4.71749 51.9504C4.65934 51.5434 4.67791 51.1389 4.67999 50.7279Z" fill="white"/>
<path id="Vector_6" d="M47.82 35.6531C48.3607 35.7496 48.5065 35.895 48.84 36.3281C48.9262 36.684 48.9242 37.0287 48.9197 37.3935C48.9203 37.4954 48.9209 37.5973 48.9214 37.7023C48.9219 37.917 48.9208 38.1318 48.9182 38.3465C48.915 38.675 48.9182 39.0031 48.922 39.3316C48.9217 39.5406 48.9209 39.7496 48.9197 39.9585C48.9209 40.0566 48.9221 40.1546 48.9234 40.2555C48.9131 40.7536 48.9076 40.9376 48.5508 41.3097C48.0711 41.5851 47.8282 41.5577 47.28 41.4881C47.0147 41.3099 47.0147 41.3099 46.8 41.0081C46.7508 40.6434 46.7298 40.3231 46.732 39.9585C46.7313 39.8568 46.7306 39.755 46.7298 39.6501C46.7289 39.4352 46.7293 39.2202 46.7308 39.0053C46.7325 38.677 46.7284 38.3492 46.7238 38.021C46.7237 37.8118 46.724 37.6027 46.7245 37.3935C46.723 37.2958 46.7214 37.198 46.7197 37.0973C46.7281 36.5865 46.7567 36.3843 47.0785 35.9662C47.4 35.7281 47.4 35.7281 47.82 35.6531Z" fill="white"/>
<path id="Vector_7" d="M44.4 35.728C44.724 35.944 44.945 36.098 45.12 36.448C45.1541 37.075 45.1576 37.7022 45.162 38.3301C45.164 38.5397 45.1672 38.7494 45.1718 38.9589C45.1784 39.2615 45.181 39.5639 45.1828 39.8666C45.1855 39.9599 45.1882 40.0531 45.191 40.1492C45.1891 40.6381 45.144 40.858 44.8343 41.2443C44.4988 41.5044 44.3428 41.608 43.92 41.608C43.2433 41.3347 43.2433 41.3347 43.08 41.008C43.0457 40.3275 43.0423 39.6468 43.038 38.9655C43.036 38.7376 43.0327 38.5097 43.0281 38.2818C43.0215 37.9533 43.0189 37.625 43.0172 37.2964C43.0144 37.1947 43.0117 37.0929 43.0089 36.9881C43.0114 36.2821 43.0114 36.2821 43.3614 35.9037C43.7532 35.6876 43.9587 35.6544 44.4 35.728Z" fill="white"/>
</g>
</svg>
